<?xml version="1.0" encoding="utf-8" standalone="no"?>
<!DOCTYPE svg PUBLIC "-//W3C//DTD SVG 1.1//EN"
  "http://www.w3.org/Graphics/SVG/1.1/DTD/svg11.dtd">
<!-- Created with matplotlib (https://matplotlib.org/) -->
<svg height="216pt" version="1.1" viewBox="0 0 288 216" width="288pt" xmlns="http://www.w3.org/2000/svg" xmlns:xlink="http://www.w3.org/1999/xlink">
 <defs>
  <style type="text/css">
*{stroke-linecap:butt;stroke-linejoin:round;}
  </style>
 </defs>
 <g id="figure_1">
  <g id="patch_1">
   <path d="M 0 216 
L 288 216 
L 288 0 
L 0 0 
z
" style="fill:#ffffff;"/>
  </g>
  <g id="axes_1">
   <g id="patch_2">
    <path d="M 0 216 
L 288 216 
L 288 0 
L 0 0 
z
" style="fill:#ffffff;"/>
   </g>
   <g id="matplotlib.axis_1">
    <g id="xtick_1">
     <g id="line2d_1">
      <path clip-path="url(#pc1f902b885)" d="M 12.178651 216 
L 12.178651 0 
" style="fill:none;stroke:#b0b0b0;stroke-linecap:square;stroke-width:0.8;"/>
     </g>
     <g id="line2d_2">
      <defs>
       <path d="M 0 0 
L 0 3.5 
" id="m1086514c28" style="stroke:#000000;stroke-width:0.8;"/>
      </defs>
      <g>
       <use style="stroke:#000000;stroke-width:0.8;" x="12.178651" xlink:href="#m1086514c28" y="216"/>
      </g>
     </g>
     <g id="text_1">
      <!-- 0 -->
      <defs>
       <path d="M 31.78125 66.40625 
Q 24.171875 66.40625 20.328125 58.90625 
Q 16.5 51.421875 16.5 36.375 
Q 16.5 21.390625 20.328125 13.890625 
Q 24.171875 6.390625 31.78125 6.390625 
Q 39.453125 6.390625 43.28125 13.890625 
Q 47.125 21.390625 47.125 36.375 
Q 47.125 51.421875 43.28125 58.90625 
Q 39.453125 66.40625 31.78125 66.40625 
z
M 31.78125 74.21875 
Q 44.046875 74.21875 50.515625 64.515625 
Q 56.984375 54.828125 56.984375 36.375 
Q 56.984375 17.96875 50.515625 8.265625 
Q 44.046875 -1.421875 31.78125 -1.421875 
Q 19.53125 -1.421875 13.0625 8.265625 
Q 6.59375 17.96875 6.59375 36.375 
Q 6.59375 54.828125 13.0625 64.515625 
Q 19.53125 74.21875 31.78125 74.21875 
z
" id="DejaVuSans-48"/>
      </defs>
      <g transform="translate(8.997401 230.598437)scale(0.1 -0.1)">
       <use xlink:href="#DejaVuSans-48"/>
      </g>
     </g>
    </g>
    <g id="xtick_2">
     <g id="line2d_3">
      <path clip-path="url(#pc1f902b885)" d="M 57.791574 216 
L 57.791574 0 
" style="fill:none;stroke:#b0b0b0;stroke-linecap:square;stroke-width:0.8;"/>
     </g>
     <g id="line2d_4">
      <g>
       <use style="stroke:#000000;stroke-width:0.8;" x="57.791574" xlink:href="#m1086514c28" y="216"/>
      </g>
     </g>
     <g id="text_2">
      <!-- 50 -->
      <defs>
       <path d="M 10.796875 72.90625 
L 49.515625 72.90625 
L 49.515625 64.59375 
L 19.828125 64.59375 
L 19.828125 46.734375 
Q 21.96875 47.46875 24.109375 47.828125 
Q 26.265625 48.1875 28.421875 48.1875 
Q 40.625 48.1875 47.75 41.5 
Q 54.890625 34.8125 54.890625 23.390625 
Q 54.890625 11.625 47.5625 5.09375 
Q 40.234375 -1.421875 26.90625 -1.421875 
Q 22.3125 -1.421875 17.546875 -0.640625 
Q 12.796875 0.140625 7.71875 1.703125 
L 7.71875 11.625 
Q 12.109375 9.234375 16.796875 8.0625 
Q 21.484375 6.890625 26.703125 6.890625 
Q 35.15625 6.890625 40.078125 11.328125 
Q 45.015625 15.765625 45.015625 23.390625 
Q 45.015625 31 40.078125 35.4375 
Q 35.15625 39.890625 26.703125 39.890625 
Q 22.75 39.890625 18.8125 39.015625 
Q 14.890625 38.140625 10.796875 36.28125 
z
" id="DejaVuSans-53"/>
      </defs>
      <g transform="translate(51.429074 230.598437)scale(0.1 -0.1)">
       <use xlink:href="#DejaVuSans-53"/>
       <use x="63.623047" xlink:href="#DejaVuSans-48"/>
      </g>
     </g>
    </g>
    <g id="xtick_3">
     <g id="line2d_5">
      <path clip-path="url(#pc1f902b885)" d="M 103.404498 216 
L 103.404498 0 
" style="fill:none;stroke:#b0b0b0;stroke-linecap:square;stroke-width:0.8;"/>
     </g>
     <g id="line2d_6">
      <g>
       <use style="stroke:#000000;stroke-width:0.8;" x="103.404498" xlink:href="#m1086514c28" y="216"/>
      </g>
     </g>
     <g id="text_3">
      <!-- 100 -->
      <defs>
       <path d="M 12.40625 8.296875 
L 28.515625 8.296875 
L 28.515625 63.921875 
L 10.984375 60.40625 
L 10.984375 69.390625 
L 28.421875 72.90625 
L 38.28125 72.90625 
L 38.28125 8.296875 
L 54.390625 8.296875 
L 54.390625 0 
L 12.40625 0 
z
" id="DejaVuSans-49"/>
      </defs>
      <g transform="translate(93.860748 230.598437)scale(0.1 -0.1)">
       <use xlink:href="#DejaVuSans-49"/>
       <use x="63.623047" xlink:href="#DejaVuSans-48"/>
       <use x="127.246094" xlink:href="#DejaVuSans-48"/>
      </g>
     </g>
    </g>
    <g id="xtick_4">
     <g id="line2d_7">
      <path clip-path="url(#pc1f902b885)" d="M 149.017422 216 
L 149.017422 0 
" style="fill:none;stroke:#b0b0b0;stroke-linecap:square;stroke-width:0.8;"/>
     </g>
     <g id="line2d_8">
      <g>
       <use style="stroke:#000000;stroke-width:0.8;" x="149.017422" xlink:href="#m1086514c28" y="216"/>
      </g>
     </g>
     <g id="text_4">
      <!-- 150 -->
      <g transform="translate(139.473672 230.598437)scale(0.1 -0.1)">
       <use xlink:href="#DejaVuSans-49"/>
       <use x="63.623047" xlink:href="#DejaVuSans-53"/>
       <use x="127.246094" xlink:href="#DejaVuSans-48"/>
      </g>
     </g>
    </g>
    <g id="xtick_5">
     <g id="line2d_9">
      <path clip-path="url(#pc1f902b885)" d="M 194.630345 216 
L 194.630345 0 
" style="fill:none;stroke:#b0b0b0;stroke-linecap:square;stroke-width:0.8;"/>
     </g>
     <g id="line2d_10">
      <g>
       <use style="stroke:#000000;stroke-width:0.8;" x="194.630345" xlink:href="#m1086514c28" y="216"/>
      </g>
     </g>
     <g id="text_5">
      <!-- 200 -->
      <defs>
       <path d="M 19.1875 8.296875 
L 53.609375 8.296875 
L 53.609375 0 
L 7.328125 0 
L 7.328125 8.296875 
Q 12.9375 14.109375 22.625 23.890625 
Q 32.328125 33.6875 34.8125 36.53125 
Q 39.546875 41.84375 41.421875 45.53125 
Q 43.3125 49.21875 43.3125 52.78125 
Q 43.3125 58.59375 39.234375 62.25 
Q 35.15625 65.921875 28.609375 65.921875 
Q 23.96875 65.921875 18.8125 64.3125 
Q 13.671875 62.703125 7.8125 59.421875 
L 7.8125 69.390625 
Q 13.765625 71.78125 18.9375 73 
Q 24.125 74.21875 28.421875 74.21875 
Q 39.75 74.21875 46.484375 68.546875 
Q 53.21875 62.890625 53.21875 53.421875 
Q 53.21875 48.921875 51.53125 44.890625 
Q 49.859375 40.875 45.40625 35.40625 
Q 44.1875 33.984375 37.640625 27.21875 
Q 31.109375 20.453125 19.1875 8.296875 
z
" id="DejaVuSans-50"/>
      </defs>
      <g transform="translate(185.086595 230.598437)scale(0.1 -0.1)">
       <use xlink:href="#DejaVuSans-50"/>
       <use x="63.623047" xlink:href="#DejaVuSans-48"/>
       <use x="127.246094" xlink:href="#DejaVuSans-48"/>
      </g>
     </g>
    </g>
    <g id="xtick_6">
     <g id="line2d_11">
      <path clip-path="url(#pc1f902b885)" d="M 240.243269 216 
L 240.243269 0 
" style="fill:none;stroke:#b0b0b0;stroke-linecap:square;stroke-width:0.8;"/>
     </g>
     <g id="line2d_12">
      <g>
       <use style="stroke:#000000;stroke-width:0.8;" x="240.243269" xlink:href="#m1086514c28" y="216"/>
      </g>
     </g>
     <g id="text_6">
      <!-- 250 -->
      <g transform="translate(230.699519 230.598437)scale(0.1 -0.1)">
       <use xlink:href="#DejaVuSans-50"/>
       <use x="63.623047" xlink:href="#DejaVuSans-53"/>
       <use x="127.246094" xlink:href="#DejaVuSans-48"/>
      </g>
     </g>
    </g>
    <g id="xtick_7">
     <g id="line2d_13">
      <path clip-path="url(#pc1f902b885)" d="M 285.856193 216 
L 285.856193 0 
" style="fill:none;stroke:#b0b0b0;stroke-linecap:square;stroke-width:0.8;"/>
     </g>
     <g id="line2d_14">
      <g>
       <use style="stroke:#000000;stroke-width:0.8;" x="285.856193" xlink:href="#m1086514c28" y="216"/>
      </g>
     </g>
     <g id="text_7">
      <!-- 300 -->
      <defs>
       <path d="M 40.578125 39.3125 
Q 47.65625 37.796875 51.625 33 
Q 55.609375 28.21875 55.609375 21.1875 
Q 55.609375 10.40625 48.1875 4.484375 
Q 40.765625 -1.421875 27.09375 -1.421875 
Q 22.515625 -1.421875 17.65625 -0.515625 
Q 12.796875 0.390625 7.625 2.203125 
L 7.625 11.71875 
Q 11.71875 9.328125 16.59375 8.109375 
Q 21.484375 6.890625 26.8125 6.890625 
Q 36.078125 6.890625 40.9375 10.546875 
Q 45.796875 14.203125 45.796875 21.1875 
Q 45.796875 27.640625 41.28125 31.265625 
Q 36.765625 34.90625 28.71875 34.90625 
L 20.21875 34.90625 
L 20.21875 43.015625 
L 29.109375 43.015625 
Q 36.375 43.015625 40.234375 45.921875 
Q 44.09375 48.828125 44.09375 54.296875 
Q 44.09375 59.90625 40.109375 62.90625 
Q 36.140625 65.921875 28.71875 65.921875 
Q 24.65625 65.921875 20.015625 65.03125 
Q 15.375 64.15625 9.8125 62.3125 
L 9.8125 71.09375 
Q 15.4375 72.65625 20.34375 73.4375 
Q 25.25 74.21875 29.59375 74.21875 
Q 40.828125 74.21875 47.359375 69.109375 
Q 53.90625 64.015625 53.90625 55.328125 
Q 53.90625 49.265625 50.4375 45.09375 
Q 46.96875 40.921875 40.578125 39.3125 
z
" id="DejaVuSans-51"/>
      </defs>
      <g transform="translate(276.312443 230.598437)scale(0.1 -0.1)">
       <use xlink:href="#DejaVuSans-51"/>
       <use x="63.623047" xlink:href="#DejaVuSans-48"/>
       <use x="127.246094" xlink:href="#DejaVuSans-48"/>
      </g>
     </g>
    </g>
    <g id="text_8">
     <!-- Number of cores -->
     <defs>
      <path d="M 9.8125 72.90625 
L 23.09375 72.90625 
L 55.421875 11.921875 
L 55.421875 72.90625 
L 64.984375 72.90625 
L 64.984375 0 
L 51.703125 0 
L 19.390625 60.984375 
L 19.390625 0 
L 9.8125 0 
z
" id="DejaVuSans-78"/>
      <path d="M 8.5 21.578125 
L 8.5 54.6875 
L 17.484375 54.6875 
L 17.484375 21.921875 
Q 17.484375 14.15625 20.5 10.265625 
Q 23.53125 6.390625 29.59375 6.390625 
Q 36.859375 6.390625 41.078125 11.03125 
Q 45.3125 15.671875 45.3125 23.6875 
L 45.3125 54.6875 
L 54.296875 54.6875 
L 54.296875 0 
L 45.3125 0 
L 45.3125 8.40625 
Q 42.046875 3.421875 37.71875 1 
Q 33.40625 -1.421875 27.6875 -1.421875 
Q 18.265625 -1.421875 13.375 4.4375 
Q 8.5 10.296875 8.5 21.578125 
z
M 31.109375 56 
z
" id="DejaVuSans-117"/>
      <path d="M 52 44.1875 
Q 55.375 50.25 60.0625 53.125 
Q 64.75 56 71.09375 56 
Q 79.640625 56 84.28125 50.015625 
Q 88.921875 44.046875 88.921875 33.015625 
L 88.921875 0 
L 79.890625 0 
L 79.890625 32.71875 
Q 79.890625 40.578125 77.09375 44.375 
Q 74.3125 48.1875 68.609375 48.1875 
Q 61.625 48.1875 57.5625 43.546875 
Q 53.515625 38.921875 53.515625 30.90625 
L 53.515625 0 
L 44.484375 0 
L 44.484375 32.71875 
Q 44.484375 40.625 41.703125 44.40625 
Q 38.921875 48.1875 33.109375 48.1875 
Q 26.21875 48.1875 22.15625 43.53125 
Q 18.109375 38.875 18.109375 30.90625 
L 18.109375 0 
L 9.078125 0 
L 9.078125 54.6875 
L 18.109375 54.6875 
L 18.109375 46.1875 
Q 21.1875 51.21875 25.484375 53.609375 
Q 29.78125 56 35.6875 56 
Q 41.65625 56 45.828125 52.96875 
Q 50 49.953125 52 44.1875 
z
" id="DejaVuSans-109"/>
      <path d="M 48.6875 27.296875 
Q 48.6875 37.203125 44.609375 42.84375 
Q 40.53125 48.484375 33.40625 48.484375 
Q 26.265625 48.484375 22.1875 42.84375 
Q 18.109375 37.203125 18.109375 27.296875 
Q 18.109375 17.390625 22.1875 11.75 
Q 26.265625 6.109375 33.40625 6.109375 
Q 40.53125 6.109375 44.609375 11.75 
Q 48.6875 17.390625 48.6875 27.296875 
z
M 18.109375 46.390625 
Q 20.953125 51.265625 25.265625 53.625 
Q 29.59375 56 35.59375 56 
Q 45.5625 56 51.78125 48.09375 
Q 58.015625 40.1875 58.015625 27.296875 
Q 58.015625 14.40625 51.78125 6.484375 
Q 45.5625 -1.421875 35.59375 -1.421875 
Q 29.59375 -1.421875 25.265625 0.953125 
Q 20.953125 3.328125 18.109375 8.203125 
L 18.109375 0 
L 9.078125 0 
L 9.078125 75.984375 
L 18.109375 75.984375 
z
" id="DejaVuSans-98"/>
      <path d="M 56.203125 29.59375 
L 56.203125 25.203125 
L 14.890625 25.203125 
Q 15.484375 15.921875 20.484375 11.0625 
Q 25.484375 6.203125 34.421875 6.203125 
Q 39.59375 6.203125 44.453125 7.46875 
Q 49.3125 8.734375 54.109375 11.28125 
L 54.109375 2.78125 
Q 49.265625 0.734375 44.1875 -0.34375 
Q 39.109375 -1.421875 33.890625 -1.421875 
Q 20.796875 -1.421875 13.15625 6.1875 
Q 5.515625 13.8125 5.515625 26.8125 
Q 5.515625 40.234375 12.765625 48.109375 
Q 20.015625 56 32.328125 56 
Q 43.359375 56 49.78125 48.890625 
Q 56.203125 41.796875 56.203125 29.59375 
z
M 47.21875 32.234375 
Q 47.125 39.59375 43.09375 43.984375 
Q 39.0625 48.390625 32.421875 48.390625 
Q 24.90625 48.390625 20.390625 44.140625 
Q 15.875 39.890625 15.1875 32.171875 
z
" id="DejaVuSans-101"/>
      <path d="M 41.109375 46.296875 
Q 39.59375 47.171875 37.8125 47.578125 
Q 36.03125 48 33.890625 48 
Q 26.265625 48 22.1875 43.046875 
Q 18.109375 38.09375 18.109375 28.8125 
L 18.109375 0 
L 9.078125 0 
L 9.078125 54.6875 
L 18.109375 54.6875 
L 18.109375 46.1875 
Q 20.953125 51.171875 25.484375 53.578125 
Q 30.03125 56 36.53125 56 
Q 37.453125 56 38.578125 55.875 
Q 39.703125 55.765625 41.0625 55.515625 
z
" id="DejaVuSans-114"/>
      <path id="DejaVuSans-32"/>
      <path d="M 30.609375 48.390625 
Q 23.390625 48.390625 19.1875 42.75 
Q 14.984375 37.109375 14.984375 27.296875 
Q 14.984375 17.484375 19.15625 11.84375 
Q 23.34375 6.203125 30.609375 6.203125 
Q 37.796875 6.203125 41.984375 11.859375 
Q 46.1875 17.53125 46.1875 27.296875 
Q 46.1875 37.015625 41.984375 42.703125 
Q 37.796875 48.390625 30.609375 48.390625 
z
M 30.609375 56 
Q 42.328125 56 49.015625 48.375 
Q 55.71875 40.765625 55.71875 27.296875 
Q 55.71875 13.875 49.015625 6.21875 
Q 42.328125 -1.421875 30.609375 -1.421875 
Q 18.84375 -1.421875 12.171875 6.21875 
Q 5.515625 13.875 5.515625 27.296875 
Q 5.515625 40.765625 12.171875 48.375 
Q 18.84375 56 30.609375 56 
z
" id="DejaVuSans-111"/>
      <path d="M 37.109375 75.984375 
L 37.109375 68.5 
L 28.515625 68.5 
Q 23.6875 68.5 21.796875 66.546875 
Q 19.921875 64.59375 19.921875 59.515625 
L 19.921875 54.6875 
L 34.71875 54.6875 
L 34.71875 47.703125 
L 19.921875 47.703125 
L 19.921875 0 
L 10.890625 0 
L 10.890625 47.703125 
L 2.296875 47.703125 
L 2.296875 54.6875 
L 10.890625 54.6875 
L 10.890625 58.5 
Q 10.890625 67.625 15.140625 71.796875 
Q 19.390625 75.984375 28.609375 75.984375 
z
" id="DejaVuSans-102"/>
      <path d="M 48.78125 52.59375 
L 48.78125 44.1875 
Q 44.96875 46.296875 41.140625 47.34375 
Q 37.3125 48.390625 33.40625 48.390625 
Q 24.65625 48.390625 19.8125 42.84375 
Q 14.984375 37.3125 14.984375 27.296875 
Q 14.984375 17.28125 19.8125 11.734375 
Q 24.65625 6.203125 33.40625 6.203125 
Q 37.3125 6.203125 41.140625 7.25 
Q 44.96875 8.296875 48.78125 10.40625 
L 48.78125 2.09375 
Q 45.015625 0.34375 40.984375 -0.53125 
Q 36.96875 -1.421875 32.421875 -1.421875 
Q 20.0625 -1.421875 12.78125 6.34375 
Q 5.515625 14.109375 5.515625 27.296875 
Q 5.515625 40.671875 12.859375 48.328125 
Q 20.21875 56 33.015625 56 
Q 37.15625 56 41.109375 55.140625 
Q 45.0625 54.296875 48.78125 52.59375 
z
" id="DejaVuSans-99"/>
      <path d="M 44.28125 53.078125 
L 44.28125 44.578125 
Q 40.484375 46.53125 36.375 47.5 
Q 32.28125 48.484375 27.875 48.484375 
Q 21.1875 48.484375 17.84375 46.4375 
Q 14.5 44.390625 14.5 40.28125 
Q 14.5 37.15625 16.890625 35.375 
Q 19.28125 33.59375 26.515625 31.984375 
L 29.59375 31.296875 
Q 39.15625 29.25 43.1875 25.515625 
Q 47.21875 21.78125 47.21875 15.09375 
Q 47.21875 7.46875 41.1875 3.015625 
Q 35.15625 -1.421875 24.609375 -1.421875 
Q 20.21875 -1.421875 15.453125 -0.5625 
Q 10.6875 0.296875 5.421875 2 
L 5.421875 11.28125 
Q 10.40625 8.6875 15.234375 7.390625 
Q 20.0625 6.109375 24.8125 6.109375 
Q 31.15625 6.109375 34.5625 8.28125 
Q 37.984375 10.453125 37.984375 14.40625 
Q 37.984375 18.0625 35.515625 20.015625 
Q 33.0625 21.96875 24.703125 23.78125 
L 21.578125 24.515625 
Q 13.234375 26.265625 9.515625 29.90625 
Q 5.8125 33.546875 5.8125 39.890625 
Q 5.8125 47.609375 11.28125 51.796875 
Q 16.75 56 26.8125 56 
Q 31.78125 56 36.171875 55.265625 
Q 40.578125 54.546875 44.28125 53.078125 
z
" id="DejaVuSans-115"/>
     </defs>
     <g transform="translate(102.483594 244.276563)scale(0.1 -0.1)">
      <use xlink:href="#DejaVuSans-78"/>
      <use x="74.804688" xlink:href="#DejaVuSans-117"/>
      <use x="138.183594" xlink:href="#DejaVuSans-109"/>
      <use x="235.595703" xlink:href="#DejaVuSans-98"/>
      <use x="299.072266" xlink:href="#DejaVuSans-101"/>
      <use x="360.595703" xlink:href="#DejaVuSans-114"/>
      <use x="401.708984" xlink:href="#DejaVuSans-32"/>
      <use x="433.496094" xlink:href="#DejaVuSans-111"/>
      <use x="494.677734" xlink:href="#DejaVuSans-102"/>
      <use x="529.882812" xlink:href="#DejaVuSans-32"/>
      <use x="561.669922" xlink:href="#DejaVuSans-99"/>
      <use x="616.650391" xlink:href="#DejaVuSans-111"/>
      <use x="677.832031" xlink:href="#DejaVuSans-114"/>
      <use x="716.695312" xlink:href="#DejaVuSans-101"/>
      <use x="778.21875" xlink:href="#DejaVuSans-115"/>
     </g>
    </g>
   </g>
   <g id="matplotlib.axis_2">
    <g id="ytick_1">
     <g id="line2d_15">
      <path clip-path="url(#pc1f902b885)" d="M 0 211.704561 
L 288 211.704561 
" style="fill:none;stroke:#b0b0b0;stroke-linecap:square;stroke-width:0.8;"/>
     </g>
     <g id="line2d_16">
      <defs>
       <path d="M 0 0 
L -3.5 0 
" id="mc8d1259c42" style="stroke:#000000;stroke-width:0.8;"/>
      </defs>
      <g>
       <use style="stroke:#000000;stroke-width:0.8;" x="0" xlink:href="#mc8d1259c42" y="211.704561"/>
      </g>
     </g>
     <g id="text_9">
      <!-- 0 -->
      <g transform="translate(-13.3625 215.50378)scale(0.1 -0.1)">
       <use xlink:href="#DejaVuSans-48"/>
      </g>
     </g>
    </g>
    <g id="ytick_2">
     <g id="line2d_17">
      <path clip-path="url(#pc1f902b885)" d="M 0 171.327285 
L 288 171.327285 
" style="fill:none;stroke:#b0b0b0;stroke-linecap:square;stroke-width:0.8;"/>
     </g>
     <g id="line2d_18">
      <g>
       <use style="stroke:#000000;stroke-width:0.8;" x="0" xlink:href="#mc8d1259c42" y="171.327285"/>
      </g>
     </g>
     <g id="text_10">
      <!-- 20 -->
      <g transform="translate(-19.725 175.126504)scale(0.1 -0.1)">
       <use xlink:href="#DejaVuSans-50"/>
       <use x="63.623047" xlink:href="#DejaVuSans-48"/>
      </g>
     </g>
    </g>
    <g id="ytick_3">
     <g id="line2d_19">
      <path clip-path="url(#pc1f902b885)" d="M 0 130.950009 
L 288 130.950009 
" style="fill:none;stroke:#b0b0b0;stroke-linecap:square;stroke-width:0.8;"/>
     </g>
     <g id="line2d_20">
      <g>
       <use style="stroke:#000000;stroke-width:0.8;" x="0" xlink:href="#mc8d1259c42" y="130.950009"/>
      </g>
     </g>
     <g id="text_11">
      <!-- 40 -->
      <defs>
       <path d="M 37.796875 64.3125 
L 12.890625 25.390625 
L 37.796875 25.390625 
z
M 35.203125 72.90625 
L 47.609375 72.90625 
L 47.609375 25.390625 
L 58.015625 25.390625 
L 58.015625 17.1875 
L 47.609375 17.1875 
L 47.609375 0 
L 37.796875 0 
L 37.796875 17.1875 
L 4.890625 17.1875 
L 4.890625 26.703125 
z
" id="DejaVuSans-52"/>
      </defs>
      <g transform="translate(-19.725 134.749228)scale(0.1 -0.1)">
       <use xlink:href="#DejaVuSans-52"/>
       <use x="63.623047" xlink:href="#DejaVuSans-48"/>
      </g>
     </g>
    </g>
    <g id="ytick_4">
     <g id="line2d_21">
      <path clip-path="url(#pc1f902b885)" d="M 0 90.572733 
L 288 90.572733 
" style="fill:none;stroke:#b0b0b0;stroke-linecap:square;stroke-width:0.8;"/>
     </g>
     <g id="line2d_22">
      <g>
       <use style="stroke:#000000;stroke-width:0.8;" x="0" xlink:href="#mc8d1259c42" y="90.572733"/>
      </g>
     </g>
     <g id="text_12">
      <!-- 60 -->
      <defs>
       <path d="M 33.015625 40.375 
Q 26.375 40.375 22.484375 35.828125 
Q 18.609375 31.296875 18.609375 23.390625 
Q 18.609375 15.53125 22.484375 10.953125 
Q 26.375 6.390625 33.015625 6.390625 
Q 39.65625 6.390625 43.53125 10.953125 
Q 47.40625 15.53125 47.40625 23.390625 
Q 47.40625 31.296875 43.53125 35.828125 
Q 39.65625 40.375 33.015625 40.375 
z
M 52.59375 71.296875 
L 52.59375 62.3125 
Q 48.875 64.0625 45.09375 64.984375 
Q 41.3125 65.921875 37.59375 65.921875 
Q 27.828125 65.921875 22.671875 59.328125 
Q 17.53125 52.734375 16.796875 39.40625 
Q 19.671875 43.65625 24.015625 45.921875 
Q 28.375 48.1875 33.59375 48.1875 
Q 44.578125 48.1875 50.953125 41.515625 
Q 57.328125 34.859375 57.328125 23.390625 
Q 57.328125 12.15625 50.6875 5.359375 
Q 44.046875 -1.421875 33.015625 -1.421875 
Q 20.359375 -1.421875 13.671875 8.265625 
Q 6.984375 17.96875 6.984375 36.375 
Q 6.984375 53.65625 15.1875 63.9375 
Q 23.390625 74.21875 37.203125 74.21875 
Q 40.921875 74.21875 44.703125 73.484375 
Q 48.484375 72.75 52.59375 71.296875 
z
" id="DejaVuSans-54"/>
      </defs>
      <g transform="translate(-19.725 94.371952)scale(0.1 -0.1)">
       <use xlink:href="#DejaVuSans-54"/>
       <use x="63.623047" xlink:href="#DejaVuSans-48"/>
      </g>
     </g>
    </g>
    <g id="ytick_5">
     <g id="line2d_23">
      <path clip-path="url(#pc1f902b885)" d="M 0 50.195458 
L 288 50.195458 
" style="fill:none;stroke:#b0b0b0;stroke-linecap:square;stroke-width:0.8;"/>
     </g>
     <g id="line2d_24">
      <g>
       <use style="stroke:#000000;stroke-width:0.8;" x="0" xlink:href="#mc8d1259c42" y="50.195458"/>
      </g>
     </g>
     <g id="text_13">
      <!-- 80 -->
      <defs>
       <path d="M 31.78125 34.625 
Q 24.75 34.625 20.71875 30.859375 
Q 16.703125 27.09375 16.703125 20.515625 
Q 16.703125 13.921875 20.71875 10.15625 
Q 24.75 6.390625 31.78125 6.390625 
Q 38.8125 6.390625 42.859375 10.171875 
Q 46.921875 13.96875 46.921875 20.515625 
Q 46.921875 27.09375 42.890625 30.859375 
Q 38.875 34.625 31.78125 34.625 
z
M 21.921875 38.8125 
Q 15.578125 40.375 12.03125 44.71875 
Q 8.5 49.078125 8.5 55.328125 
Q 8.5 64.0625 14.71875 69.140625 
Q 20.953125 74.21875 31.78125 74.21875 
Q 42.671875 74.21875 48.875 69.140625 
Q 55.078125 64.0625 55.078125 55.328125 
Q 55.078125 49.078125 51.53125 44.71875 
Q 48 40.375 41.703125 38.8125 
Q 48.828125 37.15625 52.796875 32.3125 
Q 56.78125 27.484375 56.78125 20.515625 
Q 56.78125 9.90625 50.3125 4.234375 
Q 43.84375 -1.421875 31.78125 -1.421875 
Q 19.734375 -1.421875 13.25 4.234375 
Q 6.78125 9.90625 6.78125 20.515625 
Q 6.78125 27.484375 10.78125 32.3125 
Q 14.796875 37.15625 21.921875 38.8125 
z
M 18.3125 54.390625 
Q 18.3125 48.734375 21.84375 45.5625 
Q 25.390625 42.390625 31.78125 42.390625 
Q 38.140625 42.390625 41.71875 45.5625 
Q 45.3125 48.734375 45.3125 54.390625 
Q 45.3125 60.0625 41.71875 63.234375 
Q 38.140625 66.40625 31.78125 66.40625 
Q 25.390625 66.40625 21.84375 63.234375 
Q 18.3125 60.0625 18.3125 54.390625 
z
" id="DejaVuSans-56"/>
      </defs>
      <g transform="translate(-19.725 53.994676)scale(0.1 -0.1)">
       <use xlink:href="#DejaVuSans-56"/>
       <use x="63.623047" xlink:href="#DejaVuSans-48"/>
      </g>
     </g>
    </g>
    <g id="ytick_6">
     <g id="line2d_25">
      <path clip-path="url(#pc1f902b885)" d="M 0 9.818182 
L 288 9.818182 
" style="fill:none;stroke:#b0b0b0;stroke-linecap:square;stroke-width:0.8;"/>
     </g>
     <g id="line2d_26">
      <g>
       <use style="stroke:#000000;stroke-width:0.8;" x="0" xlink:href="#mc8d1259c42" y="9.818182"/>
      </g>
     </g>
     <g id="text_14">
      <!-- 100 -->
      <g transform="translate(-26.0875 13.617401)scale(0.1 -0.1)">
       <use xlink:href="#DejaVuSans-49"/>
       <use x="63.623047" xlink:href="#DejaVuSans-48"/>
       <use x="127.246094" xlink:href="#DejaVuSans-48"/>
      </g>
     </g>
    </g>
    <g id="text_15">
     <!-- Efficiency [%] -->
     <defs>
      <path d="M 9.8125 72.90625 
L 55.90625 72.90625 
L 55.90625 64.59375 
L 19.671875 64.59375 
L 19.671875 43.015625 
L 54.390625 43.015625 
L 54.390625 34.71875 
L 19.671875 34.71875 
L 19.671875 8.296875 
L 56.78125 8.296875 
L 56.78125 0 
L 9.8125 0 
z
" id="DejaVuSans-69"/>
      <path d="M 9.421875 54.6875 
L 18.40625 54.6875 
L 18.40625 0 
L 9.421875 0 
z
M 9.421875 75.984375 
L 18.40625 75.984375 
L 18.40625 64.59375 
L 9.421875 64.59375 
z
" id="DejaVuSans-105"/>
      <path d="M 54.890625 33.015625 
L 54.890625 0 
L 45.90625 0 
L 45.90625 32.71875 
Q 45.90625 40.484375 42.875 44.328125 
Q 39.84375 48.1875 33.796875 48.1875 
Q 26.515625 48.1875 22.3125 43.546875 
Q 18.109375 38.921875 18.109375 30.90625 
L 18.109375 0 
L 9.078125 0 
L 9.078125 54.6875 
L 18.109375 54.6875 
L 18.109375 46.1875 
Q 21.34375 51.125 25.703125 53.5625 
Q 30.078125 56 35.796875 56 
Q 45.21875 56 50.046875 50.171875 
Q 54.890625 44.34375 54.890625 33.015625 
z
" id="DejaVuSans-110"/>
      <path d="M 32.171875 -5.078125 
Q 28.375 -14.84375 24.75 -17.8125 
Q 21.140625 -20.796875 15.09375 -20.796875 
L 7.90625 -20.796875 
L 7.90625 -13.28125 
L 13.1875 -13.28125 
Q 16.890625 -13.28125 18.9375 -11.515625 
Q 21 -9.765625 23.484375 -3.21875 
L 25.09375 0.875 
L 2.984375 54.6875 
L 12.5 54.6875 
L 29.59375 11.921875 
L 46.6875 54.6875 
L 56.203125 54.6875 
z
" id="DejaVuSans-121"/>
      <path d="M 8.59375 75.984375 
L 29.296875 75.984375 
L 29.296875 69 
L 17.578125 69 
L 17.578125 -6.203125 
L 29.296875 -6.203125 
L 29.296875 -13.1875 
L 8.59375 -13.1875 
z
" id="DejaVuSans-91"/>
      <path d="M 72.703125 32.078125 
Q 68.453125 32.078125 66.03125 28.46875 
Q 63.625 24.859375 63.625 18.40625 
Q 63.625 12.0625 66.03125 8.421875 
Q 68.453125 4.78125 72.703125 4.78125 
Q 76.859375 4.78125 79.265625 8.421875 
Q 81.6875 12.0625 81.6875 18.40625 
Q 81.6875 24.8125 79.265625 28.4375 
Q 76.859375 32.078125 72.703125 32.078125 
z
M 72.703125 38.28125 
Q 80.421875 38.28125 84.953125 32.90625 
Q 89.5 27.546875 89.5 18.40625 
Q 89.5 9.28125 84.9375 3.921875 
Q 80.375 -1.421875 72.703125 -1.421875 
Q 64.890625 -1.421875 60.34375 3.921875 
Q 55.8125 9.28125 55.8125 18.40625 
Q 55.8125 27.59375 60.375 32.9375 
Q 64.9375 38.28125 72.703125 38.28125 
z
M 22.3125 68.015625 
Q 18.109375 68.015625 15.6875 64.375 
Q 13.28125 60.75 13.28125 54.390625 
Q 13.28125 47.953125 15.671875 44.328125 
Q 18.0625 40.71875 22.3125 40.71875 
Q 26.5625 40.71875 28.96875 44.328125 
Q 31.390625 47.953125 31.390625 54.390625 
Q 31.390625 60.6875 28.953125 64.34375 
Q 26.515625 68.015625 22.3125 68.015625 
z
M 66.40625 74.21875 
L 74.21875 74.21875 
L 28.609375 -1.421875 
L 20.796875 -1.421875 
z
M 22.3125 74.21875 
Q 30.03125 74.21875 34.609375 68.875 
Q 39.203125 63.53125 39.203125 54.390625 
Q 39.203125 45.171875 34.640625 39.84375 
Q 30.078125 34.515625 22.3125 34.515625 
Q 14.546875 34.515625 10.03125 39.859375 
Q 5.515625 45.21875 5.515625 54.390625 
Q 5.515625 63.484375 10.046875 68.84375 
Q 14.59375 74.21875 22.3125 74.21875 
z
" id="DejaVuSans-37"/>
      <path d="M 30.421875 75.984375 
L 30.421875 -13.1875 
L 9.71875 -13.1875 
L 9.71875 -6.203125 
L 21.390625 -6.203125 
L 21.390625 69 
L 9.71875 69 
L 9.71875 75.984375 
z
" id="DejaVuSans-93"/>
     </defs>
     <g transform="translate(-32.167188 142.402344)rotate(-90)scale(0.1 -0.1)">
      <use xlink:href="#DejaVuSans-69"/>
      <use x="63.183594" xlink:href="#DejaVuSans-102"/>
      <use x="98.388672" xlink:href="#DejaVuSans-102"/>
      <use x="133.59375" xlink:href="#DejaVuSans-105"/>
      <use x="161.376953" xlink:href="#DejaVuSans-99"/>
      <use x="216.357422" xlink:href="#DejaVuSans-105"/>
      <use x="244.140625" xlink:href="#DejaVuSans-101"/>
      <use x="305.664062" xlink:href="#DejaVuSans-110"/>
      <use x="369.042969" xlink:href="#DejaVuSans-99"/>
      <use x="424.023438" xlink:href="#DejaVuSans-121"/>
      <use x="483.203125" xlink:href="#DejaVuSans-32"/>
      <use x="514.990234" xlink:href="#DejaVuSans-91"/>
      <use x="554.003906" xlink:href="#DejaVuSans-37"/>
      <use x="649.023438" xlink:href="#DejaVuSans-93"/>
     </g>
    </g>
   </g>
   <g id="line2d_27">
    <path clip-path="url(#pc1f902b885)" d="M 13.090909 9.818182 
L 28.599303 201.79384 
L 45.019956 201.875438 
L 77.861261 202.178316 
L 143.543871 202.694355 
L 274.909091 203.471448 
" style="fill:none;stroke:#1f77b4;stroke-linecap:square;stroke-width:1.5;"/>
    <defs>
     <path d="M 0 3 
C 0.795609 3 1.55874 2.683901 2.12132 2.12132 
C 2.683901 1.55874 3 0.795609 3 0 
C 3 -0.795609 2.683901 -1.55874 2.12132 -2.12132 
C 1.55874 -2.683901 0.795609 -3 0 -3 
C -0.795609 -3 -1.55874 -2.683901 -2.12132 -2.12132 
C -2.683901 -1.55874 -3 -0.795609 -3 0 
C -3 0.795609 -2.683901 1.55874 -2.12132 2.12132 
C -1.55874 2.683901 -0.795609 3 0 3 
z
" id="m9bf5ecd99a" style="stroke:#1f77b4;"/>
    </defs>
    <g clip-path="url(#pc1f902b885)">
     <use style="fill:#1f77b4;stroke:#1f77b4;" x="13.090909" xlink:href="#m9bf5ecd99a" y="9.818182"/>
     <use style="fill:#1f77b4;stroke:#1f77b4;" x="28.599303" xlink:href="#m9bf5ecd99a" y="201.79384"/>
     <use style="fill:#1f77b4;stroke:#1f77b4;" x="45.019956" xlink:href="#m9bf5ecd99a" y="201.875438"/>
     <use style="fill:#1f77b4;stroke:#1f77b4;" x="77.861261" xlink:href="#m9bf5ecd99a" y="202.178316"/>
     <use style="fill:#1f77b4;stroke:#1f77b4;" x="143.543871" xlink:href="#m9bf5ecd99a" y="202.694355"/>
     <use style="fill:#1f77b4;stroke:#1f77b4;" x="274.909091" xlink:href="#m9bf5ecd99a" y="203.471448"/>
    </g>
   </g>
   <g id="line2d_28">
    <path clip-path="url(#pc1f902b885)" d="M 13.090909 9.818182 
L 28.599303 201.512069 
L 45.019956 201.747994 
L 77.861261 202.313904 
L 143.543871 203.329634 
L 274.909091 204.87396 
" style="fill:none;stroke:#ff7f0e;stroke-linecap:square;stroke-width:1.5;"/>
    <defs>
     <path d="M 0 3 
C 0.795609 3 1.55874 2.683901 2.12132 2.12132 
C 2.683901 1.55874 3 0.795609 3 0 
C 3 -0.795609 2.683901 -1.55874 2.12132 -2.12132 
C 1.55874 -2.683901 0.795609 -3 0 -3 
C -0.795609 -3 -1.55874 -2.683901 -2.12132 -2.12132 
C -2.683901 -1.55874 -3 -0.795609 -3 0 
C -3 0.795609 -2.683901 1.55874 -2.12132 2.12132 
C -1.55874 2.683901 -0.795609 3 0 3 
z
" id="mf94fed1245" style="stroke:#ff7f0e;"/>
    </defs>
    <g clip-path="url(#pc1f902b885)">
     <use style="fill:#ff7f0e;stroke:#ff7f0e;" x="13.090909" xlink:href="#mf94fed1245" y="9.818182"/>
     <use style="fill:#ff7f0e;stroke:#ff7f0e;" x="28.599303" xlink:href="#mf94fed1245" y="201.512069"/>
     <use style="fill:#ff7f0e;stroke:#ff7f0e;" x="45.019956" xlink:href="#mf94fed1245" y="201.747994"/>
     <use style="fill:#ff7f0e;stroke:#ff7f0e;" x="77.861261" xlink:href="#mf94fed1245" y="202.313904"/>
     <use style="fill:#ff7f0e;stroke:#ff7f0e;" x="143.543871" xlink:href="#mf94fed1245" y="203.329634"/>
     <use style="fill:#ff7f0e;stroke:#ff7f0e;" x="274.909091" xlink:href="#mf94fed1245" y="204.87396"/>
    </g>
   </g>
   <g id="line2d_29">
    <path clip-path="url(#pc1f902b885)" d="M 13.090909 9.818182 
L 28.599303 201.903608 
L 45.019956 202.216629 
L 77.861261 202.9907 
L 143.543871 204.273811 
L 274.909091 206.181818 
" style="fill:none;stroke:#2ca02c;stroke-linecap:square;stroke-width:1.5;"/>
    <defs>
     <path d="M 0 3 
C 0.795609 3 1.55874 2.683901 2.12132 2.12132 
C 2.683901 1.55874 3 0.795609 3 0 
C 3 -0.795609 2.683901 -1.55874 2.12132 -2.12132 
C 1.55874 -2.683901 0.795609 -3 0 -3 
C -0.795609 -3 -1.55874 -2.683901 -2.12132 -2.12132 
C -2.683901 -1.55874 -3 -0.795609 -3 0 
C -3 0.795609 -2.683901 1.55874 -2.12132 2.12132 
C -1.55874 2.683901 -0.795609 3 0 3 
z
" id="mc27bfbe5c3" style="stroke:#2ca02c;"/>
    </defs>
    <g clip-path="url(#pc1f902b885)">
     <use style="fill:#2ca02c;stroke:#2ca02c;" x="13.090909" xlink:href="#mc27bfbe5c3" y="9.818182"/>
     <use style="fill:#2ca02c;stroke:#2ca02c;" x="28.599303" xlink:href="#mc27bfbe5c3" y="201.903608"/>
     <use style="fill:#2ca02c;stroke:#2ca02c;" x="45.019956" xlink:href="#mc27bfbe5c3" y="202.216629"/>
     <use style="fill:#2ca02c;stroke:#2ca02c;" x="77.861261" xlink:href="#mc27bfbe5c3" y="202.9907"/>
     <use style="fill:#2ca02c;stroke:#2ca02c;" x="143.543871" xlink:href="#mc27bfbe5c3" y="204.273811"/>
     <use style="fill:#2ca02c;stroke:#2ca02c;" x="274.909091" xlink:href="#mc27bfbe5c3" y="206.181818"/>
    </g>
   </g>
   <g id="line2d_30">
    <path clip-path="url(#pc1f902b885)" d="M 13.090909 9.818182 
L 28.599303 201.705885 
L 45.019956 201.719666 
L 77.861261 201.795832 
L 143.543871 202.003112 
L 274.909091 202.317846 
" style="fill:none;stroke:#d62728;stroke-linecap:square;stroke-width:1.5;"/>
    <defs>
     <path d="M -0 3 
L 3 -3 
L -3 -3 
z
" id="m437ab341ad" style="stroke:#d62728;stroke-linejoin:miter;"/>
    </defs>
    <g clip-path="url(#pc1f902b885)">
     <use style="fill:#d62728;stroke:#d62728;stroke-linejoin:miter;" x="13.090909" xlink:href="#m437ab341ad" y="9.818182"/>
     <use style="fill:#d62728;stroke:#d62728;stroke-linejoin:miter;" x="28.599303" xlink:href="#m437ab341ad" y="201.705885"/>
     <use style="fill:#d62728;stroke:#d62728;stroke-linejoin:miter;" x="45.019956" xlink:href="#m437ab341ad" y="201.719666"/>
     <use style="fill:#d62728;stroke:#d62728;stroke-linejoin:miter;" x="77.861261" xlink:href="#m437ab341ad" y="201.795832"/>
     <use style="fill:#d62728;stroke:#d62728;stroke-linejoin:miter;" x="143.543871" xlink:href="#m437ab341ad" y="202.003112"/>
     <use style="fill:#d62728;stroke:#d62728;stroke-linejoin:miter;" x="274.909091" xlink:href="#m437ab341ad" y="202.317846"/>
    </g>
   </g>
   <g id="line2d_31">
    <path clip-path="url(#pc1f902b885)" d="M 13.090909 9.818182 
L 28.599303 201.426546 
L 45.019956 201.545674 
L 77.861261 201.820754 
L 143.543871 202.323264 
L 274.909091 203.405374 
" style="fill:none;stroke:#9467bd;stroke-linecap:square;stroke-width:1.5;"/>
    <defs>
     <path d="M -0 3 
L 3 -3 
L -3 -3 
z
" id="m9f4e127bcd" style="stroke:#9467bd;stroke-linejoin:miter;"/>
    </defs>
    <g clip-path="url(#pc1f902b885)">
     <use style="fill:#9467bd;stroke:#9467bd;stroke-linejoin:miter;" x="13.090909" xlink:href="#m9f4e127bcd" y="9.818182"/>
     <use style="fill:#9467bd;stroke:#9467bd;stroke-linejoin:miter;" x="28.599303" xlink:href="#m9f4e127bcd" y="201.426546"/>
     <use style="fill:#9467bd;stroke:#9467bd;stroke-linejoin:miter;" x="45.019956" xlink:href="#m9f4e127bcd" y="201.545674"/>
     <use style="fill:#9467bd;stroke:#9467bd;stroke-linejoin:miter;" x="77.861261" xlink:href="#m9f4e127bcd" y="201.820754"/>
     <use style="fill:#9467bd;stroke:#9467bd;stroke-linejoin:miter;" x="143.543871" xlink:href="#m9f4e127bcd" y="202.323264"/>
     <use style="fill:#9467bd;stroke:#9467bd;stroke-linejoin:miter;" x="274.909091" xlink:href="#m9f4e127bcd" y="203.405374"/>
    </g>
   </g>
   <g id="line2d_32">
    <path clip-path="url(#pc1f902b885)" d="M 13.090909 9.818182 
L 28.599303 201.540981 
L 45.019956 201.754093 
L 77.861261 202.148614 
L 143.543871 202.900471 
L 274.909091 204.264036 
" style="fill:none;stroke:#8c564b;stroke-linecap:square;stroke-width:1.5;"/>
    <defs>
     <path d="M -0 3 
L 3 -3 
L -3 -3 
z
" id="m1a95ee0c5b" style="stroke:#8c564b;stroke-linejoin:miter;"/>
    </defs>
    <g clip-path="url(#pc1f902b885)">
     <use style="fill:#8c564b;stroke:#8c564b;stroke-linejoin:miter;" x="13.090909" xlink:href="#m1a95ee0c5b" y="9.818182"/>
     <use style="fill:#8c564b;stroke:#8c564b;stroke-linejoin:miter;" x="28.599303" xlink:href="#m1a95ee0c5b" y="201.540981"/>
     <use style="fill:#8c564b;stroke:#8c564b;stroke-linejoin:miter;" x="45.019956" xlink:href="#m1a95ee0c5b" y="201.754093"/>
     <use style="fill:#8c564b;stroke:#8c564b;stroke-linejoin:miter;" x="77.861261" xlink:href="#m1a95ee0c5b" y="202.148614"/>
     <use style="fill:#8c564b;stroke:#8c564b;stroke-linejoin:miter;" x="143.543871" xlink:href="#m1a95ee0c5b" y="202.900471"/>
     <use style="fill:#8c564b;stroke:#8c564b;stroke-linejoin:miter;" x="274.909091" xlink:href="#m1a95ee0c5b" y="204.264036"/>
    </g>
   </g>
   <g id="line2d_33">
    <path clip-path="url(#pc1f902b885)" d="M 13.090909 9.818182 
L 28.599303 199.510415 
L 45.019956 199.5096 
L 77.861261 199.608225 
L 143.543871 199.542226 
L 274.909091 200.022648 
" style="fill:none;stroke:#e377c2;stroke-linecap:square;stroke-width:1.5;"/>
    <defs>
     <path d="M -3 3 
L 3 3 
L 3 -3 
L -3 -3 
z
" id="me5729825af" style="stroke:#e377c2;stroke-linejoin:miter;"/>
    </defs>
    <g clip-path="url(#pc1f902b885)">
     <use style="fill:#e377c2;stroke:#e377c2;stroke-linejoin:miter;" x="13.090909" xlink:href="#me5729825af" y="9.818182"/>
     <use style="fill:#e377c2;stroke:#e377c2;stroke-linejoin:miter;" x="28.599303" xlink:href="#me5729825af" y="199.510415"/>
     <use style="fill:#e377c2;stroke:#e377c2;stroke-linejoin:miter;" x="45.019956" xlink:href="#me5729825af" y="199.5096"/>
     <use style="fill:#e377c2;stroke:#e377c2;stroke-linejoin:miter;" x="77.861261" xlink:href="#me5729825af" y="199.608225"/>
     <use style="fill:#e377c2;stroke:#e377c2;stroke-linejoin:miter;" x="143.543871" xlink:href="#me5729825af" y="199.542226"/>
     <use style="fill:#e377c2;stroke:#e377c2;stroke-linejoin:miter;" x="274.909091" xlink:href="#me5729825af" y="200.022648"/>
    </g>
   </g>
   <g id="line2d_34">
    <path clip-path="url(#pc1f902b885)" d="M 13.090909 9.818182 
L 28.599303 199.724439 
L 45.019956 199.428176 
L 77.861261 199.744753 
L 143.543871 200.069835 
L 274.909091 201.295228 
" style="fill:none;stroke:#7f7f7f;stroke-linecap:square;stroke-width:1.5;"/>
    <defs>
     <path d="M -3 3 
L 3 3 
L 3 -3 
L -3 -3 
z
" id="m00b8ee58eb" style="stroke:#7f7f7f;stroke-linejoin:miter;"/>
    </defs>
    <g clip-path="url(#pc1f902b885)">
     <use style="fill:#7f7f7f;stroke:#7f7f7f;stroke-linejoin:miter;" x="13.090909" xlink:href="#m00b8ee58eb" y="9.818182"/>
     <use style="fill:#7f7f7f;stroke:#7f7f7f;stroke-linejoin:miter;" x="28.599303" xlink:href="#m00b8ee58eb" y="199.724439"/>
     <use style="fill:#7f7f7f;stroke:#7f7f7f;stroke-linejoin:miter;" x="45.019956" xlink:href="#m00b8ee58eb" y="199.428176"/>
     <use style="fill:#7f7f7f;stroke:#7f7f7f;stroke-linejoin:miter;" x="77.861261" xlink:href="#m00b8ee58eb" y="199.744753"/>
     <use style="fill:#7f7f7f;stroke:#7f7f7f;stroke-linejoin:miter;" x="143.543871" xlink:href="#m00b8ee58eb" y="200.069835"/>
     <use style="fill:#7f7f7f;stroke:#7f7f7f;stroke-linejoin:miter;" x="274.909091" xlink:href="#m00b8ee58eb" y="201.295228"/>
    </g>
   </g>
   <g id="line2d_35">
    <path clip-path="url(#pc1f902b885)" d="M 13.090909 9.818182 
L 28.599303 199.31412 
L 45.019956 199.509151 
L 77.861261 199.858534 
L 143.543871 200.408148 
L 274.909091 201.715944 
" style="fill:none;stroke:#bcbd22;stroke-linecap:square;stroke-width:1.5;"/>
    <defs>
     <path d="M -3 3 
L 3 3 
L 3 -3 
L -3 -3 
z
" id="m34da082e54" style="stroke:#bcbd22;stroke-linejoin:miter;"/>
    </defs>
    <g clip-path="url(#pc1f902b885)">
     <use style="fill:#bcbd22;stroke:#bcbd22;stroke-linejoin:miter;" x="13.090909" xlink:href="#m34da082e54" y="9.818182"/>
     <use style="fill:#bcbd22;stroke:#bcbd22;stroke-linejoin:miter;" x="28.599303" xlink:href="#m34da082e54" y="199.31412"/>
     <use style="fill:#bcbd22;stroke:#bcbd22;stroke-linejoin:miter;" x="45.019956" xlink:href="#m34da082e54" y="199.509151"/>
     <use style="fill:#bcbd22;stroke:#bcbd22;stroke-linejoin:miter;" x="77.861261" xlink:href="#m34da082e54" y="199.858534"/>
     <use style="fill:#bcbd22;stroke:#bcbd22;stroke-linejoin:miter;" x="143.543871" xlink:href="#m34da082e54" y="200.408148"/>
     <use style="fill:#bcbd22;stroke:#bcbd22;stroke-linejoin:miter;" x="274.909091" xlink:href="#m34da082e54" y="201.715944"/>
    </g>
   </g>
   <g id="line2d_36">
    <path clip-path="url(#pc1f902b885)" d="M 13.090909 9.818182 
L 28.599303 199.300116 
L 45.019956 199.317873 
L 77.861261 199.460705 
L 143.543871 199.34922 
L 274.909091 199.743199 
" style="fill:none;stroke:#17becf;stroke-linecap:square;stroke-width:1.5;"/>
    <defs>
     <path d="M -1.5 3 
L 0 1.5 
L 1.5 3 
L 3 1.5 
L 1.5 0 
L 3 -1.5 
L 1.5 -3 
L 0 -1.5 
L -1.5 -3 
L -3 -1.5 
L -1.5 0 
L -3 1.5 
z
" id="mbc23a2080a" style="stroke:#17becf;stroke-linejoin:miter;"/>
    </defs>
    <g clip-path="url(#pc1f902b885)">
     <use style="fill:#17becf;stroke:#17becf;stroke-linejoin:miter;" x="13.090909" xlink:href="#mbc23a2080a" y="9.818182"/>
     <use style="fill:#17becf;stroke:#17becf;stroke-linejoin:miter;" x="28.599303" xlink:href="#mbc23a2080a" y="199.300116"/>
     <use style="fill:#17becf;stroke:#17becf;stroke-linejoin:miter;" x="45.019956" xlink:href="#mbc23a2080a" y="199.317873"/>
     <use style="fill:#17becf;stroke:#17becf;stroke-linejoin:miter;" x="77.861261" xlink:href="#mbc23a2080a" y="199.460705"/>
     <use style="fill:#17becf;stroke:#17becf;stroke-linejoin:miter;" x="143.543871" xlink:href="#mbc23a2080a" y="199.34922"/>
     <use style="fill:#17becf;stroke:#17becf;stroke-linejoin:miter;" x="274.909091" xlink:href="#mbc23a2080a" y="199.743199"/>
    </g>
   </g>
   <g id="line2d_37">
    <path clip-path="url(#pc1f902b885)" d="M 13.090909 9.818182 
L 28.599303 199.0948 
L 45.019956 199.366793 
L 77.861261 199.742048 
L 143.543871 199.994024 
L 274.909091 201.362782 
" style="fill:none;stroke:#1f77b4;stroke-linecap:square;stroke-width:1.5;"/>
    <defs>
     <path d="M -1.5 3 
L 0 1.5 
L 1.5 3 
L 3 1.5 
L 1.5 0 
L 3 -1.5 
L 1.5 -3 
L 0 -1.5 
L -1.5 -3 
L -3 -1.5 
L -1.5 0 
L -3 1.5 
z
" id="mba3a1858a8" style="stroke:#1f77b4;stroke-linejoin:miter;"/>
    </defs>
    <g clip-path="url(#pc1f902b885)">
     <use style="fill:#1f77b4;stroke:#1f77b4;stroke-linejoin:miter;" x="13.090909" xlink:href="#mba3a1858a8" y="9.818182"/>
     <use style="fill:#1f77b4;stroke:#1f77b4;stroke-linejoin:miter;" x="28.599303" xlink:href="#mba3a1858a8" y="199.0948"/>
     <use style="fill:#1f77b4;stroke:#1f77b4;stroke-linejoin:miter;" x="45.019956" xlink:href="#mba3a1858a8" y="199.366793"/>
     <use style="fill:#1f77b4;stroke:#1f77b4;stroke-linejoin:miter;" x="77.861261" xlink:href="#mba3a1858a8" y="199.742048"/>
     <use style="fill:#1f77b4;stroke:#1f77b4;stroke-linejoin:miter;" x="143.543871" xlink:href="#mba3a1858a8" y="199.994024"/>
     <use style="fill:#1f77b4;stroke:#1f77b4;stroke-linejoin:miter;" x="274.909091" xlink:href="#mba3a1858a8" y="201.362782"/>
    </g>
   </g>
   <g id="line2d_38">
    <path clip-path="url(#pc1f902b885)" d="M 13.090909 9.818182 
L 28.599303 199.108539 
L 45.019956 199.369976 
L 77.861261 199.794186 
L 143.543871 200.154351 
L 274.909091 201.540451 
" style="fill:none;stroke:#ff7f0e;stroke-linecap:square;stroke-width:1.5;"/>
    <defs>
     <path d="M -1.5 3 
L 0 1.5 
L 1.5 3 
L 3 1.5 
L 1.5 0 
L 3 -1.5 
L 1.5 -3 
L 0 -1.5 
L -1.5 -3 
L -3 -1.5 
L -1.5 0 
L -3 1.5 
z
" id="m4c59d660e7" style="stroke:#ff7f0e;stroke-linejoin:miter;"/>
    </defs>
    <g clip-path="url(#pc1f902b885)">
     <use style="fill:#ff7f0e;stroke:#ff7f0e;stroke-linejoin:miter;" x="13.090909" xlink:href="#m4c59d660e7" y="9.818182"/>
     <use style="fill:#ff7f0e;stroke:#ff7f0e;stroke-linejoin:miter;" x="28.599303" xlink:href="#m4c59d660e7" y="199.108539"/>
     <use style="fill:#ff7f0e;stroke:#ff7f0e;stroke-linejoin:miter;" x="45.019956" xlink:href="#m4c59d660e7" y="199.369976"/>
     <use style="fill:#ff7f0e;stroke:#ff7f0e;stroke-linejoin:miter;" x="77.861261" xlink:href="#m4c59d660e7" y="199.794186"/>
     <use style="fill:#ff7f0e;stroke:#ff7f0e;stroke-linejoin:miter;" x="143.543871" xlink:href="#m4c59d660e7" y="200.154351"/>
     <use style="fill:#ff7f0e;stroke:#ff7f0e;stroke-linejoin:miter;" x="274.909091" xlink:href="#m4c59d660e7" y="201.540451"/>
    </g>
   </g>
   <g id="line2d_39">
    <path clip-path="url(#pc1f902b885)" d="M 13.090909 9.818182 
L 28.599303 199.453536 
L 45.019956 199.453729 
L 77.861261 199.606454 
L 143.543871 199.461782 
L 274.909091 200.004898 
" style="fill:none;stroke:#2ca02c;stroke-linecap:square;stroke-width:1.5;"/>
    <defs>
     <path d="M -0 4.242641 
L 2.545584 0 
L 0 -4.242641 
L -2.545584 -0 
z
" id="mfbfcaa57f2" style="stroke:#2ca02c;stroke-linejoin:miter;"/>
    </defs>
    <g clip-path="url(#pc1f902b885)">
     <use style="fill:#2ca02c;stroke:#2ca02c;stroke-linejoin:miter;" x="13.090909" xlink:href="#mfbfcaa57f2" y="9.818182"/>
     <use style="fill:#2ca02c;stroke:#2ca02c;stroke-linejoin:miter;" x="28.599303" xlink:href="#mfbfcaa57f2" y="199.453536"/>
     <use style="fill:#2ca02c;stroke:#2ca02c;stroke-linejoin:miter;" x="45.019956" xlink:href="#mfbfcaa57f2" y="199.453729"/>
     <use style="fill:#2ca02c;stroke:#2ca02c;stroke-linejoin:miter;" x="77.861261" xlink:href="#mfbfcaa57f2" y="199.606454"/>
     <use style="fill:#2ca02c;stroke:#2ca02c;stroke-linejoin:miter;" x="143.543871" xlink:href="#mfbfcaa57f2" y="199.461782"/>
     <use style="fill:#2ca02c;stroke:#2ca02c;stroke-linejoin:miter;" x="274.909091" xlink:href="#mfbfcaa57f2" y="200.004898"/>
    </g>
   </g>
   <g id="line2d_40">
    <path clip-path="url(#pc1f902b885)" d="M 13.090909 9.818182 
L 28.599303 199.216874 
L 45.019956 199.344088 
L 77.861261 199.762079 
L 143.543871 200.125709 
L 274.909091 201.687729 
" style="fill:none;stroke:#d62728;stroke-linecap:square;stroke-width:1.5;"/>
    <defs>
     <path d="M -0 4.242641 
L 2.545584 0 
L 0 -4.242641 
L -2.545584 -0 
z
" id="m72a8279822" style="stroke:#d62728;stroke-linejoin:miter;"/>
    </defs>
    <g clip-path="url(#pc1f902b885)">
     <use style="fill:#d62728;stroke:#d62728;stroke-linejoin:miter;" x="13.090909" xlink:href="#m72a8279822" y="9.818182"/>
     <use style="fill:#d62728;stroke:#d62728;stroke-linejoin:miter;" x="28.599303" xlink:href="#m72a8279822" y="199.216874"/>
     <use style="fill:#d62728;stroke:#d62728;stroke-linejoin:miter;" x="45.019956" xlink:href="#m72a8279822" y="199.344088"/>
     <use style="fill:#d62728;stroke:#d62728;stroke-linejoin:miter;" x="77.861261" xlink:href="#m72a8279822" y="199.762079"/>
     <use style="fill:#d62728;stroke:#d62728;stroke-linejoin:miter;" x="143.543871" xlink:href="#m72a8279822" y="200.125709"/>
     <use style="fill:#d62728;stroke:#d62728;stroke-linejoin:miter;" x="274.909091" xlink:href="#m72a8279822" y="201.687729"/>
    </g>
   </g>
   <g id="line2d_41">
    <path clip-path="url(#pc1f902b885)" d="M 13.090909 9.818182 
L 28.599303 199.185134 
L 45.019956 199.408853 
L 77.861261 199.834314 
L 143.543871 200.276136 
L 274.909091 201.85405 
" style="fill:none;stroke:#9467bd;stroke-linecap:square;stroke-width:1.5;"/>
    <defs>
     <path d="M -0 4.242641 
L 2.545584 0 
L 0 -4.242641 
L -2.545584 -0 
z
" id="m6ffd73ef51" style="stroke:#9467bd;stroke-linejoin:miter;"/>
    </defs>
    <g clip-path="url(#pc1f902b885)">
     <use style="fill:#9467bd;stroke:#9467bd;stroke-linejoin:miter;" x="13.090909" xlink:href="#m6ffd73ef51" y="9.818182"/>
     <use style="fill:#9467bd;stroke:#9467bd;stroke-linejoin:miter;" x="28.599303" xlink:href="#m6ffd73ef51" y="199.185134"/>
     <use style="fill:#9467bd;stroke:#9467bd;stroke-linejoin:miter;" x="45.019956" xlink:href="#m6ffd73ef51" y="199.408853"/>
     <use style="fill:#9467bd;stroke:#9467bd;stroke-linejoin:miter;" x="77.861261" xlink:href="#m6ffd73ef51" y="199.834314"/>
     <use style="fill:#9467bd;stroke:#9467bd;stroke-linejoin:miter;" x="143.543871" xlink:href="#m6ffd73ef51" y="200.276136"/>
     <use style="fill:#9467bd;stroke:#9467bd;stroke-linejoin:miter;" x="274.909091" xlink:href="#m6ffd73ef51" y="201.85405"/>
    </g>
   </g>
   <g id="patch_3">
    <path d="M 0 216 
L 0 0 
" style="fill:none;stroke:#000000;stroke-linecap:square;stroke-linejoin:miter;stroke-width:0.8;"/>
   </g>
   <g id="patch_4">
    <path d="M 288 216 
L 288 0 
" style="fill:none;stroke:#000000;stroke-linecap:square;stroke-linejoin:miter;stroke-width:0.8;"/>
   </g>
   <g id="patch_5">
    <path d="M 0 216 
L 288 216 
" style="fill:none;stroke:#000000;stroke-linecap:square;stroke-linejoin:miter;stroke-width:0.8;"/>
   </g>
   <g id="patch_6">
    <path d="M 0 0 
L 288 0 
" style="fill:none;stroke:#000000;stroke-linecap:square;stroke-linejoin:miter;stroke-width:0.8;"/>
   </g>
   <g id="legend_1">
    <g id="patch_7">
     <path d="M 211.774687 139.40625 
L 283.8 139.40625 
Q 285 139.40625 285 138.20625 
L 285 4.2 
Q 285 3 283.8 3 
L 211.774687 3 
Q 210.574688 3 210.574688 4.2 
L 210.574688 138.20625 
Q 210.574688 139.40625 211.774687 139.40625 
z
" style="fill:#ffffff;opacity:0.8;stroke:#cccccc;stroke-linejoin:miter;"/>
    </g>
    <g id="line2d_42">
     <path d="M 212.974688 7.859063 
L 224.974688 7.859063 
" style="fill:none;stroke:#1f77b4;stroke-linecap:square;stroke-width:1.5;"/>
    </g>
    <g id="line2d_43">
     <g>
      <use style="fill:#1f77b4;stroke:#1f77b4;" x="218.974688" xlink:href="#m9bf5ecd99a" y="7.859063"/>
     </g>
    </g>
    <g id="text_16">
     <!-- 256_p2p -->
     <defs>
      <path d="M 50.984375 -16.609375 
L 50.984375 -23.578125 
L -0.984375 -23.578125 
L -0.984375 -16.609375 
z
" id="DejaVuSans-95"/>
      <path d="M 18.109375 8.203125 
L 18.109375 -20.796875 
L 9.078125 -20.796875 
L 9.078125 54.6875 
L 18.109375 54.6875 
L 18.109375 46.390625 
Q 20.953125 51.265625 25.265625 53.625 
Q 29.59375 56 35.59375 56 
Q 45.5625 56 51.78125 48.09375 
Q 58.015625 40.1875 58.015625 27.296875 
Q 58.015625 14.40625 51.78125 6.484375 
Q 45.5625 -1.421875 35.59375 -1.421875 
Q 29.59375 -1.421875 25.265625 0.953125 
Q 20.953125 3.328125 18.109375 8.203125 
z
M 48.6875 27.296875 
Q 48.6875 37.203125 44.609375 42.84375 
Q 40.53125 48.484375 33.40625 48.484375 
Q 26.265625 48.484375 22.1875 42.84375 
Q 18.109375 37.203125 18.109375 27.296875 
Q 18.109375 17.390625 22.1875 11.75 
Q 26.265625 6.109375 33.40625 6.109375 
Q 40.53125 6.109375 44.609375 11.75 
Q 48.6875 17.390625 48.6875 27.296875 
z
" id="DejaVuSans-112"/>
     </defs>
     <g transform="translate(229.774688 9.959063)scale(0.06 -0.06)">
      <use xlink:href="#DejaVuSans-50"/>
      <use x="63.623047" xlink:href="#DejaVuSans-53"/>
      <use x="127.246094" xlink:href="#DejaVuSans-54"/>
      <use x="190.869141" xlink:href="#DejaVuSans-95"/>
      <use x="240.869141" xlink:href="#DejaVuSans-112"/>
      <use x="304.345703" xlink:href="#DejaVuSans-50"/>
      <use x="367.96875" xlink:href="#DejaVuSans-112"/>
     </g>
    </g>
    <g id="line2d_44">
     <path d="M 212.974688 16.832813 
L 224.974688 16.832813 
" style="fill:none;stroke:#ff7f0e;stroke-linecap:square;stroke-width:1.5;"/>
    </g>
    <g id="line2d_45">
     <g>
      <use style="fill:#ff7f0e;stroke:#ff7f0e;" x="218.974688" xlink:href="#mf94fed1245" y="16.832813"/>
     </g>
    </g>
    <g id="text_17">
     <!-- 256_p2p_seq_IO -->
     <defs>
      <path d="M 14.796875 27.296875 
Q 14.796875 17.390625 18.875 11.75 
Q 22.953125 6.109375 30.078125 6.109375 
Q 37.203125 6.109375 41.296875 11.75 
Q 45.40625 17.390625 45.40625 27.296875 
Q 45.40625 37.203125 41.296875 42.84375 
Q 37.203125 48.484375 30.078125 48.484375 
Q 22.953125 48.484375 18.875 42.84375 
Q 14.796875 37.203125 14.796875 27.296875 
z
M 45.40625 8.203125 
Q 42.578125 3.328125 38.25 0.953125 
Q 33.9375 -1.421875 27.875 -1.421875 
Q 17.96875 -1.421875 11.734375 6.484375 
Q 5.515625 14.40625 5.515625 27.296875 
Q 5.515625 40.1875 11.734375 48.09375 
Q 17.96875 56 27.875 56 
Q 33.9375 56 38.25 53.625 
Q 42.578125 51.265625 45.40625 46.390625 
L 45.40625 54.6875 
L 54.390625 54.6875 
L 54.390625 -20.796875 
L 45.40625 -20.796875 
z
" id="DejaVuSans-113"/>
      <path d="M 9.8125 72.90625 
L 19.671875 72.90625 
L 19.671875 0 
L 9.8125 0 
z
" id="DejaVuSans-73"/>
      <path d="M 39.40625 66.21875 
Q 28.65625 66.21875 22.328125 58.203125 
Q 16.015625 50.203125 16.015625 36.375 
Q 16.015625 22.609375 22.328125 14.59375 
Q 28.65625 6.59375 39.40625 6.59375 
Q 50.140625 6.59375 56.421875 14.59375 
Q 62.703125 22.609375 62.703125 36.375 
Q 62.703125 50.203125 56.421875 58.203125 
Q 50.140625 66.21875 39.40625 66.21875 
z
M 39.40625 74.21875 
Q 54.734375 74.21875 63.90625 63.9375 
Q 73.09375 53.65625 73.09375 36.375 
Q 73.09375 19.140625 63.90625 8.859375 
Q 54.734375 -1.421875 39.40625 -1.421875 
Q 24.03125 -1.421875 14.8125 8.828125 
Q 5.609375 19.09375 5.609375 36.375 
Q 5.609375 53.65625 14.8125 63.9375 
Q 24.03125 74.21875 39.40625 74.21875 
z
" id="DejaVuSans-79"/>
     </defs>
     <g transform="translate(229.774688 18.932813)scale(0.06 -0.06)">
      <use xlink:href="#DejaVuSans-50"/>
      <use x="63.623047" xlink:href="#DejaVuSans-53"/>
      <use x="127.246094" xlink:href="#DejaVuSans-54"/>
      <use x="190.869141" xlink:href="#DejaVuSans-95"/>
      <use x="240.869141" xlink:href="#DejaVuSans-112"/>
      <use x="304.345703" xlink:href="#DejaVuSans-50"/>
      <use x="367.96875" xlink:href="#DejaVuSans-112"/>
      <use x="431.445312" xlink:href="#DejaVuSans-95"/>
      <use x="481.445312" xlink:href="#DejaVuSans-115"/>
      <use x="533.544922" xlink:href="#DejaVuSans-101"/>
      <use x="595.068359" xlink:href="#DejaVuSans-113"/>
      <use x="658.544922" xlink:href="#DejaVuSans-95"/>
      <use x="708.544922" xlink:href="#DejaVuSans-73"/>
      <use x="738.037109" xlink:href="#DejaVuSans-79"/>
     </g>
    </g>
    <g id="line2d_46">
     <path d="M 212.974688 25.806563 
L 224.974688 25.806563 
" style="fill:none;stroke:#2ca02c;stroke-linecap:square;stroke-width:1.5;"/>
    </g>
    <g id="line2d_47">
     <g>
      <use style="fill:#2ca02c;stroke:#2ca02c;" x="218.974688" xlink:href="#mc27bfbe5c3" y="25.806563"/>
     </g>
    </g>
    <g id="text_18">
     <!-- 256_p2p_par_IO -->
     <defs>
      <path d="M 34.28125 27.484375 
Q 23.390625 27.484375 19.1875 25 
Q 14.984375 22.515625 14.984375 16.5 
Q 14.984375 11.71875 18.140625 8.90625 
Q 21.296875 6.109375 26.703125 6.109375 
Q 34.1875 6.109375 38.703125 11.40625 
Q 43.21875 16.703125 43.21875 25.484375 
L 43.21875 27.484375 
z
M 52.203125 31.203125 
L 52.203125 0 
L 43.21875 0 
L 43.21875 8.296875 
Q 40.140625 3.328125 35.546875 0.953125 
Q 30.953125 -1.421875 24.3125 -1.421875 
Q 15.921875 -1.421875 10.953125 3.296875 
Q 6 8.015625 6 15.921875 
Q 6 25.140625 12.171875 29.828125 
Q 18.359375 34.515625 30.609375 34.515625 
L 43.21875 34.515625 
L 43.21875 35.40625 
Q 43.21875 41.609375 39.140625 45 
Q 35.0625 48.390625 27.6875 48.390625 
Q 23 48.390625 18.546875 47.265625 
Q 14.109375 46.140625 10.015625 43.890625 
L 10.015625 52.203125 
Q 14.9375 54.109375 19.578125 55.046875 
Q 24.21875 56 28.609375 56 
Q 40.484375 56 46.34375 49.84375 
Q 52.203125 43.703125 52.203125 31.203125 
z
" id="DejaVuSans-97"/>
     </defs>
     <g transform="translate(229.774688 27.906563)scale(0.06 -0.06)">
      <use xlink:href="#DejaVuSans-50"/>
      <use x="63.623047" xlink:href="#DejaVuSans-53"/>
      <use x="127.246094" xlink:href="#DejaVuSans-54"/>
      <use x="190.869141" xlink:href="#DejaVuSans-95"/>
      <use x="240.869141" xlink:href="#DejaVuSans-112"/>
      <use x="304.345703" xlink:href="#DejaVuSans-50"/>
      <use x="367.96875" xlink:href="#DejaVuSans-112"/>
      <use x="431.445312" xlink:href="#DejaVuSans-95"/>
      <use x="481.445312" xlink:href="#DejaVuSans-112"/>
      <use x="544.921875" xlink:href="#DejaVuSans-97"/>
      <use x="606.201172" xlink:href="#DejaVuSans-114"/>
      <use x="647.314453" xlink:href="#DejaVuSans-95"/>
      <use x="697.314453" xlink:href="#DejaVuSans-73"/>
      <use x="726.806641" xlink:href="#DejaVuSans-79"/>
     </g>
    </g>
    <g id="line2d_48">
     <path d="M 212.974688 34.780313 
L 224.974688 34.780313 
" style="fill:none;stroke:#d62728;stroke-linecap:square;stroke-width:1.5;"/>
    </g>
    <g id="line2d_49">
     <g>
      <use style="fill:#d62728;stroke:#d62728;stroke-linejoin:miter;" x="218.974688" xlink:href="#m437ab341ad" y="34.780313"/>
     </g>
    </g>
    <g id="text_19">
     <!-- 512_p2p -->
     <g transform="translate(229.774688 36.880313)scale(0.06 -0.06)">
      <use xlink:href="#DejaVuSans-53"/>
      <use x="63.623047" xlink:href="#DejaVuSans-49"/>
      <use x="127.246094" xlink:href="#DejaVuSans-50"/>
      <use x="190.869141" xlink:href="#DejaVuSans-95"/>
      <use x="240.869141" xlink:href="#DejaVuSans-112"/>
      <use x="304.345703" xlink:href="#DejaVuSans-50"/>
      <use x="367.96875" xlink:href="#DejaVuSans-112"/>
     </g>
    </g>
    <g id="line2d_50">
     <path d="M 212.974688 43.754062 
L 224.974688 43.754062 
" style="fill:none;stroke:#9467bd;stroke-linecap:square;stroke-width:1.5;"/>
    </g>
    <g id="line2d_51">
     <g>
      <use style="fill:#9467bd;stroke:#9467bd;stroke-linejoin:miter;" x="218.974688" xlink:href="#m9f4e127bcd" y="43.754062"/>
     </g>
    </g>
    <g id="text_20">
     <!-- 512_p2p_seq_IO -->
     <g transform="translate(229.774688 45.854062)scale(0.06 -0.06)">
      <use xlink:href="#DejaVuSans-53"/>
      <use x="63.623047" xlink:href="#DejaVuSans-49"/>
      <use x="127.246094" xlink:href="#DejaVuSans-50"/>
      <use x="190.869141" xlink:href="#DejaVuSans-95"/>
      <use x="240.869141" xlink:href="#DejaVuSans-112"/>
      <use x="304.345703" xlink:href="#DejaVuSans-50"/>
      <use x="367.96875" xlink:href="#DejaVuSans-112"/>
      <use x="431.445312" xlink:href="#DejaVuSans-95"/>
      <use x="481.445312" xlink:href="#DejaVuSans-115"/>
      <use x="533.544922" xlink:href="#DejaVuSans-101"/>
      <use x="595.068359" xlink:href="#DejaVuSans-113"/>
      <use x="658.544922" xlink:href="#DejaVuSans-95"/>
      <use x="708.544922" xlink:href="#DejaVuSans-73"/>
      <use x="738.037109" xlink:href="#DejaVuSans-79"/>
     </g>
    </g>
    <g id="line2d_52">
     <path d="M 212.974688 52.727812 
L 224.974688 52.727812 
" style="fill:none;stroke:#8c564b;stroke-linecap:square;stroke-width:1.5;"/>
    </g>
    <g id="line2d_53">
     <g>
      <use style="fill:#8c564b;stroke:#8c564b;stroke-linejoin:miter;" x="218.974688" xlink:href="#m1a95ee0c5b" y="52.727812"/>
     </g>
    </g>
    <g id="text_21">
     <!-- 512_p2p_par_IO -->
     <g transform="translate(229.774688 54.827812)scale(0.06 -0.06)">
      <use xlink:href="#DejaVuSans-53"/>
      <use x="63.623047" xlink:href="#DejaVuSans-49"/>
      <use x="127.246094" xlink:href="#DejaVuSans-50"/>
      <use x="190.869141" xlink:href="#DejaVuSans-95"/>
      <use x="240.869141" xlink:href="#DejaVuSans-112"/>
      <use x="304.345703" xlink:href="#DejaVuSans-50"/>
      <use x="367.96875" xlink:href="#DejaVuSans-112"/>
      <use x="431.445312" xlink:href="#DejaVuSans-95"/>
      <use x="481.445312" xlink:href="#DejaVuSans-112"/>
      <use x="544.921875" xlink:href="#DejaVuSans-97"/>
      <use x="606.201172" xlink:href="#DejaVuSans-114"/>
      <use x="647.314453" xlink:href="#DejaVuSans-95"/>
      <use x="697.314453" xlink:href="#DejaVuSans-73"/>
      <use x="726.806641" xlink:href="#DejaVuSans-79"/>
     </g>
    </g>
    <g id="line2d_54">
     <path d="M 212.974688 61.701562 
L 224.974688 61.701562 
" style="fill:none;stroke:#e377c2;stroke-linecap:square;stroke-width:1.5;"/>
    </g>
    <g id="line2d_55">
     <g>
      <use style="fill:#e377c2;stroke:#e377c2;stroke-linejoin:miter;" x="218.974688" xlink:href="#me5729825af" y="61.701562"/>
     </g>
    </g>
    <g id="text_22">
     <!-- 1024_p2p -->
     <g transform="translate(229.774688 63.801562)scale(0.06 -0.06)">
      <use xlink:href="#DejaVuSans-49"/>
      <use x="63.623047" xlink:href="#DejaVuSans-48"/>
      <use x="127.246094" xlink:href="#DejaVuSans-50"/>
      <use x="190.869141" xlink:href="#DejaVuSans-52"/>
      <use x="254.492188" xlink:href="#DejaVuSans-95"/>
      <use x="304.492188" xlink:href="#DejaVuSans-112"/>
      <use x="367.96875" xlink:href="#DejaVuSans-50"/>
      <use x="431.591797" xlink:href="#DejaVuSans-112"/>
     </g>
    </g>
    <g id="line2d_56">
     <path d="M 212.974688 70.675312 
L 224.974688 70.675312 
" style="fill:none;stroke:#7f7f7f;stroke-linecap:square;stroke-width:1.5;"/>
    </g>
    <g id="line2d_57">
     <g>
      <use style="fill:#7f7f7f;stroke:#7f7f7f;stroke-linejoin:miter;" x="218.974688" xlink:href="#m00b8ee58eb" y="70.675312"/>
     </g>
    </g>
    <g id="text_23">
     <!-- 1024_p2p_seq_IO -->
     <g transform="translate(229.774688 72.775312)scale(0.06 -0.06)">
      <use xlink:href="#DejaVuSans-49"/>
      <use x="63.623047" xlink:href="#DejaVuSans-48"/>
      <use x="127.246094" xlink:href="#DejaVuSans-50"/>
      <use x="190.869141" xlink:href="#DejaVuSans-52"/>
      <use x="254.492188" xlink:href="#DejaVuSans-95"/>
      <use x="304.492188" xlink:href="#DejaVuSans-112"/>
      <use x="367.96875" xlink:href="#DejaVuSans-50"/>
      <use x="431.591797" xlink:href="#DejaVuSans-112"/>
      <use x="495.068359" xlink:href="#DejaVuSans-95"/>
      <use x="545.068359" xlink:href="#DejaVuSans-115"/>
      <use x="597.167969" xlink:href="#DejaVuSans-101"/>
      <use x="658.691406" xlink:href="#DejaVuSans-113"/>
      <use x="722.167969" xlink:href="#DejaVuSans-95"/>
      <use x="772.167969" xlink:href="#DejaVuSans-73"/>
      <use x="801.660156" xlink:href="#DejaVuSans-79"/>
     </g>
    </g>
    <g id="line2d_58">
     <path d="M 212.974688 79.649062 
L 224.974688 79.649062 
" style="fill:none;stroke:#bcbd22;stroke-linecap:square;stroke-width:1.5;"/>
    </g>
    <g id="line2d_59">
     <g>
      <use style="fill:#bcbd22;stroke:#bcbd22;stroke-linejoin:miter;" x="218.974688" xlink:href="#m34da082e54" y="79.649062"/>
     </g>
    </g>
    <g id="text_24">
     <!-- 1024_p2p_par_IO -->
     <g transform="translate(229.774688 81.749062)scale(0.06 -0.06)">
      <use xlink:href="#DejaVuSans-49"/>
      <use x="63.623047" xlink:href="#DejaVuSans-48"/>
      <use x="127.246094" xlink:href="#DejaVuSans-50"/>
      <use x="190.869141" xlink:href="#DejaVuSans-52"/>
      <use x="254.492188" xlink:href="#DejaVuSans-95"/>
      <use x="304.492188" xlink:href="#DejaVuSans-112"/>
      <use x="367.96875" xlink:href="#DejaVuSans-50"/>
      <use x="431.591797" xlink:href="#DejaVuSans-112"/>
      <use x="495.068359" xlink:href="#DejaVuSans-95"/>
      <use x="545.068359" xlink:href="#DejaVuSans-112"/>
      <use x="608.544922" xlink:href="#DejaVuSans-97"/>
      <use x="669.824219" xlink:href="#DejaVuSans-114"/>
      <use x="710.9375" xlink:href="#DejaVuSans-95"/>
      <use x="760.9375" xlink:href="#DejaVuSans-73"/>
      <use x="790.429688" xlink:href="#DejaVuSans-79"/>
     </g>
    </g>
    <g id="line2d_60">
     <path d="M 212.974688 88.622812 
L 224.974688 88.622812 
" style="fill:none;stroke:#17becf;stroke-linecap:square;stroke-width:1.5;"/>
    </g>
    <g id="line2d_61">
     <g>
      <use style="fill:#17becf;stroke:#17becf;stroke-linejoin:miter;" x="218.974688" xlink:href="#mbc23a2080a" y="88.622812"/>
     </g>
    </g>
    <g id="text_25">
     <!-- 2048_p2p -->
     <g transform="translate(229.774688 90.722812)scale(0.06 -0.06)">
      <use xlink:href="#DejaVuSans-50"/>
      <use x="63.623047" xlink:href="#DejaVuSans-48"/>
      <use x="127.246094" xlink:href="#DejaVuSans-52"/>
      <use x="190.869141" xlink:href="#DejaVuSans-56"/>
      <use x="254.492188" xlink:href="#DejaVuSans-95"/>
      <use x="304.492188" xlink:href="#DejaVuSans-112"/>
      <use x="367.96875" xlink:href="#DejaVuSans-50"/>
      <use x="431.591797" xlink:href="#DejaVuSans-112"/>
     </g>
    </g>
    <g id="line2d_62">
     <path d="M 212.974688 97.596562 
L 224.974688 97.596562 
" style="fill:none;stroke:#1f77b4;stroke-linecap:square;stroke-width:1.5;"/>
    </g>
    <g id="line2d_63">
     <g>
      <use style="fill:#1f77b4;stroke:#1f77b4;stroke-linejoin:miter;" x="218.974688" xlink:href="#mba3a1858a8" y="97.596562"/>
     </g>
    </g>
    <g id="text_26">
     <!-- 2048_p2p_seq_IO -->
     <g transform="translate(229.774688 99.696562)scale(0.06 -0.06)">
      <use xlink:href="#DejaVuSans-50"/>
      <use x="63.623047" xlink:href="#DejaVuSans-48"/>
      <use x="127.246094" xlink:href="#DejaVuSans-52"/>
      <use x="190.869141" xlink:href="#DejaVuSans-56"/>
      <use x="254.492188" xlink:href="#DejaVuSans-95"/>
      <use x="304.492188" xlink:href="#DejaVuSans-112"/>
      <use x="367.96875" xlink:href="#DejaVuSans-50"/>
      <use x="431.591797" xlink:href="#DejaVuSans-112"/>
      <use x="495.068359" xlink:href="#DejaVuSans-95"/>
      <use x="545.068359" xlink:href="#DejaVuSans-115"/>
      <use x="597.167969" xlink:href="#DejaVuSans-101"/>
      <use x="658.691406" xlink:href="#DejaVuSans-113"/>
      <use x="722.167969" xlink:href="#DejaVuSans-95"/>
      <use x="772.167969" xlink:href="#DejaVuSans-73"/>
      <use x="801.660156" xlink:href="#DejaVuSans-79"/>
     </g>
    </g>
    <g id="line2d_64">
     <path d="M 212.974688 106.570312 
L 224.974688 106.570312 
" style="fill:none;stroke:#ff7f0e;stroke-linecap:square;stroke-width:1.5;"/>
    </g>
    <g id="line2d_65">
     <g>
      <use style="fill:#ff7f0e;stroke:#ff7f0e;stroke-linejoin:miter;" x="218.974688" xlink:href="#m4c59d660e7" y="106.570312"/>
     </g>
    </g>
    <g id="text_27">
     <!-- 2048_p2p_par_IO -->
     <g transform="translate(229.774688 108.670312)scale(0.06 -0.06)">
      <use xlink:href="#DejaVuSans-50"/>
      <use x="63.623047" xlink:href="#DejaVuSans-48"/>
      <use x="127.246094" xlink:href="#DejaVuSans-52"/>
      <use x="190.869141" xlink:href="#DejaVuSans-56"/>
      <use x="254.492188" xlink:href="#DejaVuSans-95"/>
      <use x="304.492188" xlink:href="#DejaVuSans-112"/>
      <use x="367.96875" xlink:href="#DejaVuSans-50"/>
      <use x="431.591797" xlink:href="#DejaVuSans-112"/>
      <use x="495.068359" xlink:href="#DejaVuSans-95"/>
      <use x="545.068359" xlink:href="#DejaVuSans-112"/>
      <use x="608.544922" xlink:href="#DejaVuSans-97"/>
      <use x="669.824219" xlink:href="#DejaVuSans-114"/>
      <use x="710.9375" xlink:href="#DejaVuSans-95"/>
      <use x="760.9375" xlink:href="#DejaVuSans-73"/>
      <use x="790.429688" xlink:href="#DejaVuSans-79"/>
     </g>
    </g>
    <g id="line2d_66">
     <path d="M 212.974688 115.544062 
L 224.974688 115.544062 
" style="fill:none;stroke:#2ca02c;stroke-linecap:square;stroke-width:1.5;"/>
    </g>
    <g id="line2d_67">
     <g>
      <use style="fill:#2ca02c;stroke:#2ca02c;stroke-linejoin:miter;" x="218.974688" xlink:href="#mfbfcaa57f2" y="115.544062"/>
     </g>
    </g>
    <g id="text_28">
     <!-- 4096_p2p -->
     <defs>
      <path d="M 10.984375 1.515625 
L 10.984375 10.5 
Q 14.703125 8.734375 18.5 7.8125 
Q 22.3125 6.890625 25.984375 6.890625 
Q 35.75 6.890625 40.890625 13.453125 
Q 46.046875 20.015625 46.78125 33.40625 
Q 43.953125 29.203125 39.59375 26.953125 
Q 35.25 24.703125 29.984375 24.703125 
Q 19.046875 24.703125 12.671875 31.3125 
Q 6.296875 37.9375 6.296875 49.421875 
Q 6.296875 60.640625 12.9375 67.421875 
Q 19.578125 74.21875 30.609375 74.21875 
Q 43.265625 74.21875 49.921875 64.515625 
Q 56.59375 54.828125 56.59375 36.375 
Q 56.59375 19.140625 48.40625 8.859375 
Q 40.234375 -1.421875 26.421875 -1.421875 
Q 22.703125 -1.421875 18.890625 -0.6875 
Q 15.09375 0.046875 10.984375 1.515625 
z
M 30.609375 32.421875 
Q 37.25 32.421875 41.125 36.953125 
Q 45.015625 41.5 45.015625 49.421875 
Q 45.015625 57.28125 41.125 61.84375 
Q 37.25 66.40625 30.609375 66.40625 
Q 23.96875 66.40625 20.09375 61.84375 
Q 16.21875 57.28125 16.21875 49.421875 
Q 16.21875 41.5 20.09375 36.953125 
Q 23.96875 32.421875 30.609375 32.421875 
z
" id="DejaVuSans-57"/>
     </defs>
     <g transform="translate(229.774688 117.644062)scale(0.06 -0.06)">
      <use xlink:href="#DejaVuSans-52"/>
      <use x="63.623047" xlink:href="#DejaVuSans-48"/>
      <use x="127.246094" xlink:href="#DejaVuSans-57"/>
      <use x="190.869141" xlink:href="#DejaVuSans-54"/>
      <use x="254.492188" xlink:href="#DejaVuSans-95"/>
      <use x="304.492188" xlink:href="#DejaVuSans-112"/>
      <use x="367.96875" xlink:href="#DejaVuSans-50"/>
      <use x="431.591797" xlink:href="#DejaVuSans-112"/>
     </g>
    </g>
    <g id="line2d_68">
     <path d="M 212.974688 124.517812 
L 224.974688 124.517812 
" style="fill:none;stroke:#d62728;stroke-linecap:square;stroke-width:1.5;"/>
    </g>
    <g id="line2d_69">
     <g>
      <use style="fill:#d62728;stroke:#d62728;stroke-linejoin:miter;" x="218.974688" xlink:href="#m72a8279822" y="124.517812"/>
     </g>
    </g>
    <g id="text_29">
     <!-- 4096_p2p_seq_IO -->
     <g transform="translate(229.774688 126.617812)scale(0.06 -0.06)">
      <use xlink:href="#DejaVuSans-52"/>
      <use x="63.623047" xlink:href="#DejaVuSans-48"/>
      <use x="127.246094" xlink:href="#DejaVuSans-57"/>
      <use x="190.869141" xlink:href="#DejaVuSans-54"/>
      <use x="254.492188" xlink:href="#DejaVuSans-95"/>
      <use x="304.492188" xlink:href="#DejaVuSans-112"/>
      <use x="367.96875" xlink:href="#DejaVuSans-50"/>
      <use x="431.591797" xlink:href="#DejaVuSans-112"/>
      <use x="495.068359" xlink:href="#DejaVuSans-95"/>
      <use x="545.068359" xlink:href="#DejaVuSans-115"/>
      <use x="597.167969" xlink:href="#DejaVuSans-101"/>
      <use x="658.691406" xlink:href="#DejaVuSans-113"/>
      <use x="722.167969" xlink:href="#DejaVuSans-95"/>
      <use x="772.167969" xlink:href="#DejaVuSans-73"/>
      <use x="801.660156" xlink:href="#DejaVuSans-79"/>
     </g>
    </g>
    <g id="line2d_70">
     <path d="M 212.974688 133.491562 
L 224.974688 133.491562 
" style="fill:none;stroke:#9467bd;stroke-linecap:square;stroke-width:1.5;"/>
    </g>
    <g id="line2d_71">
     <g>
      <use style="fill:#9467bd;stroke:#9467bd;stroke-linejoin:miter;" x="218.974688" xlink:href="#m6ffd73ef51" y="133.491562"/>
     </g>
    </g>
    <g id="text_30">
     <!-- 4096_p2p_par_IO -->
     <g transform="translate(229.774688 135.591562)scale(0.06 -0.06)">
      <use xlink:href="#DejaVuSans-52"/>
      <use x="63.623047" xlink:href="#DejaVuSans-48"/>
      <use x="127.246094" xlink:href="#DejaVuSans-57"/>
      <use x="190.869141" xlink:href="#DejaVuSans-54"/>
      <use x="254.492188" xlink:href="#DejaVuSans-95"/>
      <use x="304.492188" xlink:href="#DejaVuSans-112"/>
      <use x="367.96875" xlink:href="#DejaVuSans-50"/>
      <use x="431.591797" xlink:href="#DejaVuSans-112"/>
      <use x="495.068359" xlink:href="#DejaVuSans-95"/>
      <use x="545.068359" xlink:href="#DejaVuSans-112"/>
      <use x="608.544922" xlink:href="#DejaVuSans-97"/>
      <use x="669.824219" xlink:href="#DejaVuSans-114"/>
      <use x="710.9375" xlink:href="#DejaVuSans-95"/>
      <use x="760.9375" xlink:href="#DejaVuSans-73"/>
      <use x="790.429688" xlink:href="#DejaVuSans-79"/>
     </g>
    </g>
   </g>
  </g>
 </g>
 <defs>
  <clipPath id="pc1f902b885">
   <rect height="216" width="288" x="0" y="0"/>
  </clipPath>
 </defs>
</svg>
