<?xml version="1.0" encoding="utf-8" standalone="no"?>
<!DOCTYPE svg PUBLIC "-//W3C//DTD SVG 1.1//EN"
  "http://www.w3.org/Graphics/SVG/1.1/DTD/svg11.dtd">
<!-- Created with matplotlib (https://matplotlib.org/) -->
<svg height="260.75625pt" version="1.1" viewBox="0 0 346.578125 260.75625" width="346.578125pt" xmlns="http://www.w3.org/2000/svg" xmlns:xlink="http://www.w3.org/1999/xlink">
 <defs>
  <style type="text/css">
*{stroke-linecap:butt;stroke-linejoin:round;}
  </style>
 </defs>
 <g id="figure_1">
  <g id="patch_1">
   <path d="M 0 260.75625 
L 346.578125 260.75625 
L 346.578125 0 
L 0 0 
z
" style="fill:#ffffff;"/>
  </g>
  <g id="axes_1">
   <g id="patch_2">
    <path d="M 51.378125 223.2 
L 339.378125 223.2 
L 339.378125 7.2 
L 51.378125 7.2 
z
" style="fill:#ffffff;"/>
   </g>
   <g id="matplotlib.axis_1">
    <g id="xtick_1">
     <g id="line2d_1">
      <path clip-path="url(#p515ee9f4c4)" d="M 96.515617 223.2 
L 96.515617 7.2 
" style="fill:none;stroke:#b0b0b0;stroke-linecap:square;stroke-width:0.8;"/>
     </g>
     <g id="line2d_2">
      <defs>
       <path d="M 0 0 
L 0 3.5 
" id="mc315b747fc" style="stroke:#000000;stroke-width:0.8;"/>
      </defs>
      <g>
       <use style="stroke:#000000;stroke-width:0.8;" x="96.515617" xlink:href="#mc315b747fc" y="223.2"/>
      </g>
     </g>
     <g id="text_1">
      <!-- $\mathdefault{2^{1}}$ -->
      <defs>
       <path d="M 19.1875 8.296875 
L 53.609375 8.296875 
L 53.609375 0 
L 7.328125 0 
L 7.328125 8.296875 
Q 12.9375 14.109375 22.625 23.890625 
Q 32.328125 33.6875 34.8125 36.53125 
Q 39.546875 41.84375 41.421875 45.53125 
Q 43.3125 49.21875 43.3125 52.78125 
Q 43.3125 58.59375 39.234375 62.25 
Q 35.15625 65.921875 28.609375 65.921875 
Q 23.96875 65.921875 18.8125 64.3125 
Q 13.671875 62.703125 7.8125 59.421875 
L 7.8125 69.390625 
Q 13.765625 71.78125 18.9375 73 
Q 24.125 74.21875 28.421875 74.21875 
Q 39.75 74.21875 46.484375 68.546875 
Q 53.21875 62.890625 53.21875 53.421875 
Q 53.21875 48.921875 51.53125 44.890625 
Q 49.859375 40.875 45.40625 35.40625 
Q 44.1875 33.984375 37.640625 27.21875 
Q 31.109375 20.453125 19.1875 8.296875 
z
" id="DejaVuSans-50"/>
       <path d="M 12.40625 8.296875 
L 28.515625 8.296875 
L 28.515625 63.921875 
L 10.984375 60.40625 
L 10.984375 69.390625 
L 28.421875 72.90625 
L 38.28125 72.90625 
L 38.28125 8.296875 
L 54.390625 8.296875 
L 54.390625 0 
L 12.40625 0 
z
" id="DejaVuSans-49"/>
      </defs>
      <g transform="translate(90.915617 237.798438)scale(0.1 -0.1)">
       <use transform="translate(0 0.684375)" xlink:href="#DejaVuSans-50"/>
       <use transform="translate(64.580078 38.965625)scale(0.7)" xlink:href="#DejaVuSans-49"/>
      </g>
     </g>
    </g>
    <g id="xtick_2">
     <g id="line2d_3">
      <path clip-path="url(#p515ee9f4c4)" d="M 160.608784 223.2 
L 160.608784 7.2 
" style="fill:none;stroke:#b0b0b0;stroke-linecap:square;stroke-width:0.8;"/>
     </g>
     <g id="line2d_4">
      <g>
       <use style="stroke:#000000;stroke-width:0.8;" x="160.608784" xlink:href="#mc315b747fc" y="223.2"/>
      </g>
     </g>
     <g id="text_2">
      <!-- $\mathdefault{2^{3}}$ -->
      <defs>
       <path d="M 40.578125 39.3125 
Q 47.65625 37.796875 51.625 33 
Q 55.609375 28.21875 55.609375 21.1875 
Q 55.609375 10.40625 48.1875 4.484375 
Q 40.765625 -1.421875 27.09375 -1.421875 
Q 22.515625 -1.421875 17.65625 -0.515625 
Q 12.796875 0.390625 7.625 2.203125 
L 7.625 11.71875 
Q 11.71875 9.328125 16.59375 8.109375 
Q 21.484375 6.890625 26.8125 6.890625 
Q 36.078125 6.890625 40.9375 10.546875 
Q 45.796875 14.203125 45.796875 21.1875 
Q 45.796875 27.640625 41.28125 31.265625 
Q 36.765625 34.90625 28.71875 34.90625 
L 20.21875 34.90625 
L 20.21875 43.015625 
L 29.109375 43.015625 
Q 36.375 43.015625 40.234375 45.921875 
Q 44.09375 48.828125 44.09375 54.296875 
Q 44.09375 59.90625 40.109375 62.90625 
Q 36.140625 65.921875 28.71875 65.921875 
Q 24.65625 65.921875 20.015625 65.03125 
Q 15.375 64.15625 9.8125 62.3125 
L 9.8125 71.09375 
Q 15.4375 72.65625 20.34375 73.4375 
Q 25.25 74.21875 29.59375 74.21875 
Q 40.828125 74.21875 47.359375 69.109375 
Q 53.90625 64.015625 53.90625 55.328125 
Q 53.90625 49.265625 50.4375 45.09375 
Q 46.96875 40.921875 40.578125 39.3125 
z
" id="DejaVuSans-51"/>
      </defs>
      <g transform="translate(155.008784 237.798438)scale(0.1 -0.1)">
       <use transform="translate(0 0.765625)" xlink:href="#DejaVuSans-50"/>
       <use transform="translate(64.580078 39.046875)scale(0.7)" xlink:href="#DejaVuSans-51"/>
      </g>
     </g>
    </g>
    <g id="xtick_3">
     <g id="line2d_5">
      <path clip-path="url(#p515ee9f4c4)" d="M 224.70195 223.2 
L 224.70195 7.2 
" style="fill:none;stroke:#b0b0b0;stroke-linecap:square;stroke-width:0.8;"/>
     </g>
     <g id="line2d_6">
      <g>
       <use style="stroke:#000000;stroke-width:0.8;" x="224.70195" xlink:href="#mc315b747fc" y="223.2"/>
      </g>
     </g>
     <g id="text_3">
      <!-- $\mathdefault{2^{5}}$ -->
      <defs>
       <path d="M 10.796875 72.90625 
L 49.515625 72.90625 
L 49.515625 64.59375 
L 19.828125 64.59375 
L 19.828125 46.734375 
Q 21.96875 47.46875 24.109375 47.828125 
Q 26.265625 48.1875 28.421875 48.1875 
Q 40.625 48.1875 47.75 41.5 
Q 54.890625 34.8125 54.890625 23.390625 
Q 54.890625 11.625 47.5625 5.09375 
Q 40.234375 -1.421875 26.90625 -1.421875 
Q 22.3125 -1.421875 17.546875 -0.640625 
Q 12.796875 0.140625 7.71875 1.703125 
L 7.71875 11.625 
Q 12.109375 9.234375 16.796875 8.0625 
Q 21.484375 6.890625 26.703125 6.890625 
Q 35.15625 6.890625 40.078125 11.328125 
Q 45.015625 15.765625 45.015625 23.390625 
Q 45.015625 31 40.078125 35.4375 
Q 35.15625 39.890625 26.703125 39.890625 
Q 22.75 39.890625 18.8125 39.015625 
Q 14.890625 38.140625 10.796875 36.28125 
z
" id="DejaVuSans-53"/>
      </defs>
      <g transform="translate(219.10195 237.798438)scale(0.1 -0.1)">
       <use transform="translate(0 0.684375)" xlink:href="#DejaVuSans-50"/>
       <use transform="translate(64.580078 38.965625)scale(0.7)" xlink:href="#DejaVuSans-53"/>
      </g>
     </g>
    </g>
    <g id="xtick_4">
     <g id="line2d_7">
      <path clip-path="url(#p515ee9f4c4)" d="M 288.795117 223.2 
L 288.795117 7.2 
" style="fill:none;stroke:#b0b0b0;stroke-linecap:square;stroke-width:0.8;"/>
     </g>
     <g id="line2d_8">
      <g>
       <use style="stroke:#000000;stroke-width:0.8;" x="288.795117" xlink:href="#mc315b747fc" y="223.2"/>
      </g>
     </g>
     <g id="text_4">
      <!-- $\mathdefault{2^{7}}$ -->
      <defs>
       <path d="M 8.203125 72.90625 
L 55.078125 72.90625 
L 55.078125 68.703125 
L 28.609375 0 
L 18.3125 0 
L 43.21875 64.59375 
L 8.203125 64.59375 
z
" id="DejaVuSans-55"/>
      </defs>
      <g transform="translate(283.195117 237.798438)scale(0.1 -0.1)">
       <use transform="translate(0 0.684375)" xlink:href="#DejaVuSans-50"/>
       <use transform="translate(64.580078 38.965625)scale(0.7)" xlink:href="#DejaVuSans-55"/>
      </g>
     </g>
    </g>
    <g id="text_5">
     <!-- Number of cores -->
     <defs>
      <path d="M 9.8125 72.90625 
L 23.09375 72.90625 
L 55.421875 11.921875 
L 55.421875 72.90625 
L 64.984375 72.90625 
L 64.984375 0 
L 51.703125 0 
L 19.390625 60.984375 
L 19.390625 0 
L 9.8125 0 
z
" id="DejaVuSans-78"/>
      <path d="M 8.5 21.578125 
L 8.5 54.6875 
L 17.484375 54.6875 
L 17.484375 21.921875 
Q 17.484375 14.15625 20.5 10.265625 
Q 23.53125 6.390625 29.59375 6.390625 
Q 36.859375 6.390625 41.078125 11.03125 
Q 45.3125 15.671875 45.3125 23.6875 
L 45.3125 54.6875 
L 54.296875 54.6875 
L 54.296875 0 
L 45.3125 0 
L 45.3125 8.40625 
Q 42.046875 3.421875 37.71875 1 
Q 33.40625 -1.421875 27.6875 -1.421875 
Q 18.265625 -1.421875 13.375 4.4375 
Q 8.5 10.296875 8.5 21.578125 
z
M 31.109375 56 
z
" id="DejaVuSans-117"/>
      <path d="M 52 44.1875 
Q 55.375 50.25 60.0625 53.125 
Q 64.75 56 71.09375 56 
Q 79.640625 56 84.28125 50.015625 
Q 88.921875 44.046875 88.921875 33.015625 
L 88.921875 0 
L 79.890625 0 
L 79.890625 32.71875 
Q 79.890625 40.578125 77.09375 44.375 
Q 74.3125 48.1875 68.609375 48.1875 
Q 61.625 48.1875 57.5625 43.546875 
Q 53.515625 38.921875 53.515625 30.90625 
L 53.515625 0 
L 44.484375 0 
L 44.484375 32.71875 
Q 44.484375 40.625 41.703125 44.40625 
Q 38.921875 48.1875 33.109375 48.1875 
Q 26.21875 48.1875 22.15625 43.53125 
Q 18.109375 38.875 18.109375 30.90625 
L 18.109375 0 
L 9.078125 0 
L 9.078125 54.6875 
L 18.109375 54.6875 
L 18.109375 46.1875 
Q 21.1875 51.21875 25.484375 53.609375 
Q 29.78125 56 35.6875 56 
Q 41.65625 56 45.828125 52.96875 
Q 50 49.953125 52 44.1875 
z
" id="DejaVuSans-109"/>
      <path d="M 48.6875 27.296875 
Q 48.6875 37.203125 44.609375 42.84375 
Q 40.53125 48.484375 33.40625 48.484375 
Q 26.265625 48.484375 22.1875 42.84375 
Q 18.109375 37.203125 18.109375 27.296875 
Q 18.109375 17.390625 22.1875 11.75 
Q 26.265625 6.109375 33.40625 6.109375 
Q 40.53125 6.109375 44.609375 11.75 
Q 48.6875 17.390625 48.6875 27.296875 
z
M 18.109375 46.390625 
Q 20.953125 51.265625 25.265625 53.625 
Q 29.59375 56 35.59375 56 
Q 45.5625 56 51.78125 48.09375 
Q 58.015625 40.1875 58.015625 27.296875 
Q 58.015625 14.40625 51.78125 6.484375 
Q 45.5625 -1.421875 35.59375 -1.421875 
Q 29.59375 -1.421875 25.265625 0.953125 
Q 20.953125 3.328125 18.109375 8.203125 
L 18.109375 0 
L 9.078125 0 
L 9.078125 75.984375 
L 18.109375 75.984375 
z
" id="DejaVuSans-98"/>
      <path d="M 56.203125 29.59375 
L 56.203125 25.203125 
L 14.890625 25.203125 
Q 15.484375 15.921875 20.484375 11.0625 
Q 25.484375 6.203125 34.421875 6.203125 
Q 39.59375 6.203125 44.453125 7.46875 
Q 49.3125 8.734375 54.109375 11.28125 
L 54.109375 2.78125 
Q 49.265625 0.734375 44.1875 -0.34375 
Q 39.109375 -1.421875 33.890625 -1.421875 
Q 20.796875 -1.421875 13.15625 6.1875 
Q 5.515625 13.8125 5.515625 26.8125 
Q 5.515625 40.234375 12.765625 48.109375 
Q 20.015625 56 32.328125 56 
Q 43.359375 56 49.78125 48.890625 
Q 56.203125 41.796875 56.203125 29.59375 
z
M 47.21875 32.234375 
Q 47.125 39.59375 43.09375 43.984375 
Q 39.0625 48.390625 32.421875 48.390625 
Q 24.90625 48.390625 20.390625 44.140625 
Q 15.875 39.890625 15.1875 32.171875 
z
" id="DejaVuSans-101"/>
      <path d="M 41.109375 46.296875 
Q 39.59375 47.171875 37.8125 47.578125 
Q 36.03125 48 33.890625 48 
Q 26.265625 48 22.1875 43.046875 
Q 18.109375 38.09375 18.109375 28.8125 
L 18.109375 0 
L 9.078125 0 
L 9.078125 54.6875 
L 18.109375 54.6875 
L 18.109375 46.1875 
Q 20.953125 51.171875 25.484375 53.578125 
Q 30.03125 56 36.53125 56 
Q 37.453125 56 38.578125 55.875 
Q 39.703125 55.765625 41.0625 55.515625 
z
" id="DejaVuSans-114"/>
      <path id="DejaVuSans-32"/>
      <path d="M 30.609375 48.390625 
Q 23.390625 48.390625 19.1875 42.75 
Q 14.984375 37.109375 14.984375 27.296875 
Q 14.984375 17.484375 19.15625 11.84375 
Q 23.34375 6.203125 30.609375 6.203125 
Q 37.796875 6.203125 41.984375 11.859375 
Q 46.1875 17.53125 46.1875 27.296875 
Q 46.1875 37.015625 41.984375 42.703125 
Q 37.796875 48.390625 30.609375 48.390625 
z
M 30.609375 56 
Q 42.328125 56 49.015625 48.375 
Q 55.71875 40.765625 55.71875 27.296875 
Q 55.71875 13.875 49.015625 6.21875 
Q 42.328125 -1.421875 30.609375 -1.421875 
Q 18.84375 -1.421875 12.171875 6.21875 
Q 5.515625 13.875 5.515625 27.296875 
Q 5.515625 40.765625 12.171875 48.375 
Q 18.84375 56 30.609375 56 
z
" id="DejaVuSans-111"/>
      <path d="M 37.109375 75.984375 
L 37.109375 68.5 
L 28.515625 68.5 
Q 23.6875 68.5 21.796875 66.546875 
Q 19.921875 64.59375 19.921875 59.515625 
L 19.921875 54.6875 
L 34.71875 54.6875 
L 34.71875 47.703125 
L 19.921875 47.703125 
L 19.921875 0 
L 10.890625 0 
L 10.890625 47.703125 
L 2.296875 47.703125 
L 2.296875 54.6875 
L 10.890625 54.6875 
L 10.890625 58.5 
Q 10.890625 67.625 15.140625 71.796875 
Q 19.390625 75.984375 28.609375 75.984375 
z
" id="DejaVuSans-102"/>
      <path d="M 48.78125 52.59375 
L 48.78125 44.1875 
Q 44.96875 46.296875 41.140625 47.34375 
Q 37.3125 48.390625 33.40625 48.390625 
Q 24.65625 48.390625 19.8125 42.84375 
Q 14.984375 37.3125 14.984375 27.296875 
Q 14.984375 17.28125 19.8125 11.734375 
Q 24.65625 6.203125 33.40625 6.203125 
Q 37.3125 6.203125 41.140625 7.25 
Q 44.96875 8.296875 48.78125 10.40625 
L 48.78125 2.09375 
Q 45.015625 0.34375 40.984375 -0.53125 
Q 36.96875 -1.421875 32.421875 -1.421875 
Q 20.0625 -1.421875 12.78125 6.34375 
Q 5.515625 14.109375 5.515625 27.296875 
Q 5.515625 40.671875 12.859375 48.328125 
Q 20.21875 56 33.015625 56 
Q 37.15625 56 41.109375 55.140625 
Q 45.0625 54.296875 48.78125 52.59375 
z
" id="DejaVuSans-99"/>
      <path d="M 44.28125 53.078125 
L 44.28125 44.578125 
Q 40.484375 46.53125 36.375 47.5 
Q 32.28125 48.484375 27.875 48.484375 
Q 21.1875 48.484375 17.84375 46.4375 
Q 14.5 44.390625 14.5 40.28125 
Q 14.5 37.15625 16.890625 35.375 
Q 19.28125 33.59375 26.515625 31.984375 
L 29.59375 31.296875 
Q 39.15625 29.25 43.1875 25.515625 
Q 47.21875 21.78125 47.21875 15.09375 
Q 47.21875 7.46875 41.1875 3.015625 
Q 35.15625 -1.421875 24.609375 -1.421875 
Q 20.21875 -1.421875 15.453125 -0.5625 
Q 10.6875 0.296875 5.421875 2 
L 5.421875 11.28125 
Q 10.40625 8.6875 15.234375 7.390625 
Q 20.0625 6.109375 24.8125 6.109375 
Q 31.15625 6.109375 34.5625 8.28125 
Q 37.984375 10.453125 37.984375 14.40625 
Q 37.984375 18.0625 35.515625 20.015625 
Q 33.0625 21.96875 24.703125 23.78125 
L 21.578125 24.515625 
Q 13.234375 26.265625 9.515625 29.90625 
Q 5.8125 33.546875 5.8125 39.890625 
Q 5.8125 47.609375 11.28125 51.796875 
Q 16.75 56 26.8125 56 
Q 31.78125 56 36.171875 55.265625 
Q 40.578125 54.546875 44.28125 53.078125 
z
" id="DejaVuSans-115"/>
     </defs>
     <g transform="translate(153.861719 251.476563)scale(0.1 -0.1)">
      <use xlink:href="#DejaVuSans-78"/>
      <use x="74.804688" xlink:href="#DejaVuSans-117"/>
      <use x="138.183594" xlink:href="#DejaVuSans-109"/>
      <use x="235.595703" xlink:href="#DejaVuSans-98"/>
      <use x="299.072266" xlink:href="#DejaVuSans-101"/>
      <use x="360.595703" xlink:href="#DejaVuSans-114"/>
      <use x="401.708984" xlink:href="#DejaVuSans-32"/>
      <use x="433.496094" xlink:href="#DejaVuSans-111"/>
      <use x="494.677734" xlink:href="#DejaVuSans-102"/>
      <use x="529.882812" xlink:href="#DejaVuSans-32"/>
      <use x="561.669922" xlink:href="#DejaVuSans-99"/>
      <use x="616.650391" xlink:href="#DejaVuSans-111"/>
      <use x="677.832031" xlink:href="#DejaVuSans-114"/>
      <use x="716.695312" xlink:href="#DejaVuSans-101"/>
      <use x="778.21875" xlink:href="#DejaVuSans-115"/>
     </g>
    </g>
   </g>
   <g id="matplotlib.axis_2">
    <g id="ytick_1">
     <g id="line2d_9">
      <path clip-path="url(#p515ee9f4c4)" d="M 51.378125 223.150178 
L 339.378125 223.150178 
" style="fill:none;stroke:#b0b0b0;stroke-linecap:square;stroke-width:0.8;"/>
     </g>
     <g id="line2d_10">
      <defs>
       <path d="M 0 0 
L -3.5 0 
" id="m417ecc2c2b" style="stroke:#000000;stroke-width:0.8;"/>
      </defs>
      <g>
       <use style="stroke:#000000;stroke-width:0.8;" x="51.378125" xlink:href="#m417ecc2c2b" y="223.150178"/>
      </g>
     </g>
     <g id="text_6">
      <!-- $\mathdefault{10^{-5}}$ -->
      <defs>
       <path d="M 31.78125 66.40625 
Q 24.171875 66.40625 20.328125 58.90625 
Q 16.5 51.421875 16.5 36.375 
Q 16.5 21.390625 20.328125 13.890625 
Q 24.171875 6.390625 31.78125 6.390625 
Q 39.453125 6.390625 43.28125 13.890625 
Q 47.125 21.390625 47.125 36.375 
Q 47.125 51.421875 43.28125 58.90625 
Q 39.453125 66.40625 31.78125 66.40625 
z
M 31.78125 74.21875 
Q 44.046875 74.21875 50.515625 64.515625 
Q 56.984375 54.828125 56.984375 36.375 
Q 56.984375 17.96875 50.515625 8.265625 
Q 44.046875 -1.421875 31.78125 -1.421875 
Q 19.53125 -1.421875 13.0625 8.265625 
Q 6.59375 17.96875 6.59375 36.375 
Q 6.59375 54.828125 13.0625 64.515625 
Q 19.53125 74.21875 31.78125 74.21875 
z
" id="DejaVuSans-48"/>
       <path d="M 10.59375 35.5 
L 73.1875 35.5 
L 73.1875 27.203125 
L 10.59375 27.203125 
z
" id="DejaVuSans-8722"/>
      </defs>
      <g transform="translate(20.878125 226.949397)scale(0.1 -0.1)">
       <use transform="translate(0 0.684375)" xlink:href="#DejaVuSans-49"/>
       <use transform="translate(63.623047 0.684375)" xlink:href="#DejaVuSans-48"/>
       <use transform="translate(128.203125 38.965625)scale(0.7)" xlink:href="#DejaVuSans-8722"/>
       <use transform="translate(186.855469 38.965625)scale(0.7)" xlink:href="#DejaVuSans-53"/>
      </g>
     </g>
    </g>
    <g id="ytick_2">
     <g id="line2d_11">
      <path clip-path="url(#p515ee9f4c4)" d="M 51.378125 172.3828 
L 339.378125 172.3828 
" style="fill:none;stroke:#b0b0b0;stroke-linecap:square;stroke-width:0.8;"/>
     </g>
     <g id="line2d_12">
      <g>
       <use style="stroke:#000000;stroke-width:0.8;" x="51.378125" xlink:href="#m417ecc2c2b" y="172.3828"/>
      </g>
     </g>
     <g id="text_7">
      <!-- $\mathdefault{10^{-4}}$ -->
      <defs>
       <path d="M 37.796875 64.3125 
L 12.890625 25.390625 
L 37.796875 25.390625 
z
M 35.203125 72.90625 
L 47.609375 72.90625 
L 47.609375 25.390625 
L 58.015625 25.390625 
L 58.015625 17.1875 
L 47.609375 17.1875 
L 47.609375 0 
L 37.796875 0 
L 37.796875 17.1875 
L 4.890625 17.1875 
L 4.890625 26.703125 
z
" id="DejaVuSans-52"/>
      </defs>
      <g transform="translate(20.878125 176.182018)scale(0.1 -0.1)">
       <use transform="translate(0 0.684375)" xlink:href="#DejaVuSans-49"/>
       <use transform="translate(63.623047 0.684375)" xlink:href="#DejaVuSans-48"/>
       <use transform="translate(128.203125 38.965625)scale(0.7)" xlink:href="#DejaVuSans-8722"/>
       <use transform="translate(186.855469 38.965625)scale(0.7)" xlink:href="#DejaVuSans-52"/>
      </g>
     </g>
    </g>
    <g id="ytick_3">
     <g id="line2d_13">
      <path clip-path="url(#p515ee9f4c4)" d="M 51.378125 121.615421 
L 339.378125 121.615421 
" style="fill:none;stroke:#b0b0b0;stroke-linecap:square;stroke-width:0.8;"/>
     </g>
     <g id="line2d_14">
      <g>
       <use style="stroke:#000000;stroke-width:0.8;" x="51.378125" xlink:href="#m417ecc2c2b" y="121.615421"/>
      </g>
     </g>
     <g id="text_8">
      <!-- $\mathdefault{10^{-3}}$ -->
      <g transform="translate(20.878125 125.41464)scale(0.1 -0.1)">
       <use transform="translate(0 0.765625)" xlink:href="#DejaVuSans-49"/>
       <use transform="translate(63.623047 0.765625)" xlink:href="#DejaVuSans-48"/>
       <use transform="translate(128.203125 39.046875)scale(0.7)" xlink:href="#DejaVuSans-8722"/>
       <use transform="translate(186.855469 39.046875)scale(0.7)" xlink:href="#DejaVuSans-51"/>
      </g>
     </g>
    </g>
    <g id="ytick_4">
     <g id="line2d_15">
      <path clip-path="url(#p515ee9f4c4)" d="M 51.378125 70.848042 
L 339.378125 70.848042 
" style="fill:none;stroke:#b0b0b0;stroke-linecap:square;stroke-width:0.8;"/>
     </g>
     <g id="line2d_16">
      <g>
       <use style="stroke:#000000;stroke-width:0.8;" x="51.378125" xlink:href="#m417ecc2c2b" y="70.848042"/>
      </g>
     </g>
     <g id="text_9">
      <!-- $\mathdefault{10^{-2}}$ -->
      <g transform="translate(20.878125 74.647261)scale(0.1 -0.1)">
       <use transform="translate(0 0.765625)" xlink:href="#DejaVuSans-49"/>
       <use transform="translate(63.623047 0.765625)" xlink:href="#DejaVuSans-48"/>
       <use transform="translate(128.203125 39.046875)scale(0.7)" xlink:href="#DejaVuSans-8722"/>
       <use transform="translate(186.855469 39.046875)scale(0.7)" xlink:href="#DejaVuSans-50"/>
      </g>
     </g>
    </g>
    <g id="ytick_5">
     <g id="line2d_17">
      <path clip-path="url(#p515ee9f4c4)" d="M 51.378125 20.080663 
L 339.378125 20.080663 
" style="fill:none;stroke:#b0b0b0;stroke-linecap:square;stroke-width:0.8;"/>
     </g>
     <g id="line2d_18">
      <g>
       <use style="stroke:#000000;stroke-width:0.8;" x="51.378125" xlink:href="#m417ecc2c2b" y="20.080663"/>
      </g>
     </g>
     <g id="text_10">
      <!-- $\mathdefault{10^{-1}}$ -->
      <g transform="translate(20.878125 23.879882)scale(0.1 -0.1)">
       <use transform="translate(0 0.684375)" xlink:href="#DejaVuSans-49"/>
       <use transform="translate(63.623047 0.684375)" xlink:href="#DejaVuSans-48"/>
       <use transform="translate(128.203125 38.965625)scale(0.7)" xlink:href="#DejaVuSans-8722"/>
       <use transform="translate(186.855469 38.965625)scale(0.7)" xlink:href="#DejaVuSans-49"/>
      </g>
     </g>
    </g>
    <g id="ytick_6">
     <g id="line2d_19">
      <defs>
       <path d="M 0 0 
L -2 0 
" id="m23cd31fc86" style="stroke:#000000;stroke-width:0.6;"/>
      </defs>
      <g>
       <use style="stroke:#000000;stroke-width:0.6;" x="51.378125" xlink:href="#m23cd31fc86" y="207.867675"/>
      </g>
     </g>
    </g>
    <g id="ytick_7">
     <g id="line2d_20">
      <g>
       <use style="stroke:#000000;stroke-width:0.6;" x="51.378125" xlink:href="#m23cd31fc86" y="198.927983"/>
      </g>
     </g>
    </g>
    <g id="ytick_8">
     <g id="line2d_21">
      <g>
       <use style="stroke:#000000;stroke-width:0.6;" x="51.378125" xlink:href="#m23cd31fc86" y="192.585171"/>
      </g>
     </g>
    </g>
    <g id="ytick_9">
     <g id="line2d_22">
      <g>
       <use style="stroke:#000000;stroke-width:0.6;" x="51.378125" xlink:href="#m23cd31fc86" y="187.665303"/>
      </g>
     </g>
    </g>
    <g id="ytick_10">
     <g id="line2d_23">
      <g>
       <use style="stroke:#000000;stroke-width:0.6;" x="51.378125" xlink:href="#m23cd31fc86" y="183.645479"/>
      </g>
     </g>
    </g>
    <g id="ytick_11">
     <g id="line2d_24">
      <g>
       <use style="stroke:#000000;stroke-width:0.6;" x="51.378125" xlink:href="#m23cd31fc86" y="180.246766"/>
      </g>
     </g>
    </g>
    <g id="ytick_12">
     <g id="line2d_25">
      <g>
       <use style="stroke:#000000;stroke-width:0.6;" x="51.378125" xlink:href="#m23cd31fc86" y="177.302667"/>
      </g>
     </g>
    </g>
    <g id="ytick_13">
     <g id="line2d_26">
      <g>
       <use style="stroke:#000000;stroke-width:0.6;" x="51.378125" xlink:href="#m23cd31fc86" y="174.705787"/>
      </g>
     </g>
    </g>
    <g id="ytick_14">
     <g id="line2d_27">
      <g>
       <use style="stroke:#000000;stroke-width:0.6;" x="51.378125" xlink:href="#m23cd31fc86" y="157.100296"/>
      </g>
     </g>
    </g>
    <g id="ytick_15">
     <g id="line2d_28">
      <g>
       <use style="stroke:#000000;stroke-width:0.6;" x="51.378125" xlink:href="#m23cd31fc86" y="148.160604"/>
      </g>
     </g>
    </g>
    <g id="ytick_16">
     <g id="line2d_29">
      <g>
       <use style="stroke:#000000;stroke-width:0.6;" x="51.378125" xlink:href="#m23cd31fc86" y="141.817792"/>
      </g>
     </g>
    </g>
    <g id="ytick_17">
     <g id="line2d_30">
      <g>
       <use style="stroke:#000000;stroke-width:0.6;" x="51.378125" xlink:href="#m23cd31fc86" y="136.897925"/>
      </g>
     </g>
    </g>
    <g id="ytick_18">
     <g id="line2d_31">
      <g>
       <use style="stroke:#000000;stroke-width:0.6;" x="51.378125" xlink:href="#m23cd31fc86" y="132.8781"/>
      </g>
     </g>
    </g>
    <g id="ytick_19">
     <g id="line2d_32">
      <g>
       <use style="stroke:#000000;stroke-width:0.6;" x="51.378125" xlink:href="#m23cd31fc86" y="129.479387"/>
      </g>
     </g>
    </g>
    <g id="ytick_20">
     <g id="line2d_33">
      <g>
       <use style="stroke:#000000;stroke-width:0.6;" x="51.378125" xlink:href="#m23cd31fc86" y="126.535288"/>
      </g>
     </g>
    </g>
    <g id="ytick_21">
     <g id="line2d_34">
      <g>
       <use style="stroke:#000000;stroke-width:0.6;" x="51.378125" xlink:href="#m23cd31fc86" y="123.938409"/>
      </g>
     </g>
    </g>
    <g id="ytick_22">
     <g id="line2d_35">
      <g>
       <use style="stroke:#000000;stroke-width:0.6;" x="51.378125" xlink:href="#m23cd31fc86" y="106.332917"/>
      </g>
     </g>
    </g>
    <g id="ytick_23">
     <g id="line2d_36">
      <g>
       <use style="stroke:#000000;stroke-width:0.6;" x="51.378125" xlink:href="#m23cd31fc86" y="97.393225"/>
      </g>
     </g>
    </g>
    <g id="ytick_24">
     <g id="line2d_37">
      <g>
       <use style="stroke:#000000;stroke-width:0.6;" x="51.378125" xlink:href="#m23cd31fc86" y="91.050413"/>
      </g>
     </g>
    </g>
    <g id="ytick_25">
     <g id="line2d_38">
      <g>
       <use style="stroke:#000000;stroke-width:0.6;" x="51.378125" xlink:href="#m23cd31fc86" y="86.130546"/>
      </g>
     </g>
    </g>
    <g id="ytick_26">
     <g id="line2d_39">
      <g>
       <use style="stroke:#000000;stroke-width:0.6;" x="51.378125" xlink:href="#m23cd31fc86" y="82.110722"/>
      </g>
     </g>
    </g>
    <g id="ytick_27">
     <g id="line2d_40">
      <g>
       <use style="stroke:#000000;stroke-width:0.6;" x="51.378125" xlink:href="#m23cd31fc86" y="78.712009"/>
      </g>
     </g>
    </g>
    <g id="ytick_28">
     <g id="line2d_41">
      <g>
       <use style="stroke:#000000;stroke-width:0.6;" x="51.378125" xlink:href="#m23cd31fc86" y="75.76791"/>
      </g>
     </g>
    </g>
    <g id="ytick_29">
     <g id="line2d_42">
      <g>
       <use style="stroke:#000000;stroke-width:0.6;" x="51.378125" xlink:href="#m23cd31fc86" y="73.17103"/>
      </g>
     </g>
    </g>
    <g id="ytick_30">
     <g id="line2d_43">
      <g>
       <use style="stroke:#000000;stroke-width:0.6;" x="51.378125" xlink:href="#m23cd31fc86" y="55.565538"/>
      </g>
     </g>
    </g>
    <g id="ytick_31">
     <g id="line2d_44">
      <g>
       <use style="stroke:#000000;stroke-width:0.6;" x="51.378125" xlink:href="#m23cd31fc86" y="46.625847"/>
      </g>
     </g>
    </g>
    <g id="ytick_32">
     <g id="line2d_45">
      <g>
       <use style="stroke:#000000;stroke-width:0.6;" x="51.378125" xlink:href="#m23cd31fc86" y="40.283035"/>
      </g>
     </g>
    </g>
    <g id="ytick_33">
     <g id="line2d_46">
      <g>
       <use style="stroke:#000000;stroke-width:0.6;" x="51.378125" xlink:href="#m23cd31fc86" y="35.363167"/>
      </g>
     </g>
    </g>
    <g id="ytick_34">
     <g id="line2d_47">
      <g>
       <use style="stroke:#000000;stroke-width:0.6;" x="51.378125" xlink:href="#m23cd31fc86" y="31.343343"/>
      </g>
     </g>
    </g>
    <g id="ytick_35">
     <g id="line2d_48">
      <g>
       <use style="stroke:#000000;stroke-width:0.6;" x="51.378125" xlink:href="#m23cd31fc86" y="27.94463"/>
      </g>
     </g>
    </g>
    <g id="ytick_36">
     <g id="line2d_49">
      <g>
       <use style="stroke:#000000;stroke-width:0.6;" x="51.378125" xlink:href="#m23cd31fc86" y="25.000531"/>
      </g>
     </g>
    </g>
    <g id="ytick_37">
     <g id="line2d_50">
      <g>
       <use style="stroke:#000000;stroke-width:0.6;" x="51.378125" xlink:href="#m23cd31fc86" y="22.403651"/>
      </g>
     </g>
    </g>
    <g id="text_11">
     <!-- Iteration time [ms] -->
     <defs>
      <path d="M 9.8125 72.90625 
L 19.671875 72.90625 
L 19.671875 0 
L 9.8125 0 
z
" id="DejaVuSans-73"/>
      <path d="M 18.3125 70.21875 
L 18.3125 54.6875 
L 36.8125 54.6875 
L 36.8125 47.703125 
L 18.3125 47.703125 
L 18.3125 18.015625 
Q 18.3125 11.328125 20.140625 9.421875 
Q 21.96875 7.515625 27.59375 7.515625 
L 36.8125 7.515625 
L 36.8125 0 
L 27.59375 0 
Q 17.1875 0 13.234375 3.875 
Q 9.28125 7.765625 9.28125 18.015625 
L 9.28125 47.703125 
L 2.6875 47.703125 
L 2.6875 54.6875 
L 9.28125 54.6875 
L 9.28125 70.21875 
z
" id="DejaVuSans-116"/>
      <path d="M 34.28125 27.484375 
Q 23.390625 27.484375 19.1875 25 
Q 14.984375 22.515625 14.984375 16.5 
Q 14.984375 11.71875 18.140625 8.90625 
Q 21.296875 6.109375 26.703125 6.109375 
Q 34.1875 6.109375 38.703125 11.40625 
Q 43.21875 16.703125 43.21875 25.484375 
L 43.21875 27.484375 
z
M 52.203125 31.203125 
L 52.203125 0 
L 43.21875 0 
L 43.21875 8.296875 
Q 40.140625 3.328125 35.546875 0.953125 
Q 30.953125 -1.421875 24.3125 -1.421875 
Q 15.921875 -1.421875 10.953125 3.296875 
Q 6 8.015625 6 15.921875 
Q 6 25.140625 12.171875 29.828125 
Q 18.359375 34.515625 30.609375 34.515625 
L 43.21875 34.515625 
L 43.21875 35.40625 
Q 43.21875 41.609375 39.140625 45 
Q 35.0625 48.390625 27.6875 48.390625 
Q 23 48.390625 18.546875 47.265625 
Q 14.109375 46.140625 10.015625 43.890625 
L 10.015625 52.203125 
Q 14.9375 54.109375 19.578125 55.046875 
Q 24.21875 56 28.609375 56 
Q 40.484375 56 46.34375 49.84375 
Q 52.203125 43.703125 52.203125 31.203125 
z
" id="DejaVuSans-97"/>
      <path d="M 9.421875 54.6875 
L 18.40625 54.6875 
L 18.40625 0 
L 9.421875 0 
z
M 9.421875 75.984375 
L 18.40625 75.984375 
L 18.40625 64.59375 
L 9.421875 64.59375 
z
" id="DejaVuSans-105"/>
      <path d="M 54.890625 33.015625 
L 54.890625 0 
L 45.90625 0 
L 45.90625 32.71875 
Q 45.90625 40.484375 42.875 44.328125 
Q 39.84375 48.1875 33.796875 48.1875 
Q 26.515625 48.1875 22.3125 43.546875 
Q 18.109375 38.921875 18.109375 30.90625 
L 18.109375 0 
L 9.078125 0 
L 9.078125 54.6875 
L 18.109375 54.6875 
L 18.109375 46.1875 
Q 21.34375 51.125 25.703125 53.5625 
Q 30.078125 56 35.796875 56 
Q 45.21875 56 50.046875 50.171875 
Q 54.890625 44.34375 54.890625 33.015625 
z
" id="DejaVuSans-110"/>
      <path d="M 8.59375 75.984375 
L 29.296875 75.984375 
L 29.296875 69 
L 17.578125 69 
L 17.578125 -6.203125 
L 29.296875 -6.203125 
L 29.296875 -13.1875 
L 8.59375 -13.1875 
z
" id="DejaVuSans-91"/>
      <path d="M 30.421875 75.984375 
L 30.421875 -13.1875 
L 9.71875 -13.1875 
L 9.71875 -6.203125 
L 21.390625 -6.203125 
L 21.390625 69 
L 9.71875 69 
L 9.71875 75.984375 
z
" id="DejaVuSans-93"/>
     </defs>
     <g transform="translate(14.798438 162.259375)rotate(-90)scale(0.1 -0.1)">
      <use xlink:href="#DejaVuSans-73"/>
      <use x="29.492188" xlink:href="#DejaVuSans-116"/>
      <use x="68.701172" xlink:href="#DejaVuSans-101"/>
      <use x="130.224609" xlink:href="#DejaVuSans-114"/>
      <use x="171.337891" xlink:href="#DejaVuSans-97"/>
      <use x="232.617188" xlink:href="#DejaVuSans-116"/>
      <use x="271.826172" xlink:href="#DejaVuSans-105"/>
      <use x="299.609375" xlink:href="#DejaVuSans-111"/>
      <use x="360.791016" xlink:href="#DejaVuSans-110"/>
      <use x="424.169922" xlink:href="#DejaVuSans-32"/>
      <use x="455.957031" xlink:href="#DejaVuSans-116"/>
      <use x="495.166016" xlink:href="#DejaVuSans-105"/>
      <use x="522.949219" xlink:href="#DejaVuSans-109"/>
      <use x="620.361328" xlink:href="#DejaVuSans-101"/>
      <use x="681.884766" xlink:href="#DejaVuSans-32"/>
      <use x="713.671875" xlink:href="#DejaVuSans-91"/>
      <use x="752.685547" xlink:href="#DejaVuSans-109"/>
      <use x="850.097656" xlink:href="#DejaVuSans-115"/>
      <use x="902.197266" xlink:href="#DejaVuSans-93"/>
     </g>
    </g>
   </g>
   <g id="line2d_51">
    <path clip-path="url(#p515ee9f4c4)" d="M 64.469034 145.190357 
L 198.100883 162.335489 
L 230.147466 176.611523 
L 262.194049 190.167212 
L 294.240633 201.613231 
L 326.287216 213.381818 
" style="fill:none;stroke:#1f77b4;stroke-linecap:square;stroke-width:1.5;"/>
    <defs>
     <path d="M 0 3 
C 0.795609 3 1.55874 2.683901 2.12132 2.12132 
C 2.683901 1.55874 3 0.795609 3 0 
C 3 -0.795609 2.683901 -1.55874 2.12132 -2.12132 
C 1.55874 -2.683901 0.795609 -3 0 -3 
C -0.795609 -3 -1.55874 -2.683901 -2.12132 -2.12132 
C -2.683901 -1.55874 -3 -0.795609 -3 0 
C -3 0.795609 -2.683901 1.55874 -2.12132 2.12132 
C -1.55874 2.683901 -0.795609 3 0 3 
z
" id="m0146ff8947" style="stroke:#1f77b4;"/>
    </defs>
    <g clip-path="url(#p515ee9f4c4)">
     <use style="fill:#1f77b4;stroke:#1f77b4;" x="64.469034" xlink:href="#m0146ff8947" y="145.190357"/>
     <use style="fill:#1f77b4;stroke:#1f77b4;" x="198.100883" xlink:href="#m0146ff8947" y="162.335489"/>
     <use style="fill:#1f77b4;stroke:#1f77b4;" x="230.147466" xlink:href="#m0146ff8947" y="176.611523"/>
     <use style="fill:#1f77b4;stroke:#1f77b4;" x="262.194049" xlink:href="#m0146ff8947" y="190.167212"/>
     <use style="fill:#1f77b4;stroke:#1f77b4;" x="294.240633" xlink:href="#m0146ff8947" y="201.613231"/>
     <use style="fill:#1f77b4;stroke:#1f77b4;" x="326.287216" xlink:href="#m0146ff8947" y="213.381818"/>
    </g>
   </g>
   <g id="line2d_52">
    <path clip-path="url(#p515ee9f4c4)" d="M 64.469034 144.203461 
L 198.100883 160.794941 
L 230.147466 174.77729 
L 262.194049 186.971975 
L 294.240633 196.467471 
L 326.287216 204.822854 
" style="fill:none;stroke:#ff7f0e;stroke-linecap:square;stroke-width:1.5;"/>
    <defs>
     <path d="M 0 3 
C 0.795609 3 1.55874 2.683901 2.12132 2.12132 
C 2.683901 1.55874 3 0.795609 3 0 
C 3 -0.795609 2.683901 -1.55874 2.12132 -2.12132 
C 1.55874 -2.683901 0.795609 -3 0 -3 
C -0.795609 -3 -1.55874 -2.683901 -2.12132 -2.12132 
C -2.683901 -1.55874 -3 -0.795609 -3 0 
C -3 0.795609 -2.683901 1.55874 -2.12132 2.12132 
C -1.55874 2.683901 -0.795609 3 0 3 
z
" id="m335de83ac9" style="stroke:#ff7f0e;"/>
    </defs>
    <g clip-path="url(#p515ee9f4c4)">
     <use style="fill:#ff7f0e;stroke:#ff7f0e;" x="64.469034" xlink:href="#m335de83ac9" y="144.203461"/>
     <use style="fill:#ff7f0e;stroke:#ff7f0e;" x="198.100883" xlink:href="#m335de83ac9" y="160.794941"/>
     <use style="fill:#ff7f0e;stroke:#ff7f0e;" x="230.147466" xlink:href="#m335de83ac9" y="174.77729"/>
     <use style="fill:#ff7f0e;stroke:#ff7f0e;" x="262.194049" xlink:href="#m335de83ac9" y="186.971975"/>
     <use style="fill:#ff7f0e;stroke:#ff7f0e;" x="294.240633" xlink:href="#m335de83ac9" y="196.467471"/>
     <use style="fill:#ff7f0e;stroke:#ff7f0e;" x="326.287216" xlink:href="#m335de83ac9" y="204.822854"/>
    </g>
   </g>
   <g id="line2d_53">
    <path clip-path="url(#p515ee9f4c4)" d="M 64.469034 144.223246 
L 198.100883 159.604699 
L 230.147466 172.643398 
L 262.194049 183.398642 
L 294.240633 191.2698 
L 326.287216 196.589479 
" style="fill:none;stroke:#2ca02c;stroke-linecap:square;stroke-width:1.5;"/>
    <defs>
     <path d="M 0 3 
C 0.795609 3 1.55874 2.683901 2.12132 2.12132 
C 2.683901 1.55874 3 0.795609 3 0 
C 3 -0.795609 2.683901 -1.55874 2.12132 -2.12132 
C 1.55874 -2.683901 0.795609 -3 0 -3 
C -0.795609 -3 -1.55874 -2.683901 -2.12132 -2.12132 
C -2.683901 -1.55874 -3 -0.795609 -3 0 
C -3 0.795609 -2.683901 1.55874 -2.12132 2.12132 
C -1.55874 2.683901 -0.795609 3 0 3 
z
" id="m8c1663b112" style="stroke:#2ca02c;"/>
    </defs>
    <g clip-path="url(#p515ee9f4c4)">
     <use style="fill:#2ca02c;stroke:#2ca02c;" x="64.469034" xlink:href="#m8c1663b112" y="144.223246"/>
     <use style="fill:#2ca02c;stroke:#2ca02c;" x="198.100883" xlink:href="#m8c1663b112" y="159.604699"/>
     <use style="fill:#2ca02c;stroke:#2ca02c;" x="230.147466" xlink:href="#m8c1663b112" y="172.643398"/>
     <use style="fill:#2ca02c;stroke:#2ca02c;" x="262.194049" xlink:href="#m8c1663b112" y="183.398642"/>
     <use style="fill:#2ca02c;stroke:#2ca02c;" x="294.240633" xlink:href="#m8c1663b112" y="191.2698"/>
     <use style="fill:#2ca02c;stroke:#2ca02c;" x="326.287216" xlink:href="#m8c1663b112" y="196.589479"/>
    </g>
   </g>
   <g id="line2d_54">
    <path clip-path="url(#p515ee9f4c4)" d="M 64.469034 114.284778 
L 198.100883 131.820791 
L 230.147466 147.026372 
L 262.194049 161.98175 
L 294.240633 175.373463 
L 326.287216 189.355139 
" style="fill:none;stroke:#d62728;stroke-linecap:square;stroke-width:1.5;"/>
    <defs>
     <path d="M -0 3 
L 3 -3 
L -3 -3 
z
" id="mb2e92a1afd" style="stroke:#d62728;stroke-linejoin:miter;"/>
    </defs>
    <g clip-path="url(#p515ee9f4c4)">
     <use style="fill:#d62728;stroke:#d62728;stroke-linejoin:miter;" x="64.469034" xlink:href="#mb2e92a1afd" y="114.284778"/>
     <use style="fill:#d62728;stroke:#d62728;stroke-linejoin:miter;" x="198.100883" xlink:href="#mb2e92a1afd" y="131.820791"/>
     <use style="fill:#d62728;stroke:#d62728;stroke-linejoin:miter;" x="230.147466" xlink:href="#mb2e92a1afd" y="147.026372"/>
     <use style="fill:#d62728;stroke:#d62728;stroke-linejoin:miter;" x="262.194049" xlink:href="#mb2e92a1afd" y="161.98175"/>
     <use style="fill:#d62728;stroke:#d62728;stroke-linejoin:miter;" x="294.240633" xlink:href="#mb2e92a1afd" y="175.373463"/>
     <use style="fill:#d62728;stroke:#d62728;stroke-linejoin:miter;" x="326.287216" xlink:href="#mb2e92a1afd" y="189.355139"/>
    </g>
   </g>
   <g id="line2d_55">
    <path clip-path="url(#p515ee9f4c4)" d="M 64.469034 113.393256 
L 198.100883 131.09762 
L 230.147466 145.696411 
L 262.194049 159.333072 
L 294.240633 171.153068 
L 326.287216 180.765113 
" style="fill:none;stroke:#9467bd;stroke-linecap:square;stroke-width:1.5;"/>
    <defs>
     <path d="M -0 3 
L 3 -3 
L -3 -3 
z
" id="m532d69c9cb" style="stroke:#9467bd;stroke-linejoin:miter;"/>
    </defs>
    <g clip-path="url(#p515ee9f4c4)">
     <use style="fill:#9467bd;stroke:#9467bd;stroke-linejoin:miter;" x="64.469034" xlink:href="#m532d69c9cb" y="113.393256"/>
     <use style="fill:#9467bd;stroke:#9467bd;stroke-linejoin:miter;" x="198.100883" xlink:href="#m532d69c9cb" y="131.09762"/>
     <use style="fill:#9467bd;stroke:#9467bd;stroke-linejoin:miter;" x="230.147466" xlink:href="#m532d69c9cb" y="145.696411"/>
     <use style="fill:#9467bd;stroke:#9467bd;stroke-linejoin:miter;" x="262.194049" xlink:href="#m532d69c9cb" y="159.333072"/>
     <use style="fill:#9467bd;stroke:#9467bd;stroke-linejoin:miter;" x="294.240633" xlink:href="#m532d69c9cb" y="171.153068"/>
     <use style="fill:#9467bd;stroke:#9467bd;stroke-linejoin:miter;" x="326.287216" xlink:href="#m532d69c9cb" y="180.765113"/>
    </g>
   </g>
   <g id="line2d_56">
    <path clip-path="url(#p515ee9f4c4)" d="M 64.469034 113.408446 
L 198.100883 130.575318 
L 230.147466 144.522993 
L 262.194049 157.882719 
L 294.240633 168.791912 
L 326.287216 177.624647 
" style="fill:none;stroke:#8c564b;stroke-linecap:square;stroke-width:1.5;"/>
    <defs>
     <path d="M -0 3 
L 3 -3 
L -3 -3 
z
" id="m31ba9a72ff" style="stroke:#8c564b;stroke-linejoin:miter;"/>
    </defs>
    <g clip-path="url(#p515ee9f4c4)">
     <use style="fill:#8c564b;stroke:#8c564b;stroke-linejoin:miter;" x="64.469034" xlink:href="#m31ba9a72ff" y="113.408446"/>
     <use style="fill:#8c564b;stroke:#8c564b;stroke-linejoin:miter;" x="198.100883" xlink:href="#m31ba9a72ff" y="130.575318"/>
     <use style="fill:#8c564b;stroke:#8c564b;stroke-linejoin:miter;" x="230.147466" xlink:href="#m31ba9a72ff" y="144.522993"/>
     <use style="fill:#8c564b;stroke:#8c564b;stroke-linejoin:miter;" x="262.194049" xlink:href="#m31ba9a72ff" y="157.882719"/>
     <use style="fill:#8c564b;stroke:#8c564b;stroke-linejoin:miter;" x="294.240633" xlink:href="#m31ba9a72ff" y="168.791912"/>
     <use style="fill:#8c564b;stroke:#8c564b;stroke-linejoin:miter;" x="326.287216" xlink:href="#m31ba9a72ff" y="177.624647"/>
    </g>
   </g>
   <g id="line2d_57">
    <path clip-path="url(#p515ee9f4c4)" d="M 64.469034 79.07352 
L 198.100883 101.596723 
L 230.147466 116.225769 
L 262.194049 131.420045 
L 294.240633 146.491822 
L 326.287216 161.701269 
" style="fill:none;stroke:#e377c2;stroke-linecap:square;stroke-width:1.5;"/>
    <defs>
     <path d="M -3 3 
L 3 3 
L 3 -3 
L -3 -3 
z
" id="m9d656918b0" style="stroke:#e377c2;stroke-linejoin:miter;"/>
    </defs>
    <g clip-path="url(#p515ee9f4c4)">
     <use style="fill:#e377c2;stroke:#e377c2;stroke-linejoin:miter;" x="64.469034" xlink:href="#m9d656918b0" y="79.07352"/>
     <use style="fill:#e377c2;stroke:#e377c2;stroke-linejoin:miter;" x="198.100883" xlink:href="#m9d656918b0" y="101.596723"/>
     <use style="fill:#e377c2;stroke:#e377c2;stroke-linejoin:miter;" x="230.147466" xlink:href="#m9d656918b0" y="116.225769"/>
     <use style="fill:#e377c2;stroke:#e377c2;stroke-linejoin:miter;" x="262.194049" xlink:href="#m9d656918b0" y="131.420045"/>
     <use style="fill:#e377c2;stroke:#e377c2;stroke-linejoin:miter;" x="294.240633" xlink:href="#m9d656918b0" y="146.491822"/>
     <use style="fill:#e377c2;stroke:#e377c2;stroke-linejoin:miter;" x="326.287216" xlink:href="#m9d656918b0" y="161.701269"/>
    </g>
   </g>
   <g id="line2d_58">
    <path clip-path="url(#p515ee9f4c4)" d="M 64.469034 78.476008 
L 198.100883 100.919019 
L 230.147466 114.586781 
L 262.194049 129.391246 
L 294.240633 142.743975 
L 326.287216 154.176504 
" style="fill:none;stroke:#7f7f7f;stroke-linecap:square;stroke-width:1.5;"/>
    <defs>
     <path d="M -3 3 
L 3 3 
L 3 -3 
L -3 -3 
z
" id="ma58510aa3e" style="stroke:#7f7f7f;stroke-linejoin:miter;"/>
    </defs>
    <g clip-path="url(#p515ee9f4c4)">
     <use style="fill:#7f7f7f;stroke:#7f7f7f;stroke-linejoin:miter;" x="64.469034" xlink:href="#ma58510aa3e" y="78.476008"/>
     <use style="fill:#7f7f7f;stroke:#7f7f7f;stroke-linejoin:miter;" x="198.100883" xlink:href="#ma58510aa3e" y="100.919019"/>
     <use style="fill:#7f7f7f;stroke:#7f7f7f;stroke-linejoin:miter;" x="230.147466" xlink:href="#ma58510aa3e" y="114.586781"/>
     <use style="fill:#7f7f7f;stroke:#7f7f7f;stroke-linejoin:miter;" x="262.194049" xlink:href="#ma58510aa3e" y="129.391246"/>
     <use style="fill:#7f7f7f;stroke:#7f7f7f;stroke-linejoin:miter;" x="294.240633" xlink:href="#ma58510aa3e" y="142.743975"/>
     <use style="fill:#7f7f7f;stroke:#7f7f7f;stroke-linejoin:miter;" x="326.287216" xlink:href="#ma58510aa3e" y="154.176504"/>
    </g>
   </g>
   <g id="line2d_59">
    <path clip-path="url(#p515ee9f4c4)" d="M 64.469034 78.372979 
L 198.100883 100.636425 
L 230.147466 114.77238 
L 262.194049 128.70977 
L 294.240633 141.123256 
L 326.287216 151.838353 
" style="fill:none;stroke:#bcbd22;stroke-linecap:square;stroke-width:1.5;"/>
    <defs>
     <path d="M -3 3 
L 3 3 
L 3 -3 
L -3 -3 
z
" id="mde4d406f98" style="stroke:#bcbd22;stroke-linejoin:miter;"/>
    </defs>
    <g clip-path="url(#p515ee9f4c4)">
     <use style="fill:#bcbd22;stroke:#bcbd22;stroke-linejoin:miter;" x="64.469034" xlink:href="#mde4d406f98" y="78.372979"/>
     <use style="fill:#bcbd22;stroke:#bcbd22;stroke-linejoin:miter;" x="198.100883" xlink:href="#mde4d406f98" y="100.636425"/>
     <use style="fill:#bcbd22;stroke:#bcbd22;stroke-linejoin:miter;" x="230.147466" xlink:href="#mde4d406f98" y="114.77238"/>
     <use style="fill:#bcbd22;stroke:#bcbd22;stroke-linejoin:miter;" x="262.194049" xlink:href="#mde4d406f98" y="128.70977"/>
     <use style="fill:#bcbd22;stroke:#bcbd22;stroke-linejoin:miter;" x="294.240633" xlink:href="#mde4d406f98" y="141.123256"/>
     <use style="fill:#bcbd22;stroke:#bcbd22;stroke-linejoin:miter;" x="326.287216" xlink:href="#mde4d406f98" y="151.838353"/>
    </g>
   </g>
   <g id="line2d_60">
    <path clip-path="url(#p515ee9f4c4)" d="M 64.469034 48.276994 
L 198.100883 71.532953 
L 230.147466 86.153576 
L 262.194049 100.578776 
L 294.240633 115.674491 
L 326.287216 131.153619 
" style="fill:none;stroke:#17becf;stroke-linecap:square;stroke-width:1.5;"/>
    <defs>
     <path d="M -1.5 3 
L 0 1.5 
L 1.5 3 
L 3 1.5 
L 1.5 0 
L 3 -1.5 
L 1.5 -3 
L 0 -1.5 
L -1.5 -3 
L -3 -1.5 
L -1.5 0 
L -3 1.5 
z
" id="m0809514415" style="stroke:#17becf;stroke-linejoin:miter;"/>
    </defs>
    <g clip-path="url(#p515ee9f4c4)">
     <use style="fill:#17becf;stroke:#17becf;stroke-linejoin:miter;" x="64.469034" xlink:href="#m0809514415" y="48.276994"/>
     <use style="fill:#17becf;stroke:#17becf;stroke-linejoin:miter;" x="198.100883" xlink:href="#m0809514415" y="71.532953"/>
     <use style="fill:#17becf;stroke:#17becf;stroke-linejoin:miter;" x="230.147466" xlink:href="#m0809514415" y="86.153576"/>
     <use style="fill:#17becf;stroke:#17becf;stroke-linejoin:miter;" x="262.194049" xlink:href="#m0809514415" y="100.578776"/>
     <use style="fill:#17becf;stroke:#17becf;stroke-linejoin:miter;" x="294.240633" xlink:href="#m0809514415" y="115.674491"/>
     <use style="fill:#17becf;stroke:#17becf;stroke-linejoin:miter;" x="326.287216" xlink:href="#m0809514415" y="131.153619"/>
    </g>
   </g>
   <g id="line2d_61">
    <path clip-path="url(#p515ee9f4c4)" d="M 64.469034 47.521603 
L 198.100883 70.760685 
L 230.147466 84.016885 
L 262.194049 97.63041 
L 294.240633 111.224966 
L 326.287216 122.60803 
" style="fill:none;stroke:#1f77b4;stroke-linecap:square;stroke-width:1.5;"/>
    <defs>
     <path d="M -1.5 3 
L 0 1.5 
L 1.5 3 
L 3 1.5 
L 1.5 0 
L 3 -1.5 
L 1.5 -3 
L 0 -1.5 
L -1.5 -3 
L -3 -1.5 
L -1.5 0 
L -3 1.5 
z
" id="mb8495f2c1e" style="stroke:#1f77b4;stroke-linejoin:miter;"/>
    </defs>
    <g clip-path="url(#p515ee9f4c4)">
     <use style="fill:#1f77b4;stroke:#1f77b4;stroke-linejoin:miter;" x="64.469034" xlink:href="#mb8495f2c1e" y="47.521603"/>
     <use style="fill:#1f77b4;stroke:#1f77b4;stroke-linejoin:miter;" x="198.100883" xlink:href="#mb8495f2c1e" y="70.760685"/>
     <use style="fill:#1f77b4;stroke:#1f77b4;stroke-linejoin:miter;" x="230.147466" xlink:href="#mb8495f2c1e" y="84.016885"/>
     <use style="fill:#1f77b4;stroke:#1f77b4;stroke-linejoin:miter;" x="262.194049" xlink:href="#mb8495f2c1e" y="97.63041"/>
     <use style="fill:#1f77b4;stroke:#1f77b4;stroke-linejoin:miter;" x="294.240633" xlink:href="#mb8495f2c1e" y="111.224966"/>
     <use style="fill:#1f77b4;stroke:#1f77b4;stroke-linejoin:miter;" x="326.287216" xlink:href="#mb8495f2c1e" y="122.60803"/>
    </g>
   </g>
   <g id="line2d_62">
    <path clip-path="url(#p515ee9f4c4)" d="M 64.469034 47.542968 
L 198.100883 70.954593 
L 230.147466 84.513266 
L 262.194049 97.108594 
L 294.240633 110.778246 
L 326.287216 121.949072 
" style="fill:none;stroke:#ff7f0e;stroke-linecap:square;stroke-width:1.5;"/>
    <defs>
     <path d="M -1.5 3 
L 0 1.5 
L 1.5 3 
L 3 1.5 
L 1.5 0 
L 3 -1.5 
L 1.5 -3 
L 0 -1.5 
L -1.5 -3 
L -3 -1.5 
L -1.5 0 
L -3 1.5 
z
" id="m410f5c5128" style="stroke:#ff7f0e;stroke-linejoin:miter;"/>
    </defs>
    <g clip-path="url(#p515ee9f4c4)">
     <use style="fill:#ff7f0e;stroke:#ff7f0e;stroke-linejoin:miter;" x="64.469034" xlink:href="#m410f5c5128" y="47.542968"/>
     <use style="fill:#ff7f0e;stroke:#ff7f0e;stroke-linejoin:miter;" x="198.100883" xlink:href="#m410f5c5128" y="70.954593"/>
     <use style="fill:#ff7f0e;stroke:#ff7f0e;stroke-linejoin:miter;" x="230.147466" xlink:href="#m410f5c5128" y="84.513266"/>
     <use style="fill:#ff7f0e;stroke:#ff7f0e;stroke-linejoin:miter;" x="262.194049" xlink:href="#m410f5c5128" y="97.108594"/>
     <use style="fill:#ff7f0e;stroke:#ff7f0e;stroke-linejoin:miter;" x="294.240633" xlink:href="#m410f5c5128" y="110.778246"/>
     <use style="fill:#ff7f0e;stroke:#ff7f0e;stroke-linejoin:miter;" x="326.287216" xlink:href="#m410f5c5128" y="121.949072"/>
    </g>
   </g>
   <g id="line2d_63">
    <path clip-path="url(#p515ee9f4c4)" d="M 64.469034 17.640143 
L 198.100883 41.048103 
L 230.147466 55.605702 
L 262.194049 70.470741 
L 294.240633 85.138004 
L 326.287216 99.56866 
" style="fill:none;stroke:#2ca02c;stroke-linecap:square;stroke-width:1.5;"/>
    <defs>
     <path d="M -0 4.242641 
L 2.545584 0 
L 0 -4.242641 
L -2.545584 -0 
z
" id="m5a0c048de0" style="stroke:#2ca02c;stroke-linejoin:miter;"/>
    </defs>
    <g clip-path="url(#p515ee9f4c4)">
     <use style="fill:#2ca02c;stroke:#2ca02c;stroke-linejoin:miter;" x="64.469034" xlink:href="#m5a0c048de0" y="17.640143"/>
     <use style="fill:#2ca02c;stroke:#2ca02c;stroke-linejoin:miter;" x="198.100883" xlink:href="#m5a0c048de0" y="41.048103"/>
     <use style="fill:#2ca02c;stroke:#2ca02c;stroke-linejoin:miter;" x="230.147466" xlink:href="#m5a0c048de0" y="55.605702"/>
     <use style="fill:#2ca02c;stroke:#2ca02c;stroke-linejoin:miter;" x="262.194049" xlink:href="#m5a0c048de0" y="70.470741"/>
     <use style="fill:#2ca02c;stroke:#2ca02c;stroke-linejoin:miter;" x="294.240633" xlink:href="#m5a0c048de0" y="85.138004"/>
     <use style="fill:#2ca02c;stroke:#2ca02c;stroke-linejoin:miter;" x="326.287216" xlink:href="#m5a0c048de0" y="99.56866"/>
    </g>
   </g>
   <g id="line2d_64">
    <path clip-path="url(#p515ee9f4c4)" d="M 64.469034 17.018566 
L 198.100883 40.16786 
L 230.147466 54.268973 
L 262.194049 67.830316 
L 294.240633 80.691911 
L 326.287216 90.94714 
" style="fill:none;stroke:#d62728;stroke-linecap:square;stroke-width:1.5;"/>
    <defs>
     <path d="M -0 4.242641 
L 2.545584 0 
L 0 -4.242641 
L -2.545584 -0 
z
" id="m3f03972b5d" style="stroke:#d62728;stroke-linejoin:miter;"/>
    </defs>
    <g clip-path="url(#p515ee9f4c4)">
     <use style="fill:#d62728;stroke:#d62728;stroke-linejoin:miter;" x="64.469034" xlink:href="#m3f03972b5d" y="17.018566"/>
     <use style="fill:#d62728;stroke:#d62728;stroke-linejoin:miter;" x="198.100883" xlink:href="#m3f03972b5d" y="40.16786"/>
     <use style="fill:#d62728;stroke:#d62728;stroke-linejoin:miter;" x="230.147466" xlink:href="#m3f03972b5d" y="54.268973"/>
     <use style="fill:#d62728;stroke:#d62728;stroke-linejoin:miter;" x="262.194049" xlink:href="#m3f03972b5d" y="67.830316"/>
     <use style="fill:#d62728;stroke:#d62728;stroke-linejoin:miter;" x="294.240633" xlink:href="#m3f03972b5d" y="80.691911"/>
     <use style="fill:#d62728;stroke:#d62728;stroke-linejoin:miter;" x="326.287216" xlink:href="#m3f03972b5d" y="90.94714"/>
    </g>
   </g>
   <g id="line2d_65">
    <path clip-path="url(#p515ee9f4c4)" d="M 64.469034 17.018182 
L 198.100883 40.342258 
L 230.147466 54.076995 
L 262.194049 67.68142 
L 294.240633 80.184396 
L 326.287216 90.499861 
" style="fill:none;stroke:#9467bd;stroke-linecap:square;stroke-width:1.5;"/>
    <defs>
     <path d="M -0 4.242641 
L 2.545584 0 
L 0 -4.242641 
L -2.545584 -0 
z
" id="mf7fdb32b75" style="stroke:#9467bd;stroke-linejoin:miter;"/>
    </defs>
    <g clip-path="url(#p515ee9f4c4)">
     <use style="fill:#9467bd;stroke:#9467bd;stroke-linejoin:miter;" x="64.469034" xlink:href="#mf7fdb32b75" y="17.018182"/>
     <use style="fill:#9467bd;stroke:#9467bd;stroke-linejoin:miter;" x="198.100883" xlink:href="#mf7fdb32b75" y="40.342258"/>
     <use style="fill:#9467bd;stroke:#9467bd;stroke-linejoin:miter;" x="230.147466" xlink:href="#mf7fdb32b75" y="54.076995"/>
     <use style="fill:#9467bd;stroke:#9467bd;stroke-linejoin:miter;" x="262.194049" xlink:href="#mf7fdb32b75" y="67.68142"/>
     <use style="fill:#9467bd;stroke:#9467bd;stroke-linejoin:miter;" x="294.240633" xlink:href="#mf7fdb32b75" y="80.184396"/>
     <use style="fill:#9467bd;stroke:#9467bd;stroke-linejoin:miter;" x="326.287216" xlink:href="#mf7fdb32b75" y="90.499861"/>
    </g>
   </g>
   <g id="patch_3">
    <path d="M 51.378125 223.2 
L 51.378125 7.2 
" style="fill:none;stroke:#000000;stroke-linecap:square;stroke-linejoin:miter;stroke-width:0.8;"/>
   </g>
   <g id="patch_4">
    <path d="M 339.378125 223.2 
L 339.378125 7.2 
" style="fill:none;stroke:#000000;stroke-linecap:square;stroke-linejoin:miter;stroke-width:0.8;"/>
   </g>
   <g id="patch_5">
    <path d="M 51.378125 223.2 
L 339.378125 223.2 
" style="fill:none;stroke:#000000;stroke-linecap:square;stroke-linejoin:miter;stroke-width:0.8;"/>
   </g>
   <g id="patch_6">
    <path d="M 51.378125 7.2 
L 339.378125 7.2 
" style="fill:none;stroke:#000000;stroke-linecap:square;stroke-linejoin:miter;stroke-width:0.8;"/>
   </g>
   <g id="legend_1">
    <g id="patch_7">
     <path d="M 55.578125 220.2 
L 127.603437 220.2 
Q 128.803438 220.2 128.803438 219 
L 128.803438 84.99375 
Q 128.803438 83.79375 127.603437 83.79375 
L 55.578125 83.79375 
Q 54.378125 83.79375 54.378125 84.99375 
L 54.378125 219 
Q 54.378125 220.2 55.578125 220.2 
z
" style="fill:#ffffff;opacity:0.8;stroke:#cccccc;stroke-linejoin:miter;"/>
    </g>
    <g id="line2d_66">
     <path d="M 56.778125 88.652813 
L 68.778125 88.652813 
" style="fill:none;stroke:#1f77b4;stroke-linecap:square;stroke-width:1.5;"/>
    </g>
    <g id="line2d_67">
     <g>
      <use style="fill:#1f77b4;stroke:#1f77b4;" x="62.778125" xlink:href="#m0146ff8947" y="88.652813"/>
     </g>
    </g>
    <g id="text_12">
     <!-- 256_p2p -->
     <defs>
      <path d="M 33.015625 40.375 
Q 26.375 40.375 22.484375 35.828125 
Q 18.609375 31.296875 18.609375 23.390625 
Q 18.609375 15.53125 22.484375 10.953125 
Q 26.375 6.390625 33.015625 6.390625 
Q 39.65625 6.390625 43.53125 10.953125 
Q 47.40625 15.53125 47.40625 23.390625 
Q 47.40625 31.296875 43.53125 35.828125 
Q 39.65625 40.375 33.015625 40.375 
z
M 52.59375 71.296875 
L 52.59375 62.3125 
Q 48.875 64.0625 45.09375 64.984375 
Q 41.3125 65.921875 37.59375 65.921875 
Q 27.828125 65.921875 22.671875 59.328125 
Q 17.53125 52.734375 16.796875 39.40625 
Q 19.671875 43.65625 24.015625 45.921875 
Q 28.375 48.1875 33.59375 48.1875 
Q 44.578125 48.1875 50.953125 41.515625 
Q 57.328125 34.859375 57.328125 23.390625 
Q 57.328125 12.15625 50.6875 5.359375 
Q 44.046875 -1.421875 33.015625 -1.421875 
Q 20.359375 -1.421875 13.671875 8.265625 
Q 6.984375 17.96875 6.984375 36.375 
Q 6.984375 53.65625 15.1875 63.9375 
Q 23.390625 74.21875 37.203125 74.21875 
Q 40.921875 74.21875 44.703125 73.484375 
Q 48.484375 72.75 52.59375 71.296875 
z
" id="DejaVuSans-54"/>
      <path d="M 50.984375 -16.609375 
L 50.984375 -23.578125 
L -0.984375 -23.578125 
L -0.984375 -16.609375 
z
" id="DejaVuSans-95"/>
      <path d="M 18.109375 8.203125 
L 18.109375 -20.796875 
L 9.078125 -20.796875 
L 9.078125 54.6875 
L 18.109375 54.6875 
L 18.109375 46.390625 
Q 20.953125 51.265625 25.265625 53.625 
Q 29.59375 56 35.59375 56 
Q 45.5625 56 51.78125 48.09375 
Q 58.015625 40.1875 58.015625 27.296875 
Q 58.015625 14.40625 51.78125 6.484375 
Q 45.5625 -1.421875 35.59375 -1.421875 
Q 29.59375 -1.421875 25.265625 0.953125 
Q 20.953125 3.328125 18.109375 8.203125 
z
M 48.6875 27.296875 
Q 48.6875 37.203125 44.609375 42.84375 
Q 40.53125 48.484375 33.40625 48.484375 
Q 26.265625 48.484375 22.1875 42.84375 
Q 18.109375 37.203125 18.109375 27.296875 
Q 18.109375 17.390625 22.1875 11.75 
Q 26.265625 6.109375 33.40625 6.109375 
Q 40.53125 6.109375 44.609375 11.75 
Q 48.6875 17.390625 48.6875 27.296875 
z
" id="DejaVuSans-112"/>
     </defs>
     <g transform="translate(73.578125 90.752813)scale(0.06 -0.06)">
      <use xlink:href="#DejaVuSans-50"/>
      <use x="63.623047" xlink:href="#DejaVuSans-53"/>
      <use x="127.246094" xlink:href="#DejaVuSans-54"/>
      <use x="190.869141" xlink:href="#DejaVuSans-95"/>
      <use x="240.869141" xlink:href="#DejaVuSans-112"/>
      <use x="304.345703" xlink:href="#DejaVuSans-50"/>
      <use x="367.96875" xlink:href="#DejaVuSans-112"/>
     </g>
    </g>
    <g id="line2d_68">
     <path d="M 56.778125 97.626563 
L 68.778125 97.626563 
" style="fill:none;stroke:#ff7f0e;stroke-linecap:square;stroke-width:1.5;"/>
    </g>
    <g id="line2d_69">
     <g>
      <use style="fill:#ff7f0e;stroke:#ff7f0e;" x="62.778125" xlink:href="#m335de83ac9" y="97.626563"/>
     </g>
    </g>
    <g id="text_13">
     <!-- 256_p2p_seq_IO -->
     <defs>
      <path d="M 14.796875 27.296875 
Q 14.796875 17.390625 18.875 11.75 
Q 22.953125 6.109375 30.078125 6.109375 
Q 37.203125 6.109375 41.296875 11.75 
Q 45.40625 17.390625 45.40625 27.296875 
Q 45.40625 37.203125 41.296875 42.84375 
Q 37.203125 48.484375 30.078125 48.484375 
Q 22.953125 48.484375 18.875 42.84375 
Q 14.796875 37.203125 14.796875 27.296875 
z
M 45.40625 8.203125 
Q 42.578125 3.328125 38.25 0.953125 
Q 33.9375 -1.421875 27.875 -1.421875 
Q 17.96875 -1.421875 11.734375 6.484375 
Q 5.515625 14.40625 5.515625 27.296875 
Q 5.515625 40.1875 11.734375 48.09375 
Q 17.96875 56 27.875 56 
Q 33.9375 56 38.25 53.625 
Q 42.578125 51.265625 45.40625 46.390625 
L 45.40625 54.6875 
L 54.390625 54.6875 
L 54.390625 -20.796875 
L 45.40625 -20.796875 
z
" id="DejaVuSans-113"/>
      <path d="M 39.40625 66.21875 
Q 28.65625 66.21875 22.328125 58.203125 
Q 16.015625 50.203125 16.015625 36.375 
Q 16.015625 22.609375 22.328125 14.59375 
Q 28.65625 6.59375 39.40625 6.59375 
Q 50.140625 6.59375 56.421875 14.59375 
Q 62.703125 22.609375 62.703125 36.375 
Q 62.703125 50.203125 56.421875 58.203125 
Q 50.140625 66.21875 39.40625 66.21875 
z
M 39.40625 74.21875 
Q 54.734375 74.21875 63.90625 63.9375 
Q 73.09375 53.65625 73.09375 36.375 
Q 73.09375 19.140625 63.90625 8.859375 
Q 54.734375 -1.421875 39.40625 -1.421875 
Q 24.03125 -1.421875 14.8125 8.828125 
Q 5.609375 19.09375 5.609375 36.375 
Q 5.609375 53.65625 14.8125 63.9375 
Q 24.03125 74.21875 39.40625 74.21875 
z
" id="DejaVuSans-79"/>
     </defs>
     <g transform="translate(73.578125 99.726563)scale(0.06 -0.06)">
      <use xlink:href="#DejaVuSans-50"/>
      <use x="63.623047" xlink:href="#DejaVuSans-53"/>
      <use x="127.246094" xlink:href="#DejaVuSans-54"/>
      <use x="190.869141" xlink:href="#DejaVuSans-95"/>
      <use x="240.869141" xlink:href="#DejaVuSans-112"/>
      <use x="304.345703" xlink:href="#DejaVuSans-50"/>
      <use x="367.96875" xlink:href="#DejaVuSans-112"/>
      <use x="431.445312" xlink:href="#DejaVuSans-95"/>
      <use x="481.445312" xlink:href="#DejaVuSans-115"/>
      <use x="533.544922" xlink:href="#DejaVuSans-101"/>
      <use x="595.068359" xlink:href="#DejaVuSans-113"/>
      <use x="658.544922" xlink:href="#DejaVuSans-95"/>
      <use x="708.544922" xlink:href="#DejaVuSans-73"/>
      <use x="738.037109" xlink:href="#DejaVuSans-79"/>
     </g>
    </g>
    <g id="line2d_70">
     <path d="M 56.778125 106.600313 
L 68.778125 106.600313 
" style="fill:none;stroke:#2ca02c;stroke-linecap:square;stroke-width:1.5;"/>
    </g>
    <g id="line2d_71">
     <g>
      <use style="fill:#2ca02c;stroke:#2ca02c;" x="62.778125" xlink:href="#m8c1663b112" y="106.600313"/>
     </g>
    </g>
    <g id="text_14">
     <!-- 256_p2p_par_IO -->
     <g transform="translate(73.578125 108.700313)scale(0.06 -0.06)">
      <use xlink:href="#DejaVuSans-50"/>
      <use x="63.623047" xlink:href="#DejaVuSans-53"/>
      <use x="127.246094" xlink:href="#DejaVuSans-54"/>
      <use x="190.869141" xlink:href="#DejaVuSans-95"/>
      <use x="240.869141" xlink:href="#DejaVuSans-112"/>
      <use x="304.345703" xlink:href="#DejaVuSans-50"/>
      <use x="367.96875" xlink:href="#DejaVuSans-112"/>
      <use x="431.445312" xlink:href="#DejaVuSans-95"/>
      <use x="481.445312" xlink:href="#DejaVuSans-112"/>
      <use x="544.921875" xlink:href="#DejaVuSans-97"/>
      <use x="606.201172" xlink:href="#DejaVuSans-114"/>
      <use x="647.314453" xlink:href="#DejaVuSans-95"/>
      <use x="697.314453" xlink:href="#DejaVuSans-73"/>
      <use x="726.806641" xlink:href="#DejaVuSans-79"/>
     </g>
    </g>
    <g id="line2d_72">
     <path d="M 56.778125 115.574063 
L 68.778125 115.574063 
" style="fill:none;stroke:#d62728;stroke-linecap:square;stroke-width:1.5;"/>
    </g>
    <g id="line2d_73">
     <g>
      <use style="fill:#d62728;stroke:#d62728;stroke-linejoin:miter;" x="62.778125" xlink:href="#mb2e92a1afd" y="115.574063"/>
     </g>
    </g>
    <g id="text_15">
     <!-- 512_p2p -->
     <g transform="translate(73.578125 117.674063)scale(0.06 -0.06)">
      <use xlink:href="#DejaVuSans-53"/>
      <use x="63.623047" xlink:href="#DejaVuSans-49"/>
      <use x="127.246094" xlink:href="#DejaVuSans-50"/>
      <use x="190.869141" xlink:href="#DejaVuSans-95"/>
      <use x="240.869141" xlink:href="#DejaVuSans-112"/>
      <use x="304.345703" xlink:href="#DejaVuSans-50"/>
      <use x="367.96875" xlink:href="#DejaVuSans-112"/>
     </g>
    </g>
    <g id="line2d_74">
     <path d="M 56.778125 124.547813 
L 68.778125 124.547813 
" style="fill:none;stroke:#9467bd;stroke-linecap:square;stroke-width:1.5;"/>
    </g>
    <g id="line2d_75">
     <g>
      <use style="fill:#9467bd;stroke:#9467bd;stroke-linejoin:miter;" x="62.778125" xlink:href="#m532d69c9cb" y="124.547813"/>
     </g>
    </g>
    <g id="text_16">
     <!-- 512_p2p_seq_IO -->
     <g transform="translate(73.578125 126.647813)scale(0.06 -0.06)">
      <use xlink:href="#DejaVuSans-53"/>
      <use x="63.623047" xlink:href="#DejaVuSans-49"/>
      <use x="127.246094" xlink:href="#DejaVuSans-50"/>
      <use x="190.869141" xlink:href="#DejaVuSans-95"/>
      <use x="240.869141" xlink:href="#DejaVuSans-112"/>
      <use x="304.345703" xlink:href="#DejaVuSans-50"/>
      <use x="367.96875" xlink:href="#DejaVuSans-112"/>
      <use x="431.445312" xlink:href="#DejaVuSans-95"/>
      <use x="481.445312" xlink:href="#DejaVuSans-115"/>
      <use x="533.544922" xlink:href="#DejaVuSans-101"/>
      <use x="595.068359" xlink:href="#DejaVuSans-113"/>
      <use x="658.544922" xlink:href="#DejaVuSans-95"/>
      <use x="708.544922" xlink:href="#DejaVuSans-73"/>
      <use x="738.037109" xlink:href="#DejaVuSans-79"/>
     </g>
    </g>
    <g id="line2d_76">
     <path d="M 56.778125 133.521563 
L 68.778125 133.521563 
" style="fill:none;stroke:#8c564b;stroke-linecap:square;stroke-width:1.5;"/>
    </g>
    <g id="line2d_77">
     <g>
      <use style="fill:#8c564b;stroke:#8c564b;stroke-linejoin:miter;" x="62.778125" xlink:href="#m31ba9a72ff" y="133.521563"/>
     </g>
    </g>
    <g id="text_17">
     <!-- 512_p2p_par_IO -->
     <g transform="translate(73.578125 135.621563)scale(0.06 -0.06)">
      <use xlink:href="#DejaVuSans-53"/>
      <use x="63.623047" xlink:href="#DejaVuSans-49"/>
      <use x="127.246094" xlink:href="#DejaVuSans-50"/>
      <use x="190.869141" xlink:href="#DejaVuSans-95"/>
      <use x="240.869141" xlink:href="#DejaVuSans-112"/>
      <use x="304.345703" xlink:href="#DejaVuSans-50"/>
      <use x="367.96875" xlink:href="#DejaVuSans-112"/>
      <use x="431.445312" xlink:href="#DejaVuSans-95"/>
      <use x="481.445312" xlink:href="#DejaVuSans-112"/>
      <use x="544.921875" xlink:href="#DejaVuSans-97"/>
      <use x="606.201172" xlink:href="#DejaVuSans-114"/>
      <use x="647.314453" xlink:href="#DejaVuSans-95"/>
      <use x="697.314453" xlink:href="#DejaVuSans-73"/>
      <use x="726.806641" xlink:href="#DejaVuSans-79"/>
     </g>
    </g>
    <g id="line2d_78">
     <path d="M 56.778125 142.495313 
L 68.778125 142.495313 
" style="fill:none;stroke:#e377c2;stroke-linecap:square;stroke-width:1.5;"/>
    </g>
    <g id="line2d_79">
     <g>
      <use style="fill:#e377c2;stroke:#e377c2;stroke-linejoin:miter;" x="62.778125" xlink:href="#m9d656918b0" y="142.495313"/>
     </g>
    </g>
    <g id="text_18">
     <!-- 1024_p2p -->
     <g transform="translate(73.578125 144.595313)scale(0.06 -0.06)">
      <use xlink:href="#DejaVuSans-49"/>
      <use x="63.623047" xlink:href="#DejaVuSans-48"/>
      <use x="127.246094" xlink:href="#DejaVuSans-50"/>
      <use x="190.869141" xlink:href="#DejaVuSans-52"/>
      <use x="254.492188" xlink:href="#DejaVuSans-95"/>
      <use x="304.492188" xlink:href="#DejaVuSans-112"/>
      <use x="367.96875" xlink:href="#DejaVuSans-50"/>
      <use x="431.591797" xlink:href="#DejaVuSans-112"/>
     </g>
    </g>
    <g id="line2d_80">
     <path d="M 56.778125 151.469063 
L 68.778125 151.469063 
" style="fill:none;stroke:#7f7f7f;stroke-linecap:square;stroke-width:1.5;"/>
    </g>
    <g id="line2d_81">
     <g>
      <use style="fill:#7f7f7f;stroke:#7f7f7f;stroke-linejoin:miter;" x="62.778125" xlink:href="#ma58510aa3e" y="151.469063"/>
     </g>
    </g>
    <g id="text_19">
     <!-- 1024_p2p_seq_IO -->
     <g transform="translate(73.578125 153.569063)scale(0.06 -0.06)">
      <use xlink:href="#DejaVuSans-49"/>
      <use x="63.623047" xlink:href="#DejaVuSans-48"/>
      <use x="127.246094" xlink:href="#DejaVuSans-50"/>
      <use x="190.869141" xlink:href="#DejaVuSans-52"/>
      <use x="254.492188" xlink:href="#DejaVuSans-95"/>
      <use x="304.492188" xlink:href="#DejaVuSans-112"/>
      <use x="367.96875" xlink:href="#DejaVuSans-50"/>
      <use x="431.591797" xlink:href="#DejaVuSans-112"/>
      <use x="495.068359" xlink:href="#DejaVuSans-95"/>
      <use x="545.068359" xlink:href="#DejaVuSans-115"/>
      <use x="597.167969" xlink:href="#DejaVuSans-101"/>
      <use x="658.691406" xlink:href="#DejaVuSans-113"/>
      <use x="722.167969" xlink:href="#DejaVuSans-95"/>
      <use x="772.167969" xlink:href="#DejaVuSans-73"/>
      <use x="801.660156" xlink:href="#DejaVuSans-79"/>
     </g>
    </g>
    <g id="line2d_82">
     <path d="M 56.778125 160.442813 
L 68.778125 160.442813 
" style="fill:none;stroke:#bcbd22;stroke-linecap:square;stroke-width:1.5;"/>
    </g>
    <g id="line2d_83">
     <g>
      <use style="fill:#bcbd22;stroke:#bcbd22;stroke-linejoin:miter;" x="62.778125" xlink:href="#mde4d406f98" y="160.442813"/>
     </g>
    </g>
    <g id="text_20">
     <!-- 1024_p2p_par_IO -->
     <g transform="translate(73.578125 162.542813)scale(0.06 -0.06)">
      <use xlink:href="#DejaVuSans-49"/>
      <use x="63.623047" xlink:href="#DejaVuSans-48"/>
      <use x="127.246094" xlink:href="#DejaVuSans-50"/>
      <use x="190.869141" xlink:href="#DejaVuSans-52"/>
      <use x="254.492188" xlink:href="#DejaVuSans-95"/>
      <use x="304.492188" xlink:href="#DejaVuSans-112"/>
      <use x="367.96875" xlink:href="#DejaVuSans-50"/>
      <use x="431.591797" xlink:href="#DejaVuSans-112"/>
      <use x="495.068359" xlink:href="#DejaVuSans-95"/>
      <use x="545.068359" xlink:href="#DejaVuSans-112"/>
      <use x="608.544922" xlink:href="#DejaVuSans-97"/>
      <use x="669.824219" xlink:href="#DejaVuSans-114"/>
      <use x="710.9375" xlink:href="#DejaVuSans-95"/>
      <use x="760.9375" xlink:href="#DejaVuSans-73"/>
      <use x="790.429688" xlink:href="#DejaVuSans-79"/>
     </g>
    </g>
    <g id="line2d_84">
     <path d="M 56.778125 169.416563 
L 68.778125 169.416563 
" style="fill:none;stroke:#17becf;stroke-linecap:square;stroke-width:1.5;"/>
    </g>
    <g id="line2d_85">
     <g>
      <use style="fill:#17becf;stroke:#17becf;stroke-linejoin:miter;" x="62.778125" xlink:href="#m0809514415" y="169.416563"/>
     </g>
    </g>
    <g id="text_21">
     <!-- 2048_p2p -->
     <defs>
      <path d="M 31.78125 34.625 
Q 24.75 34.625 20.71875 30.859375 
Q 16.703125 27.09375 16.703125 20.515625 
Q 16.703125 13.921875 20.71875 10.15625 
Q 24.75 6.390625 31.78125 6.390625 
Q 38.8125 6.390625 42.859375 10.171875 
Q 46.921875 13.96875 46.921875 20.515625 
Q 46.921875 27.09375 42.890625 30.859375 
Q 38.875 34.625 31.78125 34.625 
z
M 21.921875 38.8125 
Q 15.578125 40.375 12.03125 44.71875 
Q 8.5 49.078125 8.5 55.328125 
Q 8.5 64.0625 14.71875 69.140625 
Q 20.953125 74.21875 31.78125 74.21875 
Q 42.671875 74.21875 48.875 69.140625 
Q 55.078125 64.0625 55.078125 55.328125 
Q 55.078125 49.078125 51.53125 44.71875 
Q 48 40.375 41.703125 38.8125 
Q 48.828125 37.15625 52.796875 32.3125 
Q 56.78125 27.484375 56.78125 20.515625 
Q 56.78125 9.90625 50.3125 4.234375 
Q 43.84375 -1.421875 31.78125 -1.421875 
Q 19.734375 -1.421875 13.25 4.234375 
Q 6.78125 9.90625 6.78125 20.515625 
Q 6.78125 27.484375 10.78125 32.3125 
Q 14.796875 37.15625 21.921875 38.8125 
z
M 18.3125 54.390625 
Q 18.3125 48.734375 21.84375 45.5625 
Q 25.390625 42.390625 31.78125 42.390625 
Q 38.140625 42.390625 41.71875 45.5625 
Q 45.3125 48.734375 45.3125 54.390625 
Q 45.3125 60.0625 41.71875 63.234375 
Q 38.140625 66.40625 31.78125 66.40625 
Q 25.390625 66.40625 21.84375 63.234375 
Q 18.3125 60.0625 18.3125 54.390625 
z
" id="DejaVuSans-56"/>
     </defs>
     <g transform="translate(73.578125 171.516563)scale(0.06 -0.06)">
      <use xlink:href="#DejaVuSans-50"/>
      <use x="63.623047" xlink:href="#DejaVuSans-48"/>
      <use x="127.246094" xlink:href="#DejaVuSans-52"/>
      <use x="190.869141" xlink:href="#DejaVuSans-56"/>
      <use x="254.492188" xlink:href="#DejaVuSans-95"/>
      <use x="304.492188" xlink:href="#DejaVuSans-112"/>
      <use x="367.96875" xlink:href="#DejaVuSans-50"/>
      <use x="431.591797" xlink:href="#DejaVuSans-112"/>
     </g>
    </g>
    <g id="line2d_86">
     <path d="M 56.778125 178.390313 
L 68.778125 178.390313 
" style="fill:none;stroke:#1f77b4;stroke-linecap:square;stroke-width:1.5;"/>
    </g>
    <g id="line2d_87">
     <g>
      <use style="fill:#1f77b4;stroke:#1f77b4;stroke-linejoin:miter;" x="62.778125" xlink:href="#mb8495f2c1e" y="178.390313"/>
     </g>
    </g>
    <g id="text_22">
     <!-- 2048_p2p_seq_IO -->
     <g transform="translate(73.578125 180.490313)scale(0.06 -0.06)">
      <use xlink:href="#DejaVuSans-50"/>
      <use x="63.623047" xlink:href="#DejaVuSans-48"/>
      <use x="127.246094" xlink:href="#DejaVuSans-52"/>
      <use x="190.869141" xlink:href="#DejaVuSans-56"/>
      <use x="254.492188" xlink:href="#DejaVuSans-95"/>
      <use x="304.492188" xlink:href="#DejaVuSans-112"/>
      <use x="367.96875" xlink:href="#DejaVuSans-50"/>
      <use x="431.591797" xlink:href="#DejaVuSans-112"/>
      <use x="495.068359" xlink:href="#DejaVuSans-95"/>
      <use x="545.068359" xlink:href="#DejaVuSans-115"/>
      <use x="597.167969" xlink:href="#DejaVuSans-101"/>
      <use x="658.691406" xlink:href="#DejaVuSans-113"/>
      <use x="722.167969" xlink:href="#DejaVuSans-95"/>
      <use x="772.167969" xlink:href="#DejaVuSans-73"/>
      <use x="801.660156" xlink:href="#DejaVuSans-79"/>
     </g>
    </g>
    <g id="line2d_88">
     <path d="M 56.778125 187.364063 
L 68.778125 187.364063 
" style="fill:none;stroke:#ff7f0e;stroke-linecap:square;stroke-width:1.5;"/>
    </g>
    <g id="line2d_89">
     <g>
      <use style="fill:#ff7f0e;stroke:#ff7f0e;stroke-linejoin:miter;" x="62.778125" xlink:href="#m410f5c5128" y="187.364063"/>
     </g>
    </g>
    <g id="text_23">
     <!-- 2048_p2p_par_IO -->
     <g transform="translate(73.578125 189.464063)scale(0.06 -0.06)">
      <use xlink:href="#DejaVuSans-50"/>
      <use x="63.623047" xlink:href="#DejaVuSans-48"/>
      <use x="127.246094" xlink:href="#DejaVuSans-52"/>
      <use x="190.869141" xlink:href="#DejaVuSans-56"/>
      <use x="254.492188" xlink:href="#DejaVuSans-95"/>
      <use x="304.492188" xlink:href="#DejaVuSans-112"/>
      <use x="367.96875" xlink:href="#DejaVuSans-50"/>
      <use x="431.591797" xlink:href="#DejaVuSans-112"/>
      <use x="495.068359" xlink:href="#DejaVuSans-95"/>
      <use x="545.068359" xlink:href="#DejaVuSans-112"/>
      <use x="608.544922" xlink:href="#DejaVuSans-97"/>
      <use x="669.824219" xlink:href="#DejaVuSans-114"/>
      <use x="710.9375" xlink:href="#DejaVuSans-95"/>
      <use x="760.9375" xlink:href="#DejaVuSans-73"/>
      <use x="790.429688" xlink:href="#DejaVuSans-79"/>
     </g>
    </g>
    <g id="line2d_90">
     <path d="M 56.778125 196.337813 
L 68.778125 196.337813 
" style="fill:none;stroke:#2ca02c;stroke-linecap:square;stroke-width:1.5;"/>
    </g>
    <g id="line2d_91">
     <g>
      <use style="fill:#2ca02c;stroke:#2ca02c;stroke-linejoin:miter;" x="62.778125" xlink:href="#m5a0c048de0" y="196.337813"/>
     </g>
    </g>
    <g id="text_24">
     <!-- 4096_p2p -->
     <defs>
      <path d="M 10.984375 1.515625 
L 10.984375 10.5 
Q 14.703125 8.734375 18.5 7.8125 
Q 22.3125 6.890625 25.984375 6.890625 
Q 35.75 6.890625 40.890625 13.453125 
Q 46.046875 20.015625 46.78125 33.40625 
Q 43.953125 29.203125 39.59375 26.953125 
Q 35.25 24.703125 29.984375 24.703125 
Q 19.046875 24.703125 12.671875 31.3125 
Q 6.296875 37.9375 6.296875 49.421875 
Q 6.296875 60.640625 12.9375 67.421875 
Q 19.578125 74.21875 30.609375 74.21875 
Q 43.265625 74.21875 49.921875 64.515625 
Q 56.59375 54.828125 56.59375 36.375 
Q 56.59375 19.140625 48.40625 8.859375 
Q 40.234375 -1.421875 26.421875 -1.421875 
Q 22.703125 -1.421875 18.890625 -0.6875 
Q 15.09375 0.046875 10.984375 1.515625 
z
M 30.609375 32.421875 
Q 37.25 32.421875 41.125 36.953125 
Q 45.015625 41.5 45.015625 49.421875 
Q 45.015625 57.28125 41.125 61.84375 
Q 37.25 66.40625 30.609375 66.40625 
Q 23.96875 66.40625 20.09375 61.84375 
Q 16.21875 57.28125 16.21875 49.421875 
Q 16.21875 41.5 20.09375 36.953125 
Q 23.96875 32.421875 30.609375 32.421875 
z
" id="DejaVuSans-57"/>
     </defs>
     <g transform="translate(73.578125 198.437813)scale(0.06 -0.06)">
      <use xlink:href="#DejaVuSans-52"/>
      <use x="63.623047" xlink:href="#DejaVuSans-48"/>
      <use x="127.246094" xlink:href="#DejaVuSans-57"/>
      <use x="190.869141" xlink:href="#DejaVuSans-54"/>
      <use x="254.492188" xlink:href="#DejaVuSans-95"/>
      <use x="304.492188" xlink:href="#DejaVuSans-112"/>
      <use x="367.96875" xlink:href="#DejaVuSans-50"/>
      <use x="431.591797" xlink:href="#DejaVuSans-112"/>
     </g>
    </g>
    <g id="line2d_92">
     <path d="M 56.778125 205.311563 
L 68.778125 205.311563 
" style="fill:none;stroke:#d62728;stroke-linecap:square;stroke-width:1.5;"/>
    </g>
    <g id="line2d_93">
     <g>
      <use style="fill:#d62728;stroke:#d62728;stroke-linejoin:miter;" x="62.778125" xlink:href="#m3f03972b5d" y="205.311563"/>
     </g>
    </g>
    <g id="text_25">
     <!-- 4096_p2p_seq_IO -->
     <g transform="translate(73.578125 207.411563)scale(0.06 -0.06)">
      <use xlink:href="#DejaVuSans-52"/>
      <use x="63.623047" xlink:href="#DejaVuSans-48"/>
      <use x="127.246094" xlink:href="#DejaVuSans-57"/>
      <use x="190.869141" xlink:href="#DejaVuSans-54"/>
      <use x="254.492188" xlink:href="#DejaVuSans-95"/>
      <use x="304.492188" xlink:href="#DejaVuSans-112"/>
      <use x="367.96875" xlink:href="#DejaVuSans-50"/>
      <use x="431.591797" xlink:href="#DejaVuSans-112"/>
      <use x="495.068359" xlink:href="#DejaVuSans-95"/>
      <use x="545.068359" xlink:href="#DejaVuSans-115"/>
      <use x="597.167969" xlink:href="#DejaVuSans-101"/>
      <use x="658.691406" xlink:href="#DejaVuSans-113"/>
      <use x="722.167969" xlink:href="#DejaVuSans-95"/>
      <use x="772.167969" xlink:href="#DejaVuSans-73"/>
      <use x="801.660156" xlink:href="#DejaVuSans-79"/>
     </g>
    </g>
    <g id="line2d_94">
     <path d="M 56.778125 214.285313 
L 68.778125 214.285313 
" style="fill:none;stroke:#9467bd;stroke-linecap:square;stroke-width:1.5;"/>
    </g>
    <g id="line2d_95">
     <g>
      <use style="fill:#9467bd;stroke:#9467bd;stroke-linejoin:miter;" x="62.778125" xlink:href="#mf7fdb32b75" y="214.285313"/>
     </g>
    </g>
    <g id="text_26">
     <!-- 4096_p2p_par_IO -->
     <g transform="translate(73.578125 216.385312)scale(0.06 -0.06)">
      <use xlink:href="#DejaVuSans-52"/>
      <use x="63.623047" xlink:href="#DejaVuSans-48"/>
      <use x="127.246094" xlink:href="#DejaVuSans-57"/>
      <use x="190.869141" xlink:href="#DejaVuSans-54"/>
      <use x="254.492188" xlink:href="#DejaVuSans-95"/>
      <use x="304.492188" xlink:href="#DejaVuSans-112"/>
      <use x="367.96875" xlink:href="#DejaVuSans-50"/>
      <use x="431.591797" xlink:href="#DejaVuSans-112"/>
      <use x="495.068359" xlink:href="#DejaVuSans-95"/>
      <use x="545.068359" xlink:href="#DejaVuSans-112"/>
      <use x="608.544922" xlink:href="#DejaVuSans-97"/>
      <use x="669.824219" xlink:href="#DejaVuSans-114"/>
      <use x="710.9375" xlink:href="#DejaVuSans-95"/>
      <use x="760.9375" xlink:href="#DejaVuSans-73"/>
      <use x="790.429688" xlink:href="#DejaVuSans-79"/>
     </g>
    </g>
   </g>
  </g>
 </g>
 <defs>
  <clipPath id="p515ee9f4c4">
   <rect height="216" width="288" x="51.378125" y="7.2"/>
  </clipPath>
 </defs>
</svg>
