<?xml version="1.0" encoding="utf-8" standalone="no"?>
<!DOCTYPE svg PUBLIC "-//W3C//DTD SVG 1.1//EN"
  "http://www.w3.org/Graphics/SVG/1.1/DTD/svg11.dtd">
<!-- Created with matplotlib (https://matplotlib.org/) -->
<svg height="260.75625pt" version="1.1" viewBox="0 0 335.803125 260.75625" width="335.803125pt" xmlns="http://www.w3.org/2000/svg" xmlns:xlink="http://www.w3.org/1999/xlink">
 <defs>
  <style type="text/css">
*{stroke-linecap:butt;stroke-linejoin:round;}
  </style>
 </defs>
 <g id="figure_1">
  <g id="patch_1">
   <path d="M 0 260.75625 
L 335.803125 260.75625 
L 335.803125 0 
L 0 0 
z
" style="fill:#ffffff;"/>
  </g>
  <g id="axes_1">
   <g id="patch_2">
    <path d="M 40.603125 223.2 
L 328.603125 223.2 
L 328.603125 7.2 
L 40.603125 7.2 
z
" style="fill:#ffffff;"/>
   </g>
   <g id="matplotlib.axis_1">
    <g id="xtick_1">
     <g id="line2d_1">
      <path clip-path="url(#pedf34d2a06)" d="M 51.632474 223.2 
L 51.632474 7.2 
" style="fill:none;stroke:#b0b0b0;stroke-linecap:square;stroke-width:0.8;"/>
     </g>
     <g id="line2d_2">
      <defs>
       <path d="M 0 0 
L 0 3.5 
" id="m28192aee9f" style="stroke:#000000;stroke-width:0.8;"/>
      </defs>
      <g>
       <use style="stroke:#000000;stroke-width:0.8;" x="51.632474" xlink:href="#m28192aee9f" y="223.2"/>
      </g>
     </g>
     <g id="text_1">
      <!-- 0 -->
      <defs>
       <path d="M 31.78125 66.40625 
Q 24.171875 66.40625 20.328125 58.90625 
Q 16.5 51.421875 16.5 36.375 
Q 16.5 21.390625 20.328125 13.890625 
Q 24.171875 6.390625 31.78125 6.390625 
Q 39.453125 6.390625 43.28125 13.890625 
Q 47.125 21.390625 47.125 36.375 
Q 47.125 51.421875 43.28125 58.90625 
Q 39.453125 66.40625 31.78125 66.40625 
z
M 31.78125 74.21875 
Q 44.046875 74.21875 50.515625 64.515625 
Q 56.984375 54.828125 56.984375 36.375 
Q 56.984375 17.96875 50.515625 8.265625 
Q 44.046875 -1.421875 31.78125 -1.421875 
Q 19.53125 -1.421875 13.0625 8.265625 
Q 6.59375 17.96875 6.59375 36.375 
Q 6.59375 54.828125 13.0625 64.515625 
Q 19.53125 74.21875 31.78125 74.21875 
z
" id="DejaVuSans-48"/>
      </defs>
      <g transform="translate(48.451224 237.798438)scale(0.1 -0.1)">
       <use xlink:href="#DejaVuSans-48"/>
      </g>
     </g>
    </g>
    <g id="xtick_2">
     <g id="line2d_3">
      <path clip-path="url(#pedf34d2a06)" d="M 92.863683 223.2 
L 92.863683 7.2 
" style="fill:none;stroke:#b0b0b0;stroke-linecap:square;stroke-width:0.8;"/>
     </g>
     <g id="line2d_4">
      <g>
       <use style="stroke:#000000;stroke-width:0.8;" x="92.863683" xlink:href="#m28192aee9f" y="223.2"/>
      </g>
     </g>
     <g id="text_2">
      <!-- 20 -->
      <defs>
       <path d="M 19.1875 8.296875 
L 53.609375 8.296875 
L 53.609375 0 
L 7.328125 0 
L 7.328125 8.296875 
Q 12.9375 14.109375 22.625 23.890625 
Q 32.328125 33.6875 34.8125 36.53125 
Q 39.546875 41.84375 41.421875 45.53125 
Q 43.3125 49.21875 43.3125 52.78125 
Q 43.3125 58.59375 39.234375 62.25 
Q 35.15625 65.921875 28.609375 65.921875 
Q 23.96875 65.921875 18.8125 64.3125 
Q 13.671875 62.703125 7.8125 59.421875 
L 7.8125 69.390625 
Q 13.765625 71.78125 18.9375 73 
Q 24.125 74.21875 28.421875 74.21875 
Q 39.75 74.21875 46.484375 68.546875 
Q 53.21875 62.890625 53.21875 53.421875 
Q 53.21875 48.921875 51.53125 44.890625 
Q 49.859375 40.875 45.40625 35.40625 
Q 44.1875 33.984375 37.640625 27.21875 
Q 31.109375 20.453125 19.1875 8.296875 
z
" id="DejaVuSans-50"/>
      </defs>
      <g transform="translate(86.501183 237.798438)scale(0.1 -0.1)">
       <use xlink:href="#DejaVuSans-50"/>
       <use x="63.623047" xlink:href="#DejaVuSans-48"/>
      </g>
     </g>
    </g>
    <g id="xtick_3">
     <g id="line2d_5">
      <path clip-path="url(#pedf34d2a06)" d="M 134.094893 223.2 
L 134.094893 7.2 
" style="fill:none;stroke:#b0b0b0;stroke-linecap:square;stroke-width:0.8;"/>
     </g>
     <g id="line2d_6">
      <g>
       <use style="stroke:#000000;stroke-width:0.8;" x="134.094893" xlink:href="#m28192aee9f" y="223.2"/>
      </g>
     </g>
     <g id="text_3">
      <!-- 40 -->
      <defs>
       <path d="M 37.796875 64.3125 
L 12.890625 25.390625 
L 37.796875 25.390625 
z
M 35.203125 72.90625 
L 47.609375 72.90625 
L 47.609375 25.390625 
L 58.015625 25.390625 
L 58.015625 17.1875 
L 47.609375 17.1875 
L 47.609375 0 
L 37.796875 0 
L 37.796875 17.1875 
L 4.890625 17.1875 
L 4.890625 26.703125 
z
" id="DejaVuSans-52"/>
      </defs>
      <g transform="translate(127.732393 237.798438)scale(0.1 -0.1)">
       <use xlink:href="#DejaVuSans-52"/>
       <use x="63.623047" xlink:href="#DejaVuSans-48"/>
      </g>
     </g>
    </g>
    <g id="xtick_4">
     <g id="line2d_7">
      <path clip-path="url(#pedf34d2a06)" d="M 175.326103 223.2 
L 175.326103 7.2 
" style="fill:none;stroke:#b0b0b0;stroke-linecap:square;stroke-width:0.8;"/>
     </g>
     <g id="line2d_8">
      <g>
       <use style="stroke:#000000;stroke-width:0.8;" x="175.326103" xlink:href="#m28192aee9f" y="223.2"/>
      </g>
     </g>
     <g id="text_4">
      <!-- 60 -->
      <defs>
       <path d="M 33.015625 40.375 
Q 26.375 40.375 22.484375 35.828125 
Q 18.609375 31.296875 18.609375 23.390625 
Q 18.609375 15.53125 22.484375 10.953125 
Q 26.375 6.390625 33.015625 6.390625 
Q 39.65625 6.390625 43.53125 10.953125 
Q 47.40625 15.53125 47.40625 23.390625 
Q 47.40625 31.296875 43.53125 35.828125 
Q 39.65625 40.375 33.015625 40.375 
z
M 52.59375 71.296875 
L 52.59375 62.3125 
Q 48.875 64.0625 45.09375 64.984375 
Q 41.3125 65.921875 37.59375 65.921875 
Q 27.828125 65.921875 22.671875 59.328125 
Q 17.53125 52.734375 16.796875 39.40625 
Q 19.671875 43.65625 24.015625 45.921875 
Q 28.375 48.1875 33.59375 48.1875 
Q 44.578125 48.1875 50.953125 41.515625 
Q 57.328125 34.859375 57.328125 23.390625 
Q 57.328125 12.15625 50.6875 5.359375 
Q 44.046875 -1.421875 33.015625 -1.421875 
Q 20.359375 -1.421875 13.671875 8.265625 
Q 6.984375 17.96875 6.984375 36.375 
Q 6.984375 53.65625 15.1875 63.9375 
Q 23.390625 74.21875 37.203125 74.21875 
Q 40.921875 74.21875 44.703125 73.484375 
Q 48.484375 72.75 52.59375 71.296875 
z
" id="DejaVuSans-54"/>
      </defs>
      <g transform="translate(168.963603 237.798438)scale(0.1 -0.1)">
       <use xlink:href="#DejaVuSans-54"/>
       <use x="63.623047" xlink:href="#DejaVuSans-48"/>
      </g>
     </g>
    </g>
    <g id="xtick_5">
     <g id="line2d_9">
      <path clip-path="url(#pedf34d2a06)" d="M 216.557313 223.2 
L 216.557313 7.2 
" style="fill:none;stroke:#b0b0b0;stroke-linecap:square;stroke-width:0.8;"/>
     </g>
     <g id="line2d_10">
      <g>
       <use style="stroke:#000000;stroke-width:0.8;" x="216.557313" xlink:href="#m28192aee9f" y="223.2"/>
      </g>
     </g>
     <g id="text_5">
      <!-- 80 -->
      <defs>
       <path d="M 31.78125 34.625 
Q 24.75 34.625 20.71875 30.859375 
Q 16.703125 27.09375 16.703125 20.515625 
Q 16.703125 13.921875 20.71875 10.15625 
Q 24.75 6.390625 31.78125 6.390625 
Q 38.8125 6.390625 42.859375 10.171875 
Q 46.921875 13.96875 46.921875 20.515625 
Q 46.921875 27.09375 42.890625 30.859375 
Q 38.875 34.625 31.78125 34.625 
z
M 21.921875 38.8125 
Q 15.578125 40.375 12.03125 44.71875 
Q 8.5 49.078125 8.5 55.328125 
Q 8.5 64.0625 14.71875 69.140625 
Q 20.953125 74.21875 31.78125 74.21875 
Q 42.671875 74.21875 48.875 69.140625 
Q 55.078125 64.0625 55.078125 55.328125 
Q 55.078125 49.078125 51.53125 44.71875 
Q 48 40.375 41.703125 38.8125 
Q 48.828125 37.15625 52.796875 32.3125 
Q 56.78125 27.484375 56.78125 20.515625 
Q 56.78125 9.90625 50.3125 4.234375 
Q 43.84375 -1.421875 31.78125 -1.421875 
Q 19.734375 -1.421875 13.25 4.234375 
Q 6.78125 9.90625 6.78125 20.515625 
Q 6.78125 27.484375 10.78125 32.3125 
Q 14.796875 37.15625 21.921875 38.8125 
z
M 18.3125 54.390625 
Q 18.3125 48.734375 21.84375 45.5625 
Q 25.390625 42.390625 31.78125 42.390625 
Q 38.140625 42.390625 41.71875 45.5625 
Q 45.3125 48.734375 45.3125 54.390625 
Q 45.3125 60.0625 41.71875 63.234375 
Q 38.140625 66.40625 31.78125 66.40625 
Q 25.390625 66.40625 21.84375 63.234375 
Q 18.3125 60.0625 18.3125 54.390625 
z
" id="DejaVuSans-56"/>
      </defs>
      <g transform="translate(210.194813 237.798438)scale(0.1 -0.1)">
       <use xlink:href="#DejaVuSans-56"/>
       <use x="63.623047" xlink:href="#DejaVuSans-48"/>
      </g>
     </g>
    </g>
    <g id="xtick_6">
     <g id="line2d_11">
      <path clip-path="url(#pedf34d2a06)" d="M 257.788522 223.2 
L 257.788522 7.2 
" style="fill:none;stroke:#b0b0b0;stroke-linecap:square;stroke-width:0.8;"/>
     </g>
     <g id="line2d_12">
      <g>
       <use style="stroke:#000000;stroke-width:0.8;" x="257.788522" xlink:href="#m28192aee9f" y="223.2"/>
      </g>
     </g>
     <g id="text_6">
      <!-- 100 -->
      <defs>
       <path d="M 12.40625 8.296875 
L 28.515625 8.296875 
L 28.515625 63.921875 
L 10.984375 60.40625 
L 10.984375 69.390625 
L 28.421875 72.90625 
L 38.28125 72.90625 
L 38.28125 8.296875 
L 54.390625 8.296875 
L 54.390625 0 
L 12.40625 0 
z
" id="DejaVuSans-49"/>
      </defs>
      <g transform="translate(248.244772 237.798438)scale(0.1 -0.1)">
       <use xlink:href="#DejaVuSans-49"/>
       <use x="63.623047" xlink:href="#DejaVuSans-48"/>
       <use x="127.246094" xlink:href="#DejaVuSans-48"/>
      </g>
     </g>
    </g>
    <g id="xtick_7">
     <g id="line2d_13">
      <path clip-path="url(#pedf34d2a06)" d="M 299.019732 223.2 
L 299.019732 7.2 
" style="fill:none;stroke:#b0b0b0;stroke-linecap:square;stroke-width:0.8;"/>
     </g>
     <g id="line2d_14">
      <g>
       <use style="stroke:#000000;stroke-width:0.8;" x="299.019732" xlink:href="#m28192aee9f" y="223.2"/>
      </g>
     </g>
     <g id="text_7">
      <!-- 120 -->
      <g transform="translate(289.475982 237.798438)scale(0.1 -0.1)">
       <use xlink:href="#DejaVuSans-49"/>
       <use x="63.623047" xlink:href="#DejaVuSans-50"/>
       <use x="127.246094" xlink:href="#DejaVuSans-48"/>
      </g>
     </g>
    </g>
    <g id="text_8">
     <!-- Number of cores -->
     <defs>
      <path d="M 9.8125 72.90625 
L 23.09375 72.90625 
L 55.421875 11.921875 
L 55.421875 72.90625 
L 64.984375 72.90625 
L 64.984375 0 
L 51.703125 0 
L 19.390625 60.984375 
L 19.390625 0 
L 9.8125 0 
z
" id="DejaVuSans-78"/>
      <path d="M 8.5 21.578125 
L 8.5 54.6875 
L 17.484375 54.6875 
L 17.484375 21.921875 
Q 17.484375 14.15625 20.5 10.265625 
Q 23.53125 6.390625 29.59375 6.390625 
Q 36.859375 6.390625 41.078125 11.03125 
Q 45.3125 15.671875 45.3125 23.6875 
L 45.3125 54.6875 
L 54.296875 54.6875 
L 54.296875 0 
L 45.3125 0 
L 45.3125 8.40625 
Q 42.046875 3.421875 37.71875 1 
Q 33.40625 -1.421875 27.6875 -1.421875 
Q 18.265625 -1.421875 13.375 4.4375 
Q 8.5 10.296875 8.5 21.578125 
z
M 31.109375 56 
z
" id="DejaVuSans-117"/>
      <path d="M 52 44.1875 
Q 55.375 50.25 60.0625 53.125 
Q 64.75 56 71.09375 56 
Q 79.640625 56 84.28125 50.015625 
Q 88.921875 44.046875 88.921875 33.015625 
L 88.921875 0 
L 79.890625 0 
L 79.890625 32.71875 
Q 79.890625 40.578125 77.09375 44.375 
Q 74.3125 48.1875 68.609375 48.1875 
Q 61.625 48.1875 57.5625 43.546875 
Q 53.515625 38.921875 53.515625 30.90625 
L 53.515625 0 
L 44.484375 0 
L 44.484375 32.71875 
Q 44.484375 40.625 41.703125 44.40625 
Q 38.921875 48.1875 33.109375 48.1875 
Q 26.21875 48.1875 22.15625 43.53125 
Q 18.109375 38.875 18.109375 30.90625 
L 18.109375 0 
L 9.078125 0 
L 9.078125 54.6875 
L 18.109375 54.6875 
L 18.109375 46.1875 
Q 21.1875 51.21875 25.484375 53.609375 
Q 29.78125 56 35.6875 56 
Q 41.65625 56 45.828125 52.96875 
Q 50 49.953125 52 44.1875 
z
" id="DejaVuSans-109"/>
      <path d="M 48.6875 27.296875 
Q 48.6875 37.203125 44.609375 42.84375 
Q 40.53125 48.484375 33.40625 48.484375 
Q 26.265625 48.484375 22.1875 42.84375 
Q 18.109375 37.203125 18.109375 27.296875 
Q 18.109375 17.390625 22.1875 11.75 
Q 26.265625 6.109375 33.40625 6.109375 
Q 40.53125 6.109375 44.609375 11.75 
Q 48.6875 17.390625 48.6875 27.296875 
z
M 18.109375 46.390625 
Q 20.953125 51.265625 25.265625 53.625 
Q 29.59375 56 35.59375 56 
Q 45.5625 56 51.78125 48.09375 
Q 58.015625 40.1875 58.015625 27.296875 
Q 58.015625 14.40625 51.78125 6.484375 
Q 45.5625 -1.421875 35.59375 -1.421875 
Q 29.59375 -1.421875 25.265625 0.953125 
Q 20.953125 3.328125 18.109375 8.203125 
L 18.109375 0 
L 9.078125 0 
L 9.078125 75.984375 
L 18.109375 75.984375 
z
" id="DejaVuSans-98"/>
      <path d="M 56.203125 29.59375 
L 56.203125 25.203125 
L 14.890625 25.203125 
Q 15.484375 15.921875 20.484375 11.0625 
Q 25.484375 6.203125 34.421875 6.203125 
Q 39.59375 6.203125 44.453125 7.46875 
Q 49.3125 8.734375 54.109375 11.28125 
L 54.109375 2.78125 
Q 49.265625 0.734375 44.1875 -0.34375 
Q 39.109375 -1.421875 33.890625 -1.421875 
Q 20.796875 -1.421875 13.15625 6.1875 
Q 5.515625 13.8125 5.515625 26.8125 
Q 5.515625 40.234375 12.765625 48.109375 
Q 20.015625 56 32.328125 56 
Q 43.359375 56 49.78125 48.890625 
Q 56.203125 41.796875 56.203125 29.59375 
z
M 47.21875 32.234375 
Q 47.125 39.59375 43.09375 43.984375 
Q 39.0625 48.390625 32.421875 48.390625 
Q 24.90625 48.390625 20.390625 44.140625 
Q 15.875 39.890625 15.1875 32.171875 
z
" id="DejaVuSans-101"/>
      <path d="M 41.109375 46.296875 
Q 39.59375 47.171875 37.8125 47.578125 
Q 36.03125 48 33.890625 48 
Q 26.265625 48 22.1875 43.046875 
Q 18.109375 38.09375 18.109375 28.8125 
L 18.109375 0 
L 9.078125 0 
L 9.078125 54.6875 
L 18.109375 54.6875 
L 18.109375 46.1875 
Q 20.953125 51.171875 25.484375 53.578125 
Q 30.03125 56 36.53125 56 
Q 37.453125 56 38.578125 55.875 
Q 39.703125 55.765625 41.0625 55.515625 
z
" id="DejaVuSans-114"/>
      <path id="DejaVuSans-32"/>
      <path d="M 30.609375 48.390625 
Q 23.390625 48.390625 19.1875 42.75 
Q 14.984375 37.109375 14.984375 27.296875 
Q 14.984375 17.484375 19.15625 11.84375 
Q 23.34375 6.203125 30.609375 6.203125 
Q 37.796875 6.203125 41.984375 11.859375 
Q 46.1875 17.53125 46.1875 27.296875 
Q 46.1875 37.015625 41.984375 42.703125 
Q 37.796875 48.390625 30.609375 48.390625 
z
M 30.609375 56 
Q 42.328125 56 49.015625 48.375 
Q 55.71875 40.765625 55.71875 27.296875 
Q 55.71875 13.875 49.015625 6.21875 
Q 42.328125 -1.421875 30.609375 -1.421875 
Q 18.84375 -1.421875 12.171875 6.21875 
Q 5.515625 13.875 5.515625 27.296875 
Q 5.515625 40.765625 12.171875 48.375 
Q 18.84375 56 30.609375 56 
z
" id="DejaVuSans-111"/>
      <path d="M 37.109375 75.984375 
L 37.109375 68.5 
L 28.515625 68.5 
Q 23.6875 68.5 21.796875 66.546875 
Q 19.921875 64.59375 19.921875 59.515625 
L 19.921875 54.6875 
L 34.71875 54.6875 
L 34.71875 47.703125 
L 19.921875 47.703125 
L 19.921875 0 
L 10.890625 0 
L 10.890625 47.703125 
L 2.296875 47.703125 
L 2.296875 54.6875 
L 10.890625 54.6875 
L 10.890625 58.5 
Q 10.890625 67.625 15.140625 71.796875 
Q 19.390625 75.984375 28.609375 75.984375 
z
" id="DejaVuSans-102"/>
      <path d="M 48.78125 52.59375 
L 48.78125 44.1875 
Q 44.96875 46.296875 41.140625 47.34375 
Q 37.3125 48.390625 33.40625 48.390625 
Q 24.65625 48.390625 19.8125 42.84375 
Q 14.984375 37.3125 14.984375 27.296875 
Q 14.984375 17.28125 19.8125 11.734375 
Q 24.65625 6.203125 33.40625 6.203125 
Q 37.3125 6.203125 41.140625 7.25 
Q 44.96875 8.296875 48.78125 10.40625 
L 48.78125 2.09375 
Q 45.015625 0.34375 40.984375 -0.53125 
Q 36.96875 -1.421875 32.421875 -1.421875 
Q 20.0625 -1.421875 12.78125 6.34375 
Q 5.515625 14.109375 5.515625 27.296875 
Q 5.515625 40.671875 12.859375 48.328125 
Q 20.21875 56 33.015625 56 
Q 37.15625 56 41.109375 55.140625 
Q 45.0625 54.296875 48.78125 52.59375 
z
" id="DejaVuSans-99"/>
      <path d="M 44.28125 53.078125 
L 44.28125 44.578125 
Q 40.484375 46.53125 36.375 47.5 
Q 32.28125 48.484375 27.875 48.484375 
Q 21.1875 48.484375 17.84375 46.4375 
Q 14.5 44.390625 14.5 40.28125 
Q 14.5 37.15625 16.890625 35.375 
Q 19.28125 33.59375 26.515625 31.984375 
L 29.59375 31.296875 
Q 39.15625 29.25 43.1875 25.515625 
Q 47.21875 21.78125 47.21875 15.09375 
Q 47.21875 7.46875 41.1875 3.015625 
Q 35.15625 -1.421875 24.609375 -1.421875 
Q 20.21875 -1.421875 15.453125 -0.5625 
Q 10.6875 0.296875 5.421875 2 
L 5.421875 11.28125 
Q 10.40625 8.6875 15.234375 7.390625 
Q 20.0625 6.109375 24.8125 6.109375 
Q 31.15625 6.109375 34.5625 8.28125 
Q 37.984375 10.453125 37.984375 14.40625 
Q 37.984375 18.0625 35.515625 20.015625 
Q 33.0625 21.96875 24.703125 23.78125 
L 21.578125 24.515625 
Q 13.234375 26.265625 9.515625 29.90625 
Q 5.8125 33.546875 5.8125 39.890625 
Q 5.8125 47.609375 11.28125 51.796875 
Q 16.75 56 26.8125 56 
Q 31.78125 56 36.171875 55.265625 
Q 40.578125 54.546875 44.28125 53.078125 
z
" id="DejaVuSans-115"/>
     </defs>
     <g transform="translate(143.086719 251.476563)scale(0.1 -0.1)">
      <use xlink:href="#DejaVuSans-78"/>
      <use x="74.804688" xlink:href="#DejaVuSans-117"/>
      <use x="138.183594" xlink:href="#DejaVuSans-109"/>
      <use x="235.595703" xlink:href="#DejaVuSans-98"/>
      <use x="299.072266" xlink:href="#DejaVuSans-101"/>
      <use x="360.595703" xlink:href="#DejaVuSans-114"/>
      <use x="401.708984" xlink:href="#DejaVuSans-32"/>
      <use x="433.496094" xlink:href="#DejaVuSans-111"/>
      <use x="494.677734" xlink:href="#DejaVuSans-102"/>
      <use x="529.882812" xlink:href="#DejaVuSans-32"/>
      <use x="561.669922" xlink:href="#DejaVuSans-99"/>
      <use x="616.650391" xlink:href="#DejaVuSans-111"/>
      <use x="677.832031" xlink:href="#DejaVuSans-114"/>
      <use x="716.695312" xlink:href="#DejaVuSans-101"/>
      <use x="778.21875" xlink:href="#DejaVuSans-115"/>
     </g>
    </g>
   </g>
   <g id="matplotlib.axis_2">
    <g id="ytick_1">
     <g id="line2d_15">
      <path clip-path="url(#pedf34d2a06)" d="M 40.603125 218.089634 
L 328.603125 218.089634 
" style="fill:none;stroke:#b0b0b0;stroke-linecap:square;stroke-width:0.8;"/>
     </g>
     <g id="line2d_16">
      <defs>
       <path d="M 0 0 
L -3.5 0 
" id="m7aa1a0b3fb" style="stroke:#000000;stroke-width:0.8;"/>
      </defs>
      <g>
       <use style="stroke:#000000;stroke-width:0.8;" x="40.603125" xlink:href="#m7aa1a0b3fb" y="218.089634"/>
      </g>
     </g>
     <g id="text_9">
      <!-- 0 -->
      <g transform="translate(27.240625 221.888853)scale(0.1 -0.1)">
       <use xlink:href="#DejaVuSans-48"/>
      </g>
     </g>
    </g>
    <g id="ytick_2">
     <g id="line2d_17">
      <path clip-path="url(#pedf34d2a06)" d="M 40.603125 171.011476 
L 328.603125 171.011476 
" style="fill:none;stroke:#b0b0b0;stroke-linecap:square;stroke-width:0.8;"/>
     </g>
     <g id="line2d_18">
      <g>
       <use style="stroke:#000000;stroke-width:0.8;" x="40.603125" xlink:href="#m7aa1a0b3fb" y="171.011476"/>
      </g>
     </g>
     <g id="text_10">
      <!-- 10 -->
      <g transform="translate(20.878125 174.810695)scale(0.1 -0.1)">
       <use xlink:href="#DejaVuSans-49"/>
       <use x="63.623047" xlink:href="#DejaVuSans-48"/>
      </g>
     </g>
    </g>
    <g id="ytick_3">
     <g id="line2d_19">
      <path clip-path="url(#pedf34d2a06)" d="M 40.603125 123.933318 
L 328.603125 123.933318 
" style="fill:none;stroke:#b0b0b0;stroke-linecap:square;stroke-width:0.8;"/>
     </g>
     <g id="line2d_20">
      <g>
       <use style="stroke:#000000;stroke-width:0.8;" x="40.603125" xlink:href="#m7aa1a0b3fb" y="123.933318"/>
      </g>
     </g>
     <g id="text_11">
      <!-- 20 -->
      <g transform="translate(20.878125 127.732537)scale(0.1 -0.1)">
       <use xlink:href="#DejaVuSans-50"/>
       <use x="63.623047" xlink:href="#DejaVuSans-48"/>
      </g>
     </g>
    </g>
    <g id="ytick_4">
     <g id="line2d_21">
      <path clip-path="url(#pedf34d2a06)" d="M 40.603125 76.85516 
L 328.603125 76.85516 
" style="fill:none;stroke:#b0b0b0;stroke-linecap:square;stroke-width:0.8;"/>
     </g>
     <g id="line2d_22">
      <g>
       <use style="stroke:#000000;stroke-width:0.8;" x="40.603125" xlink:href="#m7aa1a0b3fb" y="76.85516"/>
      </g>
     </g>
     <g id="text_12">
      <!-- 30 -->
      <defs>
       <path d="M 40.578125 39.3125 
Q 47.65625 37.796875 51.625 33 
Q 55.609375 28.21875 55.609375 21.1875 
Q 55.609375 10.40625 48.1875 4.484375 
Q 40.765625 -1.421875 27.09375 -1.421875 
Q 22.515625 -1.421875 17.65625 -0.515625 
Q 12.796875 0.390625 7.625 2.203125 
L 7.625 11.71875 
Q 11.71875 9.328125 16.59375 8.109375 
Q 21.484375 6.890625 26.8125 6.890625 
Q 36.078125 6.890625 40.9375 10.546875 
Q 45.796875 14.203125 45.796875 21.1875 
Q 45.796875 27.640625 41.28125 31.265625 
Q 36.765625 34.90625 28.71875 34.90625 
L 20.21875 34.90625 
L 20.21875 43.015625 
L 29.109375 43.015625 
Q 36.375 43.015625 40.234375 45.921875 
Q 44.09375 48.828125 44.09375 54.296875 
Q 44.09375 59.90625 40.109375 62.90625 
Q 36.140625 65.921875 28.71875 65.921875 
Q 24.65625 65.921875 20.015625 65.03125 
Q 15.375 64.15625 9.8125 62.3125 
L 9.8125 71.09375 
Q 15.4375 72.65625 20.34375 73.4375 
Q 25.25 74.21875 29.59375 74.21875 
Q 40.828125 74.21875 47.359375 69.109375 
Q 53.90625 64.015625 53.90625 55.328125 
Q 53.90625 49.265625 50.4375 45.09375 
Q 46.96875 40.921875 40.578125 39.3125 
z
" id="DejaVuSans-51"/>
      </defs>
      <g transform="translate(20.878125 80.654379)scale(0.1 -0.1)">
       <use xlink:href="#DejaVuSans-51"/>
       <use x="63.623047" xlink:href="#DejaVuSans-48"/>
      </g>
     </g>
    </g>
    <g id="ytick_5">
     <g id="line2d_23">
      <path clip-path="url(#pedf34d2a06)" d="M 40.603125 29.777003 
L 328.603125 29.777003 
" style="fill:none;stroke:#b0b0b0;stroke-linecap:square;stroke-width:0.8;"/>
     </g>
     <g id="line2d_24">
      <g>
       <use style="stroke:#000000;stroke-width:0.8;" x="40.603125" xlink:href="#m7aa1a0b3fb" y="29.777003"/>
      </g>
     </g>
     <g id="text_13">
      <!-- 40 -->
      <g transform="translate(20.878125 33.576221)scale(0.1 -0.1)">
       <use xlink:href="#DejaVuSans-52"/>
       <use x="63.623047" xlink:href="#DejaVuSans-48"/>
      </g>
     </g>
    </g>
    <g id="text_14">
     <!-- Speedup -->
     <defs>
      <path d="M 53.515625 70.515625 
L 53.515625 60.890625 
Q 47.90625 63.578125 42.921875 64.890625 
Q 37.9375 66.21875 33.296875 66.21875 
Q 25.25 66.21875 20.875 63.09375 
Q 16.5 59.96875 16.5 54.203125 
Q 16.5 49.359375 19.40625 46.890625 
Q 22.3125 44.4375 30.421875 42.921875 
L 36.375 41.703125 
Q 47.40625 39.59375 52.65625 34.296875 
Q 57.90625 29 57.90625 20.125 
Q 57.90625 9.515625 50.796875 4.046875 
Q 43.703125 -1.421875 29.984375 -1.421875 
Q 24.8125 -1.421875 18.96875 -0.25 
Q 13.140625 0.921875 6.890625 3.21875 
L 6.890625 13.375 
Q 12.890625 10.015625 18.65625 8.296875 
Q 24.421875 6.59375 29.984375 6.59375 
Q 38.421875 6.59375 43.015625 9.90625 
Q 47.609375 13.234375 47.609375 19.390625 
Q 47.609375 24.75 44.3125 27.78125 
Q 41.015625 30.8125 33.5 32.328125 
L 27.484375 33.5 
Q 16.453125 35.6875 11.515625 40.375 
Q 6.59375 45.0625 6.59375 53.421875 
Q 6.59375 63.09375 13.40625 68.65625 
Q 20.21875 74.21875 32.171875 74.21875 
Q 37.3125 74.21875 42.625 73.28125 
Q 47.953125 72.359375 53.515625 70.515625 
z
" id="DejaVuSans-83"/>
      <path d="M 18.109375 8.203125 
L 18.109375 -20.796875 
L 9.078125 -20.796875 
L 9.078125 54.6875 
L 18.109375 54.6875 
L 18.109375 46.390625 
Q 20.953125 51.265625 25.265625 53.625 
Q 29.59375 56 35.59375 56 
Q 45.5625 56 51.78125 48.09375 
Q 58.015625 40.1875 58.015625 27.296875 
Q 58.015625 14.40625 51.78125 6.484375 
Q 45.5625 -1.421875 35.59375 -1.421875 
Q 29.59375 -1.421875 25.265625 0.953125 
Q 20.953125 3.328125 18.109375 8.203125 
z
M 48.6875 27.296875 
Q 48.6875 37.203125 44.609375 42.84375 
Q 40.53125 48.484375 33.40625 48.484375 
Q 26.265625 48.484375 22.1875 42.84375 
Q 18.109375 37.203125 18.109375 27.296875 
Q 18.109375 17.390625 22.1875 11.75 
Q 26.265625 6.109375 33.40625 6.109375 
Q 40.53125 6.109375 44.609375 11.75 
Q 48.6875 17.390625 48.6875 27.296875 
z
" id="DejaVuSans-112"/>
      <path d="M 45.40625 46.390625 
L 45.40625 75.984375 
L 54.390625 75.984375 
L 54.390625 0 
L 45.40625 0 
L 45.40625 8.203125 
Q 42.578125 3.328125 38.25 0.953125 
Q 33.9375 -1.421875 27.875 -1.421875 
Q 17.96875 -1.421875 11.734375 6.484375 
Q 5.515625 14.40625 5.515625 27.296875 
Q 5.515625 40.1875 11.734375 48.09375 
Q 17.96875 56 27.875 56 
Q 33.9375 56 38.25 53.625 
Q 42.578125 51.265625 45.40625 46.390625 
z
M 14.796875 27.296875 
Q 14.796875 17.390625 18.875 11.75 
Q 22.953125 6.109375 30.078125 6.109375 
Q 37.203125 6.109375 41.296875 11.75 
Q 45.40625 17.390625 45.40625 27.296875 
Q 45.40625 37.203125 41.296875 42.84375 
Q 37.203125 48.484375 30.078125 48.484375 
Q 22.953125 48.484375 18.875 42.84375 
Q 14.796875 37.203125 14.796875 27.296875 
z
" id="DejaVuSans-100"/>
     </defs>
     <g transform="translate(14.798438 137.21875)rotate(-90)scale(0.1 -0.1)">
      <use xlink:href="#DejaVuSans-83"/>
      <use x="63.476562" xlink:href="#DejaVuSans-112"/>
      <use x="126.953125" xlink:href="#DejaVuSans-101"/>
      <use x="188.476562" xlink:href="#DejaVuSans-101"/>
      <use x="250" xlink:href="#DejaVuSans-100"/>
      <use x="313.476562" xlink:href="#DejaVuSans-117"/>
      <use x="376.855469" xlink:href="#DejaVuSans-112"/>
     </g>
    </g>
   </g>
   <g id="line2d_25">
    <path clip-path="url(#pedf34d2a06)" d="M 53.694034 213.381818 
L 84.617441 174.182244 
L 117.602409 149.701688 
L 183.572345 185.366916 
L 315.512216 204.180976 
" style="fill:none;stroke:#1f77b4;stroke-linecap:square;stroke-width:1.5;"/>
    <defs>
     <path d="M 0 3 
C 0.795609 3 1.55874 2.683901 2.12132 2.12132 
C 2.683901 1.55874 3 0.795609 3 0 
C 3 -0.795609 2.683901 -1.55874 2.12132 -2.12132 
C 1.55874 -2.683901 0.795609 -3 0 -3 
C -0.795609 -3 -1.55874 -2.683901 -2.12132 -2.12132 
C -2.683901 -1.55874 -3 -0.795609 -3 0 
C -3 0.795609 -2.683901 1.55874 -2.12132 2.12132 
C -1.55874 2.683901 -0.795609 3 0 3 
z
" id="m673b9164a1" style="stroke:#1f77b4;"/>
    </defs>
    <g clip-path="url(#pedf34d2a06)">
     <use style="fill:#1f77b4;stroke:#1f77b4;" x="53.694034" xlink:href="#m673b9164a1" y="213.381818"/>
     <use style="fill:#1f77b4;stroke:#1f77b4;" x="84.617441" xlink:href="#m673b9164a1" y="174.182244"/>
     <use style="fill:#1f77b4;stroke:#1f77b4;" x="117.602409" xlink:href="#m673b9164a1" y="149.701688"/>
     <use style="fill:#1f77b4;stroke:#1f77b4;" x="183.572345" xlink:href="#m673b9164a1" y="185.366916"/>
     <use style="fill:#1f77b4;stroke:#1f77b4;" x="315.512216" xlink:href="#m673b9164a1" y="204.180976"/>
    </g>
   </g>
   <g id="line2d_26">
    <path clip-path="url(#pedf34d2a06)" d="M 53.694034 213.381818 
L 84.617441 181.108098 
L 117.602409 165.253344 
L 183.572345 191.910018 
L 315.512216 207.80137 
" style="fill:none;stroke:#ff7f0e;stroke-linecap:square;stroke-width:1.5;"/>
    <defs>
     <path d="M 0 3 
C 0.795609 3 1.55874 2.683901 2.12132 2.12132 
C 2.683901 1.55874 3 0.795609 3 0 
C 3 -0.795609 2.683901 -1.55874 2.12132 -2.12132 
C 1.55874 -2.683901 0.795609 -3 0 -3 
C -0.795609 -3 -1.55874 -2.683901 -2.12132 -2.12132 
C -2.683901 -1.55874 -3 -0.795609 -3 0 
C -3 0.795609 -2.683901 1.55874 -2.12132 2.12132 
C -1.55874 2.683901 -0.795609 3 0 3 
z
" id="m312329bff2" style="stroke:#ff7f0e;"/>
    </defs>
    <g clip-path="url(#pedf34d2a06)">
     <use style="fill:#ff7f0e;stroke:#ff7f0e;" x="53.694034" xlink:href="#m312329bff2" y="213.381818"/>
     <use style="fill:#ff7f0e;stroke:#ff7f0e;" x="84.617441" xlink:href="#m312329bff2" y="181.108098"/>
     <use style="fill:#ff7f0e;stroke:#ff7f0e;" x="117.602409" xlink:href="#m312329bff2" y="165.253344"/>
     <use style="fill:#ff7f0e;stroke:#ff7f0e;" x="183.572345" xlink:href="#m312329bff2" y="191.910018"/>
     <use style="fill:#ff7f0e;stroke:#ff7f0e;" x="315.512216" xlink:href="#m312329bff2" y="207.80137"/>
    </g>
   </g>
   <g id="line2d_27">
    <path clip-path="url(#pedf34d2a06)" d="M 53.694034 213.381818 
L 84.617441 187.404817 
L 117.602409 177.037567 
L 183.572345 197.026985 
L 315.512216 210.071996 
" style="fill:none;stroke:#2ca02c;stroke-linecap:square;stroke-width:1.5;"/>
    <defs>
     <path d="M 0 3 
C 0.795609 3 1.55874 2.683901 2.12132 2.12132 
C 2.683901 1.55874 3 0.795609 3 0 
C 3 -0.795609 2.683901 -1.55874 2.12132 -2.12132 
C 1.55874 -2.683901 0.795609 -3 0 -3 
C -0.795609 -3 -1.55874 -2.683901 -2.12132 -2.12132 
C -2.683901 -1.55874 -3 -0.795609 -3 0 
C -3 0.795609 -2.683901 1.55874 -2.12132 2.12132 
C -1.55874 2.683901 -0.795609 3 0 3 
z
" id="m9b620811ff" style="stroke:#2ca02c;"/>
    </defs>
    <g clip-path="url(#pedf34d2a06)">
     <use style="fill:#2ca02c;stroke:#2ca02c;" x="53.694034" xlink:href="#m9b620811ff" y="213.381818"/>
     <use style="fill:#2ca02c;stroke:#2ca02c;" x="84.617441" xlink:href="#m9b620811ff" y="187.404817"/>
     <use style="fill:#2ca02c;stroke:#2ca02c;" x="117.602409" xlink:href="#m9b620811ff" y="177.037567"/>
     <use style="fill:#2ca02c;stroke:#2ca02c;" x="183.572345" xlink:href="#m9b620811ff" y="197.026985"/>
     <use style="fill:#2ca02c;stroke:#2ca02c;" x="315.512216" xlink:href="#m9b620811ff" y="210.071996"/>
    </g>
   </g>
   <g id="line2d_28">
    <path clip-path="url(#pedf34d2a06)" d="M 53.694034 213.381818 
L 84.617441 153.962389 
L 117.602409 99.832427 
L 183.572345 140.529677 
L 315.512216 173.214556 
" style="fill:none;stroke:#d62728;stroke-linecap:square;stroke-width:1.5;"/>
    <defs>
     <path d="M -0 3 
L 3 -3 
L -3 -3 
z
" id="me3a9daa920" style="stroke:#d62728;stroke-linejoin:miter;"/>
    </defs>
    <g clip-path="url(#pedf34d2a06)">
     <use style="fill:#d62728;stroke:#d62728;stroke-linejoin:miter;" x="53.694034" xlink:href="#me3a9daa920" y="213.381818"/>
     <use style="fill:#d62728;stroke:#d62728;stroke-linejoin:miter;" x="84.617441" xlink:href="#me3a9daa920" y="153.962389"/>
     <use style="fill:#d62728;stroke:#d62728;stroke-linejoin:miter;" x="117.602409" xlink:href="#me3a9daa920" y="99.832427"/>
     <use style="fill:#d62728;stroke:#d62728;stroke-linejoin:miter;" x="183.572345" xlink:href="#me3a9daa920" y="140.529677"/>
     <use style="fill:#d62728;stroke:#d62728;stroke-linejoin:miter;" x="315.512216" xlink:href="#me3a9daa920" y="173.214556"/>
    </g>
   </g>
   <g id="line2d_29">
    <path clip-path="url(#pedf34d2a06)" d="M 53.694034 213.381818 
L 84.617441 161.942359 
L 117.602409 129.193064 
L 183.572345 156.592617 
L 315.512216 190.156948 
" style="fill:none;stroke:#9467bd;stroke-linecap:square;stroke-width:1.5;"/>
    <defs>
     <path d="M -0 3 
L 3 -3 
L -3 -3 
z
" id="m830ef33eaf" style="stroke:#9467bd;stroke-linejoin:miter;"/>
    </defs>
    <g clip-path="url(#pedf34d2a06)">
     <use style="fill:#9467bd;stroke:#9467bd;stroke-linejoin:miter;" x="53.694034" xlink:href="#m830ef33eaf" y="213.381818"/>
     <use style="fill:#9467bd;stroke:#9467bd;stroke-linejoin:miter;" x="84.617441" xlink:href="#m830ef33eaf" y="161.942359"/>
     <use style="fill:#9467bd;stroke:#9467bd;stroke-linejoin:miter;" x="117.602409" xlink:href="#m830ef33eaf" y="129.193064"/>
     <use style="fill:#9467bd;stroke:#9467bd;stroke-linejoin:miter;" x="183.572345" xlink:href="#m830ef33eaf" y="156.592617"/>
     <use style="fill:#9467bd;stroke:#9467bd;stroke-linejoin:miter;" x="315.512216" xlink:href="#m830ef33eaf" y="190.156948"/>
    </g>
   </g>
   <g id="line2d_30">
    <path clip-path="url(#pedf34d2a06)" d="M 53.694034 213.381818 
L 84.617441 168.360687 
L 117.602409 141.168779 
L 183.572345 166.618272 
L 315.512216 195.934973 
" style="fill:none;stroke:#8c564b;stroke-linecap:square;stroke-width:1.5;"/>
    <defs>
     <path d="M -0 3 
L 3 -3 
L -3 -3 
z
" id="me6ae8d3877" style="stroke:#8c564b;stroke-linejoin:miter;"/>
    </defs>
    <g clip-path="url(#pedf34d2a06)">
     <use style="fill:#8c564b;stroke:#8c564b;stroke-linejoin:miter;" x="53.694034" xlink:href="#me6ae8d3877" y="213.381818"/>
     <use style="fill:#8c564b;stroke:#8c564b;stroke-linejoin:miter;" x="84.617441" xlink:href="#me6ae8d3877" y="168.360687"/>
     <use style="fill:#8c564b;stroke:#8c564b;stroke-linejoin:miter;" x="117.602409" xlink:href="#me6ae8d3877" y="141.168779"/>
     <use style="fill:#8c564b;stroke:#8c564b;stroke-linejoin:miter;" x="183.572345" xlink:href="#me6ae8d3877" y="166.618272"/>
     <use style="fill:#8c564b;stroke:#8c564b;stroke-linejoin:miter;" x="315.512216" xlink:href="#me6ae8d3877" y="195.934973"/>
    </g>
   </g>
   <g id="line2d_31">
    <path clip-path="url(#pedf34d2a06)" d="M 53.694034 213.381818 
L 84.617441 124.295723 
L 117.602409 34.142301 
L 183.572345 62.729964 
L 315.512216 101.145193 
" style="fill:none;stroke:#e377c2;stroke-linecap:square;stroke-width:1.5;"/>
    <defs>
     <path d="M -3 3 
L 3 3 
L 3 -3 
L -3 -3 
z
" id="ma926de062f" style="stroke:#e377c2;stroke-linejoin:miter;"/>
    </defs>
    <g clip-path="url(#pedf34d2a06)">
     <use style="fill:#e377c2;stroke:#e377c2;stroke-linejoin:miter;" x="53.694034" xlink:href="#ma926de062f" y="213.381818"/>
     <use style="fill:#e377c2;stroke:#e377c2;stroke-linejoin:miter;" x="84.617441" xlink:href="#ma926de062f" y="124.295723"/>
     <use style="fill:#e377c2;stroke:#e377c2;stroke-linejoin:miter;" x="117.602409" xlink:href="#ma926de062f" y="34.142301"/>
     <use style="fill:#e377c2;stroke:#e377c2;stroke-linejoin:miter;" x="183.572345" xlink:href="#ma926de062f" y="62.729964"/>
     <use style="fill:#e377c2;stroke:#e377c2;stroke-linejoin:miter;" x="315.512216" xlink:href="#ma926de062f" y="101.145193"/>
    </g>
   </g>
   <g id="line2d_32">
    <path clip-path="url(#pedf34d2a06)" d="M 53.694034 213.381818 
L 84.617441 135.769681 
L 117.602409 80.780356 
L 183.572345 102.686121 
L 315.512216 162.651568 
" style="fill:none;stroke:#7f7f7f;stroke-linecap:square;stroke-width:1.5;"/>
    <defs>
     <path d="M -3 3 
L 3 3 
L 3 -3 
L -3 -3 
z
" id="m449927b3a6" style="stroke:#7f7f7f;stroke-linejoin:miter;"/>
    </defs>
    <g clip-path="url(#pedf34d2a06)">
     <use style="fill:#7f7f7f;stroke:#7f7f7f;stroke-linejoin:miter;" x="53.694034" xlink:href="#m449927b3a6" y="213.381818"/>
     <use style="fill:#7f7f7f;stroke:#7f7f7f;stroke-linejoin:miter;" x="84.617441" xlink:href="#m449927b3a6" y="135.769681"/>
     <use style="fill:#7f7f7f;stroke:#7f7f7f;stroke-linejoin:miter;" x="117.602409" xlink:href="#m449927b3a6" y="80.780356"/>
     <use style="fill:#7f7f7f;stroke:#7f7f7f;stroke-linejoin:miter;" x="183.572345" xlink:href="#m449927b3a6" y="102.686121"/>
     <use style="fill:#7f7f7f;stroke:#7f7f7f;stroke-linejoin:miter;" x="315.512216" xlink:href="#m449927b3a6" y="162.651568"/>
    </g>
   </g>
   <g id="line2d_33">
    <path clip-path="url(#pedf34d2a06)" d="M 53.694034 213.381818 
L 84.617441 140.217115 
L 117.602409 92.002685 
L 183.572345 116.070271 
L 315.512216 170.395756 
" style="fill:none;stroke:#bcbd22;stroke-linecap:square;stroke-width:1.5;"/>
    <defs>
     <path d="M -3 3 
L 3 3 
L 3 -3 
L -3 -3 
z
" id="m08766709c4" style="stroke:#bcbd22;stroke-linejoin:miter;"/>
    </defs>
    <g clip-path="url(#pedf34d2a06)">
     <use style="fill:#bcbd22;stroke:#bcbd22;stroke-linejoin:miter;" x="53.694034" xlink:href="#m08766709c4" y="213.381818"/>
     <use style="fill:#bcbd22;stroke:#bcbd22;stroke-linejoin:miter;" x="84.617441" xlink:href="#m08766709c4" y="140.217115"/>
     <use style="fill:#bcbd22;stroke:#bcbd22;stroke-linejoin:miter;" x="117.602409" xlink:href="#m08766709c4" y="92.002685"/>
     <use style="fill:#bcbd22;stroke:#bcbd22;stroke-linejoin:miter;" x="183.572345" xlink:href="#m08766709c4" y="116.070271"/>
     <use style="fill:#bcbd22;stroke:#bcbd22;stroke-linejoin:miter;" x="315.512216" xlink:href="#m08766709c4" y="170.395756"/>
    </g>
   </g>
   <g id="line2d_34">
    <path clip-path="url(#pedf34d2a06)" d="M 53.694034 213.381818 
L 84.617441 118.654607 
L 117.602409 22.61399 
L 183.572345 46.670556 
L 315.512216 75.18733 
" style="fill:none;stroke:#17becf;stroke-linecap:square;stroke-width:1.5;"/>
    <defs>
     <path d="M -1.5 3 
L 0 1.5 
L 1.5 3 
L 3 1.5 
L 1.5 0 
L 3 -1.5 
L 1.5 -3 
L 0 -1.5 
L -1.5 -3 
L -3 -1.5 
L -1.5 0 
L -3 1.5 
z
" id="mabc383c5a0" style="stroke:#17becf;stroke-linejoin:miter;"/>
    </defs>
    <g clip-path="url(#pedf34d2a06)">
     <use style="fill:#17becf;stroke:#17becf;stroke-linejoin:miter;" x="53.694034" xlink:href="#mabc383c5a0" y="213.381818"/>
     <use style="fill:#17becf;stroke:#17becf;stroke-linejoin:miter;" x="84.617441" xlink:href="#mabc383c5a0" y="118.654607"/>
     <use style="fill:#17becf;stroke:#17becf;stroke-linejoin:miter;" x="117.602409" xlink:href="#mabc383c5a0" y="22.61399"/>
     <use style="fill:#17becf;stroke:#17becf;stroke-linejoin:miter;" x="183.572345" xlink:href="#mabc383c5a0" y="46.670556"/>
     <use style="fill:#17becf;stroke:#17becf;stroke-linejoin:miter;" x="315.512216" xlink:href="#mabc383c5a0" y="75.18733"/>
    </g>
   </g>
   <g id="line2d_35">
    <path clip-path="url(#pedf34d2a06)" d="M 53.694034 213.381818 
L 84.617441 133.493524 
L 117.602409 76.597522 
L 183.572345 98.17673 
L 315.512216 156.076905 
" style="fill:none;stroke:#1f77b4;stroke-linecap:square;stroke-width:1.5;"/>
    <defs>
     <path d="M -1.5 3 
L 0 1.5 
L 1.5 3 
L 3 1.5 
L 1.5 0 
L 3 -1.5 
L 1.5 -3 
L 0 -1.5 
L -1.5 -3 
L -3 -1.5 
L -1.5 0 
L -3 1.5 
z
" id="m8c54a67576" style="stroke:#1f77b4;stroke-linejoin:miter;"/>
    </defs>
    <g clip-path="url(#pedf34d2a06)">
     <use style="fill:#1f77b4;stroke:#1f77b4;stroke-linejoin:miter;" x="53.694034" xlink:href="#m8c54a67576" y="213.381818"/>
     <use style="fill:#1f77b4;stroke:#1f77b4;stroke-linejoin:miter;" x="84.617441" xlink:href="#m8c54a67576" y="133.493524"/>
     <use style="fill:#1f77b4;stroke:#1f77b4;stroke-linejoin:miter;" x="117.602409" xlink:href="#m8c54a67576" y="76.597522"/>
     <use style="fill:#1f77b4;stroke:#1f77b4;stroke-linejoin:miter;" x="183.572345" xlink:href="#m8c54a67576" y="98.17673"/>
     <use style="fill:#1f77b4;stroke:#1f77b4;stroke-linejoin:miter;" x="315.512216" xlink:href="#m8c54a67576" y="156.076905"/>
    </g>
   </g>
   <g id="line2d_36">
    <path clip-path="url(#pedf34d2a06)" d="M 53.694034 213.381818 
L 84.617441 135.933954 
L 117.602409 82.871419 
L 183.572345 103.522845 
L 315.512216 158.802622 
" style="fill:none;stroke:#ff7f0e;stroke-linecap:square;stroke-width:1.5;"/>
    <defs>
     <path d="M -1.5 3 
L 0 1.5 
L 1.5 3 
L 3 1.5 
L 1.5 0 
L 3 -1.5 
L 1.5 -3 
L 0 -1.5 
L -1.5 -3 
L -3 -1.5 
L -1.5 0 
L -3 1.5 
z
" id="mcdf78110a1" style="stroke:#ff7f0e;stroke-linejoin:miter;"/>
    </defs>
    <g clip-path="url(#pedf34d2a06)">
     <use style="fill:#ff7f0e;stroke:#ff7f0e;stroke-linejoin:miter;" x="53.694034" xlink:href="#mcdf78110a1" y="213.381818"/>
     <use style="fill:#ff7f0e;stroke:#ff7f0e;stroke-linejoin:miter;" x="84.617441" xlink:href="#mcdf78110a1" y="135.933954"/>
     <use style="fill:#ff7f0e;stroke:#ff7f0e;stroke-linejoin:miter;" x="117.602409" xlink:href="#mcdf78110a1" y="82.871419"/>
     <use style="fill:#ff7f0e;stroke:#ff7f0e;stroke-linejoin:miter;" x="183.572345" xlink:href="#mcdf78110a1" y="103.522845"/>
     <use style="fill:#ff7f0e;stroke:#ff7f0e;stroke-linejoin:miter;" x="315.512216" xlink:href="#mcdf78110a1" y="158.802622"/>
    </g>
   </g>
   <g id="line2d_37">
    <path clip-path="url(#pedf34d2a06)" d="M 53.694034 213.381818 
L 84.617441 113.515858 
L 117.602409 17.018182 
L 183.572345 52.734293 
L 315.512216 75.418757 
" style="fill:none;stroke:#2ca02c;stroke-linecap:square;stroke-width:1.5;"/>
    <defs>
     <path d="M -0 4.242641 
L 2.545584 0 
L 0 -4.242641 
L -2.545584 -0 
z
" id="m8118b75ec3" style="stroke:#2ca02c;stroke-linejoin:miter;"/>
    </defs>
    <g clip-path="url(#pedf34d2a06)">
     <use style="fill:#2ca02c;stroke:#2ca02c;stroke-linejoin:miter;" x="53.694034" xlink:href="#m8118b75ec3" y="213.381818"/>
     <use style="fill:#2ca02c;stroke:#2ca02c;stroke-linejoin:miter;" x="84.617441" xlink:href="#m8118b75ec3" y="113.515858"/>
     <use style="fill:#2ca02c;stroke:#2ca02c;stroke-linejoin:miter;" x="117.602409" xlink:href="#m8118b75ec3" y="17.018182"/>
     <use style="fill:#2ca02c;stroke:#2ca02c;stroke-linejoin:miter;" x="183.572345" xlink:href="#m8118b75ec3" y="52.734293"/>
     <use style="fill:#2ca02c;stroke:#2ca02c;stroke-linejoin:miter;" x="315.512216" xlink:href="#m8118b75ec3" y="75.418757"/>
    </g>
   </g>
   <g id="line2d_38">
    <path clip-path="url(#pedf34d2a06)" d="M 53.694034 213.381818 
L 84.617441 131.133795 
L 117.602409 79.855334 
L 183.572345 110.496445 
L 315.512216 155.738989 
" style="fill:none;stroke:#d62728;stroke-linecap:square;stroke-width:1.5;"/>
    <defs>
     <path d="M -0 4.242641 
L 2.545584 0 
L 0 -4.242641 
L -2.545584 -0 
z
" id="mb2b05ffc7d" style="stroke:#d62728;stroke-linejoin:miter;"/>
    </defs>
    <g clip-path="url(#pedf34d2a06)">
     <use style="fill:#d62728;stroke:#d62728;stroke-linejoin:miter;" x="53.694034" xlink:href="#mb2b05ffc7d" y="213.381818"/>
     <use style="fill:#d62728;stroke:#d62728;stroke-linejoin:miter;" x="84.617441" xlink:href="#mb2b05ffc7d" y="131.133795"/>
     <use style="fill:#d62728;stroke:#d62728;stroke-linejoin:miter;" x="117.602409" xlink:href="#mb2b05ffc7d" y="79.855334"/>
     <use style="fill:#d62728;stroke:#d62728;stroke-linejoin:miter;" x="183.572345" xlink:href="#mb2b05ffc7d" y="110.496445"/>
     <use style="fill:#d62728;stroke:#d62728;stroke-linejoin:miter;" x="315.512216" xlink:href="#mb2b05ffc7d" y="155.738989"/>
    </g>
   </g>
   <g id="line2d_39">
    <path clip-path="url(#pedf34d2a06)" d="M 53.694034 213.381818 
L 84.617441 132.966045 
L 117.602409 81.918677 
L 183.572345 113.352312 
L 315.512216 156.096154 
" style="fill:none;stroke:#9467bd;stroke-linecap:square;stroke-width:1.5;"/>
    <defs>
     <path d="M -0 4.242641 
L 2.545584 0 
L 0 -4.242641 
L -2.545584 -0 
z
" id="m4824d0b595" style="stroke:#9467bd;stroke-linejoin:miter;"/>
    </defs>
    <g clip-path="url(#pedf34d2a06)">
     <use style="fill:#9467bd;stroke:#9467bd;stroke-linejoin:miter;" x="53.694034" xlink:href="#m4824d0b595" y="213.381818"/>
     <use style="fill:#9467bd;stroke:#9467bd;stroke-linejoin:miter;" x="84.617441" xlink:href="#m4824d0b595" y="132.966045"/>
     <use style="fill:#9467bd;stroke:#9467bd;stroke-linejoin:miter;" x="117.602409" xlink:href="#m4824d0b595" y="81.918677"/>
     <use style="fill:#9467bd;stroke:#9467bd;stroke-linejoin:miter;" x="183.572345" xlink:href="#m4824d0b595" y="113.352312"/>
     <use style="fill:#9467bd;stroke:#9467bd;stroke-linejoin:miter;" x="315.512216" xlink:href="#m4824d0b595" y="156.096154"/>
    </g>
   </g>
   <g id="patch_3">
    <path d="M 40.603125 223.2 
L 40.603125 7.2 
" style="fill:none;stroke:#000000;stroke-linecap:square;stroke-linejoin:miter;stroke-width:0.8;"/>
   </g>
   <g id="patch_4">
    <path d="M 328.603125 223.2 
L 328.603125 7.2 
" style="fill:none;stroke:#000000;stroke-linecap:square;stroke-linejoin:miter;stroke-width:0.8;"/>
   </g>
   <g id="patch_5">
    <path d="M 40.603125 223.2 
L 328.603125 223.2 
" style="fill:none;stroke:#000000;stroke-linecap:square;stroke-linejoin:miter;stroke-width:0.8;"/>
   </g>
   <g id="patch_6">
    <path d="M 40.603125 7.2 
L 328.603125 7.2 
" style="fill:none;stroke:#000000;stroke-linecap:square;stroke-linejoin:miter;stroke-width:0.8;"/>
   </g>
   <g id="legend_1">
    <g id="patch_7">
     <path d="M 251.930625 146.60625 
L 324.403125 146.60625 
Q 325.603125 146.60625 325.603125 145.40625 
L 325.603125 11.4 
Q 325.603125 10.2 324.403125 10.2 
L 251.930625 10.2 
Q 250.730625 10.2 250.730625 11.4 
L 250.730625 145.40625 
Q 250.730625 146.60625 251.930625 146.60625 
z
" style="fill:#ffffff;opacity:0.8;stroke:#cccccc;stroke-linejoin:miter;"/>
    </g>
    <g id="line2d_40">
     <path d="M 253.130625 15.059063 
L 265.130625 15.059063 
" style="fill:none;stroke:#1f77b4;stroke-linecap:square;stroke-width:1.5;"/>
    </g>
    <g id="line2d_41">
     <g>
      <use style="fill:#1f77b4;stroke:#1f77b4;" x="259.130625" xlink:href="#m673b9164a1" y="15.059063"/>
     </g>
    </g>
    <g id="text_15">
     <!-- 256_rma -->
     <defs>
      <path d="M 10.796875 72.90625 
L 49.515625 72.90625 
L 49.515625 64.59375 
L 19.828125 64.59375 
L 19.828125 46.734375 
Q 21.96875 47.46875 24.109375 47.828125 
Q 26.265625 48.1875 28.421875 48.1875 
Q 40.625 48.1875 47.75 41.5 
Q 54.890625 34.8125 54.890625 23.390625 
Q 54.890625 11.625 47.5625 5.09375 
Q 40.234375 -1.421875 26.90625 -1.421875 
Q 22.3125 -1.421875 17.546875 -0.640625 
Q 12.796875 0.140625 7.71875 1.703125 
L 7.71875 11.625 
Q 12.109375 9.234375 16.796875 8.0625 
Q 21.484375 6.890625 26.703125 6.890625 
Q 35.15625 6.890625 40.078125 11.328125 
Q 45.015625 15.765625 45.015625 23.390625 
Q 45.015625 31 40.078125 35.4375 
Q 35.15625 39.890625 26.703125 39.890625 
Q 22.75 39.890625 18.8125 39.015625 
Q 14.890625 38.140625 10.796875 36.28125 
z
" id="DejaVuSans-53"/>
      <path d="M 50.984375 -16.609375 
L 50.984375 -23.578125 
L -0.984375 -23.578125 
L -0.984375 -16.609375 
z
" id="DejaVuSans-95"/>
      <path d="M 34.28125 27.484375 
Q 23.390625 27.484375 19.1875 25 
Q 14.984375 22.515625 14.984375 16.5 
Q 14.984375 11.71875 18.140625 8.90625 
Q 21.296875 6.109375 26.703125 6.109375 
Q 34.1875 6.109375 38.703125 11.40625 
Q 43.21875 16.703125 43.21875 25.484375 
L 43.21875 27.484375 
z
M 52.203125 31.203125 
L 52.203125 0 
L 43.21875 0 
L 43.21875 8.296875 
Q 40.140625 3.328125 35.546875 0.953125 
Q 30.953125 -1.421875 24.3125 -1.421875 
Q 15.921875 -1.421875 10.953125 3.296875 
Q 6 8.015625 6 15.921875 
Q 6 25.140625 12.171875 29.828125 
Q 18.359375 34.515625 30.609375 34.515625 
L 43.21875 34.515625 
L 43.21875 35.40625 
Q 43.21875 41.609375 39.140625 45 
Q 35.0625 48.390625 27.6875 48.390625 
Q 23 48.390625 18.546875 47.265625 
Q 14.109375 46.140625 10.015625 43.890625 
L 10.015625 52.203125 
Q 14.9375 54.109375 19.578125 55.046875 
Q 24.21875 56 28.609375 56 
Q 40.484375 56 46.34375 49.84375 
Q 52.203125 43.703125 52.203125 31.203125 
z
" id="DejaVuSans-97"/>
     </defs>
     <g transform="translate(269.930625 17.159063)scale(0.06 -0.06)">
      <use xlink:href="#DejaVuSans-50"/>
      <use x="63.623047" xlink:href="#DejaVuSans-53"/>
      <use x="127.246094" xlink:href="#DejaVuSans-54"/>
      <use x="190.869141" xlink:href="#DejaVuSans-95"/>
      <use x="240.869141" xlink:href="#DejaVuSans-114"/>
      <use x="280.232422" xlink:href="#DejaVuSans-109"/>
      <use x="377.644531" xlink:href="#DejaVuSans-97"/>
     </g>
    </g>
    <g id="line2d_42">
     <path d="M 253.130625 24.032813 
L 265.130625 24.032813 
" style="fill:none;stroke:#ff7f0e;stroke-linecap:square;stroke-width:1.5;"/>
    </g>
    <g id="line2d_43">
     <g>
      <use style="fill:#ff7f0e;stroke:#ff7f0e;" x="259.130625" xlink:href="#m312329bff2" y="24.032813"/>
     </g>
    </g>
    <g id="text_16">
     <!-- 256_rma_seq_IO -->
     <defs>
      <path d="M 14.796875 27.296875 
Q 14.796875 17.390625 18.875 11.75 
Q 22.953125 6.109375 30.078125 6.109375 
Q 37.203125 6.109375 41.296875 11.75 
Q 45.40625 17.390625 45.40625 27.296875 
Q 45.40625 37.203125 41.296875 42.84375 
Q 37.203125 48.484375 30.078125 48.484375 
Q 22.953125 48.484375 18.875 42.84375 
Q 14.796875 37.203125 14.796875 27.296875 
z
M 45.40625 8.203125 
Q 42.578125 3.328125 38.25 0.953125 
Q 33.9375 -1.421875 27.875 -1.421875 
Q 17.96875 -1.421875 11.734375 6.484375 
Q 5.515625 14.40625 5.515625 27.296875 
Q 5.515625 40.1875 11.734375 48.09375 
Q 17.96875 56 27.875 56 
Q 33.9375 56 38.25 53.625 
Q 42.578125 51.265625 45.40625 46.390625 
L 45.40625 54.6875 
L 54.390625 54.6875 
L 54.390625 -20.796875 
L 45.40625 -20.796875 
z
" id="DejaVuSans-113"/>
      <path d="M 9.8125 72.90625 
L 19.671875 72.90625 
L 19.671875 0 
L 9.8125 0 
z
" id="DejaVuSans-73"/>
      <path d="M 39.40625 66.21875 
Q 28.65625 66.21875 22.328125 58.203125 
Q 16.015625 50.203125 16.015625 36.375 
Q 16.015625 22.609375 22.328125 14.59375 
Q 28.65625 6.59375 39.40625 6.59375 
Q 50.140625 6.59375 56.421875 14.59375 
Q 62.703125 22.609375 62.703125 36.375 
Q 62.703125 50.203125 56.421875 58.203125 
Q 50.140625 66.21875 39.40625 66.21875 
z
M 39.40625 74.21875 
Q 54.734375 74.21875 63.90625 63.9375 
Q 73.09375 53.65625 73.09375 36.375 
Q 73.09375 19.140625 63.90625 8.859375 
Q 54.734375 -1.421875 39.40625 -1.421875 
Q 24.03125 -1.421875 14.8125 8.828125 
Q 5.609375 19.09375 5.609375 36.375 
Q 5.609375 53.65625 14.8125 63.9375 
Q 24.03125 74.21875 39.40625 74.21875 
z
" id="DejaVuSans-79"/>
     </defs>
     <g transform="translate(269.930625 26.132813)scale(0.06 -0.06)">
      <use xlink:href="#DejaVuSans-50"/>
      <use x="63.623047" xlink:href="#DejaVuSans-53"/>
      <use x="127.246094" xlink:href="#DejaVuSans-54"/>
      <use x="190.869141" xlink:href="#DejaVuSans-95"/>
      <use x="240.869141" xlink:href="#DejaVuSans-114"/>
      <use x="280.232422" xlink:href="#DejaVuSans-109"/>
      <use x="377.644531" xlink:href="#DejaVuSans-97"/>
      <use x="438.923828" xlink:href="#DejaVuSans-95"/>
      <use x="488.923828" xlink:href="#DejaVuSans-115"/>
      <use x="541.023438" xlink:href="#DejaVuSans-101"/>
      <use x="602.546875" xlink:href="#DejaVuSans-113"/>
      <use x="666.023438" xlink:href="#DejaVuSans-95"/>
      <use x="716.023438" xlink:href="#DejaVuSans-73"/>
      <use x="745.515625" xlink:href="#DejaVuSans-79"/>
     </g>
    </g>
    <g id="line2d_44">
     <path d="M 253.130625 33.006563 
L 265.130625 33.006563 
" style="fill:none;stroke:#2ca02c;stroke-linecap:square;stroke-width:1.5;"/>
    </g>
    <g id="line2d_45">
     <g>
      <use style="fill:#2ca02c;stroke:#2ca02c;" x="259.130625" xlink:href="#m9b620811ff" y="33.006563"/>
     </g>
    </g>
    <g id="text_17">
     <!-- 256_rma_par_IO -->
     <g transform="translate(269.930625 35.106563)scale(0.06 -0.06)">
      <use xlink:href="#DejaVuSans-50"/>
      <use x="63.623047" xlink:href="#DejaVuSans-53"/>
      <use x="127.246094" xlink:href="#DejaVuSans-54"/>
      <use x="190.869141" xlink:href="#DejaVuSans-95"/>
      <use x="240.869141" xlink:href="#DejaVuSans-114"/>
      <use x="280.232422" xlink:href="#DejaVuSans-109"/>
      <use x="377.644531" xlink:href="#DejaVuSans-97"/>
      <use x="438.923828" xlink:href="#DejaVuSans-95"/>
      <use x="488.923828" xlink:href="#DejaVuSans-112"/>
      <use x="552.400391" xlink:href="#DejaVuSans-97"/>
      <use x="613.679688" xlink:href="#DejaVuSans-114"/>
      <use x="654.792969" xlink:href="#DejaVuSans-95"/>
      <use x="704.792969" xlink:href="#DejaVuSans-73"/>
      <use x="734.285156" xlink:href="#DejaVuSans-79"/>
     </g>
    </g>
    <g id="line2d_46">
     <path d="M 253.130625 41.980313 
L 265.130625 41.980313 
" style="fill:none;stroke:#d62728;stroke-linecap:square;stroke-width:1.5;"/>
    </g>
    <g id="line2d_47">
     <g>
      <use style="fill:#d62728;stroke:#d62728;stroke-linejoin:miter;" x="259.130625" xlink:href="#me3a9daa920" y="41.980313"/>
     </g>
    </g>
    <g id="text_18">
     <!-- 512_rma -->
     <g transform="translate(269.930625 44.080313)scale(0.06 -0.06)">
      <use xlink:href="#DejaVuSans-53"/>
      <use x="63.623047" xlink:href="#DejaVuSans-49"/>
      <use x="127.246094" xlink:href="#DejaVuSans-50"/>
      <use x="190.869141" xlink:href="#DejaVuSans-95"/>
      <use x="240.869141" xlink:href="#DejaVuSans-114"/>
      <use x="280.232422" xlink:href="#DejaVuSans-109"/>
      <use x="377.644531" xlink:href="#DejaVuSans-97"/>
     </g>
    </g>
    <g id="line2d_48">
     <path d="M 253.130625 50.954063 
L 265.130625 50.954063 
" style="fill:none;stroke:#9467bd;stroke-linecap:square;stroke-width:1.5;"/>
    </g>
    <g id="line2d_49">
     <g>
      <use style="fill:#9467bd;stroke:#9467bd;stroke-linejoin:miter;" x="259.130625" xlink:href="#m830ef33eaf" y="50.954063"/>
     </g>
    </g>
    <g id="text_19">
     <!-- 512_rma_seq_IO -->
     <g transform="translate(269.930625 53.054063)scale(0.06 -0.06)">
      <use xlink:href="#DejaVuSans-53"/>
      <use x="63.623047" xlink:href="#DejaVuSans-49"/>
      <use x="127.246094" xlink:href="#DejaVuSans-50"/>
      <use x="190.869141" xlink:href="#DejaVuSans-95"/>
      <use x="240.869141" xlink:href="#DejaVuSans-114"/>
      <use x="280.232422" xlink:href="#DejaVuSans-109"/>
      <use x="377.644531" xlink:href="#DejaVuSans-97"/>
      <use x="438.923828" xlink:href="#DejaVuSans-95"/>
      <use x="488.923828" xlink:href="#DejaVuSans-115"/>
      <use x="541.023438" xlink:href="#DejaVuSans-101"/>
      <use x="602.546875" xlink:href="#DejaVuSans-113"/>
      <use x="666.023438" xlink:href="#DejaVuSans-95"/>
      <use x="716.023438" xlink:href="#DejaVuSans-73"/>
      <use x="745.515625" xlink:href="#DejaVuSans-79"/>
     </g>
    </g>
    <g id="line2d_50">
     <path d="M 253.130625 59.927813 
L 265.130625 59.927813 
" style="fill:none;stroke:#8c564b;stroke-linecap:square;stroke-width:1.5;"/>
    </g>
    <g id="line2d_51">
     <g>
      <use style="fill:#8c564b;stroke:#8c564b;stroke-linejoin:miter;" x="259.130625" xlink:href="#me6ae8d3877" y="59.927813"/>
     </g>
    </g>
    <g id="text_20">
     <!-- 512_rma_par_IO -->
     <g transform="translate(269.930625 62.027813)scale(0.06 -0.06)">
      <use xlink:href="#DejaVuSans-53"/>
      <use x="63.623047" xlink:href="#DejaVuSans-49"/>
      <use x="127.246094" xlink:href="#DejaVuSans-50"/>
      <use x="190.869141" xlink:href="#DejaVuSans-95"/>
      <use x="240.869141" xlink:href="#DejaVuSans-114"/>
      <use x="280.232422" xlink:href="#DejaVuSans-109"/>
      <use x="377.644531" xlink:href="#DejaVuSans-97"/>
      <use x="438.923828" xlink:href="#DejaVuSans-95"/>
      <use x="488.923828" xlink:href="#DejaVuSans-112"/>
      <use x="552.400391" xlink:href="#DejaVuSans-97"/>
      <use x="613.679688" xlink:href="#DejaVuSans-114"/>
      <use x="654.792969" xlink:href="#DejaVuSans-95"/>
      <use x="704.792969" xlink:href="#DejaVuSans-73"/>
      <use x="734.285156" xlink:href="#DejaVuSans-79"/>
     </g>
    </g>
    <g id="line2d_52">
     <path d="M 253.130625 68.901563 
L 265.130625 68.901563 
" style="fill:none;stroke:#e377c2;stroke-linecap:square;stroke-width:1.5;"/>
    </g>
    <g id="line2d_53">
     <g>
      <use style="fill:#e377c2;stroke:#e377c2;stroke-linejoin:miter;" x="259.130625" xlink:href="#ma926de062f" y="68.901563"/>
     </g>
    </g>
    <g id="text_21">
     <!-- 1024_rma -->
     <g transform="translate(269.930625 71.001563)scale(0.06 -0.06)">
      <use xlink:href="#DejaVuSans-49"/>
      <use x="63.623047" xlink:href="#DejaVuSans-48"/>
      <use x="127.246094" xlink:href="#DejaVuSans-50"/>
      <use x="190.869141" xlink:href="#DejaVuSans-52"/>
      <use x="254.492188" xlink:href="#DejaVuSans-95"/>
      <use x="304.492188" xlink:href="#DejaVuSans-114"/>
      <use x="343.855469" xlink:href="#DejaVuSans-109"/>
      <use x="441.267578" xlink:href="#DejaVuSans-97"/>
     </g>
    </g>
    <g id="line2d_54">
     <path d="M 253.130625 77.875313 
L 265.130625 77.875313 
" style="fill:none;stroke:#7f7f7f;stroke-linecap:square;stroke-width:1.5;"/>
    </g>
    <g id="line2d_55">
     <g>
      <use style="fill:#7f7f7f;stroke:#7f7f7f;stroke-linejoin:miter;" x="259.130625" xlink:href="#m449927b3a6" y="77.875313"/>
     </g>
    </g>
    <g id="text_22">
     <!-- 1024_rma_seq_IO -->
     <g transform="translate(269.930625 79.975313)scale(0.06 -0.06)">
      <use xlink:href="#DejaVuSans-49"/>
      <use x="63.623047" xlink:href="#DejaVuSans-48"/>
      <use x="127.246094" xlink:href="#DejaVuSans-50"/>
      <use x="190.869141" xlink:href="#DejaVuSans-52"/>
      <use x="254.492188" xlink:href="#DejaVuSans-95"/>
      <use x="304.492188" xlink:href="#DejaVuSans-114"/>
      <use x="343.855469" xlink:href="#DejaVuSans-109"/>
      <use x="441.267578" xlink:href="#DejaVuSans-97"/>
      <use x="502.546875" xlink:href="#DejaVuSans-95"/>
      <use x="552.546875" xlink:href="#DejaVuSans-115"/>
      <use x="604.646484" xlink:href="#DejaVuSans-101"/>
      <use x="666.169922" xlink:href="#DejaVuSans-113"/>
      <use x="729.646484" xlink:href="#DejaVuSans-95"/>
      <use x="779.646484" xlink:href="#DejaVuSans-73"/>
      <use x="809.138672" xlink:href="#DejaVuSans-79"/>
     </g>
    </g>
    <g id="line2d_56">
     <path d="M 253.130625 86.849063 
L 265.130625 86.849063 
" style="fill:none;stroke:#bcbd22;stroke-linecap:square;stroke-width:1.5;"/>
    </g>
    <g id="line2d_57">
     <g>
      <use style="fill:#bcbd22;stroke:#bcbd22;stroke-linejoin:miter;" x="259.130625" xlink:href="#m08766709c4" y="86.849063"/>
     </g>
    </g>
    <g id="text_23">
     <!-- 1024_rma_par_IO -->
     <g transform="translate(269.930625 88.949063)scale(0.06 -0.06)">
      <use xlink:href="#DejaVuSans-49"/>
      <use x="63.623047" xlink:href="#DejaVuSans-48"/>
      <use x="127.246094" xlink:href="#DejaVuSans-50"/>
      <use x="190.869141" xlink:href="#DejaVuSans-52"/>
      <use x="254.492188" xlink:href="#DejaVuSans-95"/>
      <use x="304.492188" xlink:href="#DejaVuSans-114"/>
      <use x="343.855469" xlink:href="#DejaVuSans-109"/>
      <use x="441.267578" xlink:href="#DejaVuSans-97"/>
      <use x="502.546875" xlink:href="#DejaVuSans-95"/>
      <use x="552.546875" xlink:href="#DejaVuSans-112"/>
      <use x="616.023438" xlink:href="#DejaVuSans-97"/>
      <use x="677.302734" xlink:href="#DejaVuSans-114"/>
      <use x="718.416016" xlink:href="#DejaVuSans-95"/>
      <use x="768.416016" xlink:href="#DejaVuSans-73"/>
      <use x="797.908203" xlink:href="#DejaVuSans-79"/>
     </g>
    </g>
    <g id="line2d_58">
     <path d="M 253.130625 95.822813 
L 265.130625 95.822813 
" style="fill:none;stroke:#17becf;stroke-linecap:square;stroke-width:1.5;"/>
    </g>
    <g id="line2d_59">
     <g>
      <use style="fill:#17becf;stroke:#17becf;stroke-linejoin:miter;" x="259.130625" xlink:href="#mabc383c5a0" y="95.822813"/>
     </g>
    </g>
    <g id="text_24">
     <!-- 2048_rma -->
     <g transform="translate(269.930625 97.922813)scale(0.06 -0.06)">
      <use xlink:href="#DejaVuSans-50"/>
      <use x="63.623047" xlink:href="#DejaVuSans-48"/>
      <use x="127.246094" xlink:href="#DejaVuSans-52"/>
      <use x="190.869141" xlink:href="#DejaVuSans-56"/>
      <use x="254.492188" xlink:href="#DejaVuSans-95"/>
      <use x="304.492188" xlink:href="#DejaVuSans-114"/>
      <use x="343.855469" xlink:href="#DejaVuSans-109"/>
      <use x="441.267578" xlink:href="#DejaVuSans-97"/>
     </g>
    </g>
    <g id="line2d_60">
     <path d="M 253.130625 104.796563 
L 265.130625 104.796563 
" style="fill:none;stroke:#1f77b4;stroke-linecap:square;stroke-width:1.5;"/>
    </g>
    <g id="line2d_61">
     <g>
      <use style="fill:#1f77b4;stroke:#1f77b4;stroke-linejoin:miter;" x="259.130625" xlink:href="#m8c54a67576" y="104.796563"/>
     </g>
    </g>
    <g id="text_25">
     <!-- 2048_rma_seq_IO -->
     <g transform="translate(269.930625 106.896563)scale(0.06 -0.06)">
      <use xlink:href="#DejaVuSans-50"/>
      <use x="63.623047" xlink:href="#DejaVuSans-48"/>
      <use x="127.246094" xlink:href="#DejaVuSans-52"/>
      <use x="190.869141" xlink:href="#DejaVuSans-56"/>
      <use x="254.492188" xlink:href="#DejaVuSans-95"/>
      <use x="304.492188" xlink:href="#DejaVuSans-114"/>
      <use x="343.855469" xlink:href="#DejaVuSans-109"/>
      <use x="441.267578" xlink:href="#DejaVuSans-97"/>
      <use x="502.546875" xlink:href="#DejaVuSans-95"/>
      <use x="552.546875" xlink:href="#DejaVuSans-115"/>
      <use x="604.646484" xlink:href="#DejaVuSans-101"/>
      <use x="666.169922" xlink:href="#DejaVuSans-113"/>
      <use x="729.646484" xlink:href="#DejaVuSans-95"/>
      <use x="779.646484" xlink:href="#DejaVuSans-73"/>
      <use x="809.138672" xlink:href="#DejaVuSans-79"/>
     </g>
    </g>
    <g id="line2d_62">
     <path d="M 253.130625 113.770313 
L 265.130625 113.770313 
" style="fill:none;stroke:#ff7f0e;stroke-linecap:square;stroke-width:1.5;"/>
    </g>
    <g id="line2d_63">
     <g>
      <use style="fill:#ff7f0e;stroke:#ff7f0e;stroke-linejoin:miter;" x="259.130625" xlink:href="#mcdf78110a1" y="113.770313"/>
     </g>
    </g>
    <g id="text_26">
     <!-- 2048_rma_par_IO -->
     <g transform="translate(269.930625 115.870313)scale(0.06 -0.06)">
      <use xlink:href="#DejaVuSans-50"/>
      <use x="63.623047" xlink:href="#DejaVuSans-48"/>
      <use x="127.246094" xlink:href="#DejaVuSans-52"/>
      <use x="190.869141" xlink:href="#DejaVuSans-56"/>
      <use x="254.492188" xlink:href="#DejaVuSans-95"/>
      <use x="304.492188" xlink:href="#DejaVuSans-114"/>
      <use x="343.855469" xlink:href="#DejaVuSans-109"/>
      <use x="441.267578" xlink:href="#DejaVuSans-97"/>
      <use x="502.546875" xlink:href="#DejaVuSans-95"/>
      <use x="552.546875" xlink:href="#DejaVuSans-112"/>
      <use x="616.023438" xlink:href="#DejaVuSans-97"/>
      <use x="677.302734" xlink:href="#DejaVuSans-114"/>
      <use x="718.416016" xlink:href="#DejaVuSans-95"/>
      <use x="768.416016" xlink:href="#DejaVuSans-73"/>
      <use x="797.908203" xlink:href="#DejaVuSans-79"/>
     </g>
    </g>
    <g id="line2d_64">
     <path d="M 253.130625 122.744063 
L 265.130625 122.744063 
" style="fill:none;stroke:#2ca02c;stroke-linecap:square;stroke-width:1.5;"/>
    </g>
    <g id="line2d_65">
     <g>
      <use style="fill:#2ca02c;stroke:#2ca02c;stroke-linejoin:miter;" x="259.130625" xlink:href="#m8118b75ec3" y="122.744063"/>
     </g>
    </g>
    <g id="text_27">
     <!-- 4096_rma -->
     <defs>
      <path d="M 10.984375 1.515625 
L 10.984375 10.5 
Q 14.703125 8.734375 18.5 7.8125 
Q 22.3125 6.890625 25.984375 6.890625 
Q 35.75 6.890625 40.890625 13.453125 
Q 46.046875 20.015625 46.78125 33.40625 
Q 43.953125 29.203125 39.59375 26.953125 
Q 35.25 24.703125 29.984375 24.703125 
Q 19.046875 24.703125 12.671875 31.3125 
Q 6.296875 37.9375 6.296875 49.421875 
Q 6.296875 60.640625 12.9375 67.421875 
Q 19.578125 74.21875 30.609375 74.21875 
Q 43.265625 74.21875 49.921875 64.515625 
Q 56.59375 54.828125 56.59375 36.375 
Q 56.59375 19.140625 48.40625 8.859375 
Q 40.234375 -1.421875 26.421875 -1.421875 
Q 22.703125 -1.421875 18.890625 -0.6875 
Q 15.09375 0.046875 10.984375 1.515625 
z
M 30.609375 32.421875 
Q 37.25 32.421875 41.125 36.953125 
Q 45.015625 41.5 45.015625 49.421875 
Q 45.015625 57.28125 41.125 61.84375 
Q 37.25 66.40625 30.609375 66.40625 
Q 23.96875 66.40625 20.09375 61.84375 
Q 16.21875 57.28125 16.21875 49.421875 
Q 16.21875 41.5 20.09375 36.953125 
Q 23.96875 32.421875 30.609375 32.421875 
z
" id="DejaVuSans-57"/>
     </defs>
     <g transform="translate(269.930625 124.844063)scale(0.06 -0.06)">
      <use xlink:href="#DejaVuSans-52"/>
      <use x="63.623047" xlink:href="#DejaVuSans-48"/>
      <use x="127.246094" xlink:href="#DejaVuSans-57"/>
      <use x="190.869141" xlink:href="#DejaVuSans-54"/>
      <use x="254.492188" xlink:href="#DejaVuSans-95"/>
      <use x="304.492188" xlink:href="#DejaVuSans-114"/>
      <use x="343.855469" xlink:href="#DejaVuSans-109"/>
      <use x="441.267578" xlink:href="#DejaVuSans-97"/>
     </g>
    </g>
    <g id="line2d_66">
     <path d="M 253.130625 131.717813 
L 265.130625 131.717813 
" style="fill:none;stroke:#d62728;stroke-linecap:square;stroke-width:1.5;"/>
    </g>
    <g id="line2d_67">
     <g>
      <use style="fill:#d62728;stroke:#d62728;stroke-linejoin:miter;" x="259.130625" xlink:href="#mb2b05ffc7d" y="131.717813"/>
     </g>
    </g>
    <g id="text_28">
     <!-- 4096_rma_seq_IO -->
     <g transform="translate(269.930625 133.817813)scale(0.06 -0.06)">
      <use xlink:href="#DejaVuSans-52"/>
      <use x="63.623047" xlink:href="#DejaVuSans-48"/>
      <use x="127.246094" xlink:href="#DejaVuSans-57"/>
      <use x="190.869141" xlink:href="#DejaVuSans-54"/>
      <use x="254.492188" xlink:href="#DejaVuSans-95"/>
      <use x="304.492188" xlink:href="#DejaVuSans-114"/>
      <use x="343.855469" xlink:href="#DejaVuSans-109"/>
      <use x="441.267578" xlink:href="#DejaVuSans-97"/>
      <use x="502.546875" xlink:href="#DejaVuSans-95"/>
      <use x="552.546875" xlink:href="#DejaVuSans-115"/>
      <use x="604.646484" xlink:href="#DejaVuSans-101"/>
      <use x="666.169922" xlink:href="#DejaVuSans-113"/>
      <use x="729.646484" xlink:href="#DejaVuSans-95"/>
      <use x="779.646484" xlink:href="#DejaVuSans-73"/>
      <use x="809.138672" xlink:href="#DejaVuSans-79"/>
     </g>
    </g>
    <g id="line2d_68">
     <path d="M 253.130625 140.691563 
L 265.130625 140.691563 
" style="fill:none;stroke:#9467bd;stroke-linecap:square;stroke-width:1.5;"/>
    </g>
    <g id="line2d_69">
     <g>
      <use style="fill:#9467bd;stroke:#9467bd;stroke-linejoin:miter;" x="259.130625" xlink:href="#m4824d0b595" y="140.691563"/>
     </g>
    </g>
    <g id="text_29">
     <!-- 4096_rma_par_IO -->
     <g transform="translate(269.930625 142.791562)scale(0.06 -0.06)">
      <use xlink:href="#DejaVuSans-52"/>
      <use x="63.623047" xlink:href="#DejaVuSans-48"/>
      <use x="127.246094" xlink:href="#DejaVuSans-57"/>
      <use x="190.869141" xlink:href="#DejaVuSans-54"/>
      <use x="254.492188" xlink:href="#DejaVuSans-95"/>
      <use x="304.492188" xlink:href="#DejaVuSans-114"/>
      <use x="343.855469" xlink:href="#DejaVuSans-109"/>
      <use x="441.267578" xlink:href="#DejaVuSans-97"/>
      <use x="502.546875" xlink:href="#DejaVuSans-95"/>
      <use x="552.546875" xlink:href="#DejaVuSans-112"/>
      <use x="616.023438" xlink:href="#DejaVuSans-97"/>
      <use x="677.302734" xlink:href="#DejaVuSans-114"/>
      <use x="718.416016" xlink:href="#DejaVuSans-95"/>
      <use x="768.416016" xlink:href="#DejaVuSans-73"/>
      <use x="797.908203" xlink:href="#DejaVuSans-79"/>
     </g>
    </g>
   </g>
  </g>
 </g>
 <defs>
  <clipPath id="pedf34d2a06">
   <rect height="216" width="288" x="40.603125" y="7.2"/>
  </clipPath>
 </defs>
</svg>
